<svg xmlns="http://www.w3.org/2000/svg" xmlns:xlink="http://www.w3.org/1999/xlink" version="1.1" viewBox="0 352.5 960 188.5" preserveAspectRatio="none" class="footer__split">
  <path d="M0 441L22.8 424.5C45.7 408 91.3 375 137 360.8C182.7 346.7 228.3 351.3 274 369.3C319.7 387.3 365.3 418.7 411.2 414.2C457 409.7 503 369.3 548.8 368C594.7 366.7 640.3 404.3 686 421.7C731.7 439 777.3 436 823 429.8C868.7 423.7 914.3 414.3 937.2 409.7L960 405L960 541L937.2 541C914.3 541 868.7 541 823 541C777.3 541 731.7 541 686 541C640.3 541 594.7 541 548.8 541C503 541 457 541 411.2 541C365.3 541 319.7 541 274 541C228.3 541 182.7 541 137 541C91.3 541 45.7 541 22.8 541L0 541Z" fill="#f7f9fb"/>
  <path d="M0 477L22.8 467C45.7 457 91.3 437 137 423.8C182.7 410.7 228.3 404.3 274 401.7C319.7 399 365.3 400 411.2 413.5C457 427 503 453 548.8 464.2C594.7 475.3 640.3 471.7 686 456.5C731.7 441.3 777.3 414.7 823 404.5C868.7 394.3 914.3 400.7 937.2 403.8L960 407L960 541L937.2 541C914.3 541 868.7 541 823 541C777.3 541 731.7 541 686 541C640.3 541 594.7 541 548.8 541C503 541 457 541 411.2 541C365.3 541 319.7 541 274 541C228.3 541 182.7 541 137 541C91.3 541 45.7 541 22.8 541L0 541Z" fill="#eff3f7"/>
  <path d="M0 459L22.8 456.2C45.7 453.3 91.3 447.7 137 456.7C182.7 465.7 228.3 489.3 274 494.8C319.7 500.3 365.3 487.7 411.2 476C457 464.3 503 453.7 548.8 451.7C594.7 449.7 640.3 456.3 686 462.5C731.7 468.7 777.3 474.3 823 473.2C868.7 472 914.3 464 937.2 460L960 456L960 541L937.2 541C914.3 541 868.7 541 823 541C777.3 541 731.7 541 686 541C640.3 541 594.7 541 548.8 541C503 541 457 541 411.2 541C365.3 541 319.7 541 274 541C228.3 541 182.7 541 137 541C91.3 541 45.7 541 22.8 541L0 541Z" fill="#e8eef4" stroke="#e8eef4"/>
</svg>
