<svg xmlns="http://www.w3.org/2000/svg" xmlns:xlink="http://www.w3.org/1999/xlink" version="1.1" viewBox="0 0 960 168" preserveAspectRatio="none" class="works__split">
  <path d="M0 164L26.7 161.3C53.3 158.7 106.7 153.3 160 138.8C213.3 124.3 266.7 100.7 320 100.5C373.3 100.3 426.7 123.7 480 128C533.3 132.3 586.7 117.7 640 111.5C693.3 105.3 746.7 107.7 800 118.5C853.3 129.3 906.7 148.7 933.3 158.3L960 168L960 0L933.3 0C906.7 0 853.3 0 800 0C746.7 0 693.3 0 640 0C586.7 0 533.3 0 480 0C426.7 0 373.3 0 320 0C266.7 0 213.3 0 160 0C106.7 0 53.3 0 26.7 0L0 0Z" stroke-linecap="round" stroke-linejoin="miter"/>
</svg>
