<svg xmlns="http://www.w3.org/2000/svg" xmlns:xlink="http://www.w3.org/1999/xlink" version="1.1" viewBox="0 349 960 192" preserveAspectRatio="none" class="works__split">
  <path d="M0 412L26.7 414.8C53.3 417.7 106.7 423.3 160 429C213.3 434.7 266.7 440.3 320 425C373.3 409.7 426.7 373.3 480 364.7C533.3 356 586.7 375 640 394C693.3 413 746.7 432 800 424.5C853.3 417 906.7 383 933.3 366L960 349L960 541L933.3 541C906.7 541 853.3 541 800 541C746.7 541 693.3 541 640 541C586.7 541 533.3 541 480 541C426.7 541 373.3 541 320 541C266.7 541 213.3 541 160 541C106.7 541 53.3 541 26.7 541L0 541Z" stroke-linecap="round" stroke-linejoin="miter"/>
</svg>
