<svg xmlns="http://www.w3.org/2000/svg" xmlns:xlink="http://www.w3.org/1999/xlink" width="768" height="576" viewBox="0 0 576 432"><defs><style>*{stroke-linejoin:round;stroke-linecap:butt}</style></defs><g id="figure_1"><path id="patch_1" d="M0 432h576V0H0z" style="fill:#fff"/><g id="axes_1"><path id="patch_2" d="M72 384.48h446.4V51.84H72z" style="fill:#fff"/><g id="matplotlib.axis_1"><g id="xtick_1"><g id="line2d_1"><defs><path id="m147473c381" d="M0 0v3.5" style="stroke:#000;stroke-width:.8"/></defs><use xlink:href="#m147473c381" x="92.291" y="384.48" style="stroke:#000;stroke-width:.8"/></g><g id="text_1" transform="matrix(.1 0 0 -.1 84.34 399.078)"><defs><path id="DejaVuSans-30" d="M2034 4250q-487 0-733-480-245-479-245-1442 0-959 245-1439 246-480 733-480 491 0 736 480 246 480 246 1439 0 963-246 1442-245 480-736 480m0 500q785 0 1199-621 414-620 414-1801 0-1178-414-1799Q2819-91 2034-91q-784 0-1198 620-414 621-414 1799 0 1181 414 1801 414 621 1198 621" transform="scale(.01563)"/><path id="DejaVuSans-2e" d="M684 794h660V0H684z" transform="scale(.01563)"/></defs><use xlink:href="#DejaVuSans-30"/><use xlink:href="#DejaVuSans-2e" x="63.623"/><use xlink:href="#DejaVuSans-30" x="95.41"/></g></g><g id="xtick_2"><use xlink:href="#m147473c381" id="line2d_2" x="151.97" y="384.48" style="stroke:#000;stroke-width:.8"/><g id="text_2" transform="matrix(.1 0 0 -.1 144.018 399.078)"><defs><path id="DejaVuSans-32" d="M1228 531h2203V0H469v531q359 372 979 998 621 627 780 809 303 340 423 576 121 236 121 464 0 372-261 606-261 235-680 235-297 0-627-103-329-103-704-313v638q381 153 712 231 332 78 607 78 725 0 1156-363 431-362 431-968 0-288-108-546-107-257-392-607-78-91-497-524-418-433-1181-1211" transform="scale(.01563)"/><path id="DejaVuSans-35" d="M691 4666h2478v-532H1269V2991q137 47 274 70 138 23 276 23 781 0 1237-428 457-428 457-1159 0-753-469-1171Q2575-91 1722-91q-294 0-599 50Q819 9 494 109v635q281-153 581-228t634-75q541 0 856 284 316 284 316 772 0 487-316 771-315 285-856 285-253 0-505-56-251-56-513-175z" transform="scale(.01563)"/></defs><use xlink:href="#DejaVuSans-32"/><use xlink:href="#DejaVuSans-2e" x="63.623"/><use xlink:href="#DejaVuSans-35" x="95.41"/></g></g><g id="xtick_3"><use xlink:href="#m147473c381" id="line2d_3" x="211.649" y="384.48" style="stroke:#000;stroke-width:.8"/><g id="text_3" transform="matrix(.1 0 0 -.1 203.698 399.078)"><use xlink:href="#DejaVuSans-35"/><use xlink:href="#DejaVuSans-2e" x="63.623"/><use xlink:href="#DejaVuSans-30" x="95.41"/></g></g><g id="xtick_4"><use xlink:href="#m147473c381" id="line2d_4" x="271.328" y="384.48" style="stroke:#000;stroke-width:.8"/><g id="text_4" transform="matrix(.1 0 0 -.1 263.377 399.078)"><defs><path id="DejaVuSans-37" d="M525 4666h3000v-269L1831 0h-659l1594 4134H525z" transform="scale(.01563)"/></defs><use xlink:href="#DejaVuSans-37"/><use xlink:href="#DejaVuSans-2e" x="63.623"/><use xlink:href="#DejaVuSans-35" x="95.41"/></g></g><g id="xtick_5"><use xlink:href="#m147473c381" id="line2d_5" x="331.007" y="384.48" style="stroke:#000;stroke-width:.8"/><g id="text_5" transform="matrix(.1 0 0 -.1 319.875 399.078)"><defs><path id="DejaVuSans-31" d="M794 531h1031v3560L703 3866v575l1116 225h631V531h1031V0H794z" transform="scale(.01563)"/></defs><use xlink:href="#DejaVuSans-31"/><use xlink:href="#DejaVuSans-30" x="63.623"/><use xlink:href="#DejaVuSans-2e" x="127.246"/><use xlink:href="#DejaVuSans-30" x="159.033"/></g></g><g id="xtick_6"><use xlink:href="#m147473c381" id="line2d_6" x="390.687" y="384.48" style="stroke:#000;stroke-width:.8"/><g id="text_6" transform="matrix(.1 0 0 -.1 379.554 399.078)"><use xlink:href="#DejaVuSans-31"/><use xlink:href="#DejaVuSans-32" x="63.623"/><use xlink:href="#DejaVuSans-2e" x="127.246"/><use xlink:href="#DejaVuSans-35" x="159.033"/></g></g><g id="xtick_7"><use xlink:href="#m147473c381" id="line2d_7" x="450.366" y="384.48" style="stroke:#000;stroke-width:.8"/><g id="text_7" transform="matrix(.1 0 0 -.1 439.233 399.078)"><use xlink:href="#DejaVuSans-31"/><use xlink:href="#DejaVuSans-35" x="63.623"/><use xlink:href="#DejaVuSans-2e" x="127.246"/><use xlink:href="#DejaVuSans-30" x="159.033"/></g></g><g id="xtick_8"><use xlink:href="#m147473c381" id="line2d_8" x="510.045" y="384.48" style="stroke:#000;stroke-width:.8"/><g id="text_8" transform="matrix(.1 0 0 -.1 498.912 399.078)"><use xlink:href="#DejaVuSans-31"/><use xlink:href="#DejaVuSans-37" x="63.623"/><use xlink:href="#DejaVuSans-2e" x="127.246"/><use xlink:href="#DejaVuSans-35" x="159.033"/></g></g><g id="text_9" transform="matrix(.1 0 0 -.1 277.679 412.757)"><defs><path id="DejaVuSans-64" d="M2906 2969v1894h575V0h-575v525q-181-312-458-464-276-152-664-152-634 0-1033 506-398 507-398 1332t398 1331q399 506 1033 506 388 0 664-152 277-151 458-463M947 1747q0-634 261-995t717-361 718 361q263 361 263 995t-263 995q-262 361-718 361t-717-361-261-995" transform="scale(.01563)"/><path id="DejaVuSans-65" d="M3597 1894v-281H953q38-594 358-905t892-311q331 0 642 81t618 244V178Q3153 47 2828-22t-659-69q-838 0-1327 487-489 488-489 1320 0 859 464 1363 464 505 1252 505 706 0 1117-455 411-454 411-1235m-575 169q-6 471-264 752-258 282-683 282-481 0-770-272t-333-766z" transform="scale(.01563)"/><path id="DejaVuSans-67" d="M2906 1791q0 625-258 968-257 344-723 344-462 0-720-344-258-343-258-968 0-622 258-966t720-344q466 0 723 344 258 344 258 966m575-1357q0-893-397-1329-396-436-1215-436-303 0-572 45t-522 139v559q253-137 500-202 247-66 503-66 566 0 847 295t281 892v285q-178-310-456-463T1784 0Q1141 0 747 490 353 981 353 1791q0 812 394 1302 394 491 1037 491 388 0 666-153t456-462v531h575z" transform="scale(.01563)"/><path id="DejaVuSans-72" d="M2631 2963q-97 56-211 82-114 27-251 27-488 0-749-317t-261-911V0H581v3500h578v-544q182 319 472 473 291 155 707 155 59 0 131-8 72-7 159-23z" transform="scale(.01563)"/></defs><use xlink:href="#DejaVuSans-64"/><use xlink:href="#DejaVuSans-65" x="63.477"/><use xlink:href="#DejaVuSans-67" x="125"/><use xlink:href="#DejaVuSans-72" x="188.477"/><use xlink:href="#DejaVuSans-65" x="227.34"/><use xlink:href="#DejaVuSans-65" x="288.863"/></g></g><g id="matplotlib.axis_2"><g id="ytick_1"><g id="line2d_9"><defs><path id="m34103cf70c" d="M0 0h-3.5" style="stroke:#000;stroke-width:.8"/></defs><use xlink:href="#m34103cf70c" x="72" y="367.223" style="stroke:#000;stroke-width:.8"/></g><g id="text_10" transform="matrix(.1 0 0 -.1 47.4 371.022)"><use xlink:href="#DejaVuSans-31" transform="translate(0 .766)"/><use xlink:href="#DejaVuSans-30" transform="translate(63.623 .766)"/><use xlink:href="#DejaVuSans-30" transform="matrix(.7 0 0 .7 128.203 39.047)"/></g></g><g id="ytick_2"><use xlink:href="#m34103cf70c" id="line2d_10" x="72" y="322.198" style="stroke:#000;stroke-width:.8"/><g id="text_11" transform="matrix(.1 0 0 -.1 47.4 325.997)"><use xlink:href="#DejaVuSans-31" transform="translate(0 .684)"/><use xlink:href="#DejaVuSans-30" transform="translate(63.623 .684)"/><use xlink:href="#DejaVuSans-31" transform="matrix(.7 0 0 .7 128.203 38.966)"/></g></g><g id="ytick_3"><use xlink:href="#m34103cf70c" id="line2d_11" x="72" y="277.172" style="stroke:#000;stroke-width:.8"/><g id="text_12" transform="matrix(.1 0 0 -.1 47.4 280.972)"><use xlink:href="#DejaVuSans-31" transform="translate(0 .766)"/><use xlink:href="#DejaVuSans-30" transform="translate(63.623 .766)"/><use xlink:href="#DejaVuSans-32" transform="matrix(.7 0 0 .7 128.203 39.047)"/></g></g><g id="ytick_4"><use xlink:href="#m34103cf70c" id="line2d_12" x="72" y="232.147" style="stroke:#000;stroke-width:.8"/><g id="text_13" transform="matrix(.1 0 0 -.1 47.4 235.946)"><defs><path id="DejaVuSans-33" d="M2597 2516q453-97 707-404 255-306 255-756 0-690-475-1069Q2609-91 1734-91q-293 0-604 58T488 141v609q262-153 574-231 313-78 654-78 593 0 904 234t311 681q0 413-289 645-289 233-804 233h-544v519h569q465 0 712 186t247 536q0 359-255 551-254 193-729 193-260 0-557-57-297-56-653-174v562q360 100 674 150t592 50q719 0 1137-327 419-326 419-882 0-388-222-655t-631-370" transform="scale(.01563)"/></defs><use xlink:href="#DejaVuSans-31" transform="translate(0 .766)"/><use xlink:href="#DejaVuSans-30" transform="translate(63.623 .766)"/><use xlink:href="#DejaVuSans-33" transform="matrix(.7 0 0 .7 128.203 39.047)"/></g></g><g id="ytick_5"><use xlink:href="#m34103cf70c" id="line2d_13" x="72" y="187.122" style="stroke:#000;stroke-width:.8"/><g id="text_14" transform="matrix(.1 0 0 -.1 47.4 190.92)"><defs><path id="DejaVuSans-34" d="M2419 4116 825 1625h1594zm-166 550h794V1625h666v-525h-666V0h-628v1100H313v609z" transform="scale(.01563)"/></defs><use xlink:href="#DejaVuSans-31" transform="translate(0 .684)"/><use xlink:href="#DejaVuSans-30" transform="translate(63.623 .684)"/><use xlink:href="#DejaVuSans-34" transform="matrix(.7 0 0 .7 128.203 38.966)"/></g></g><g id="ytick_6"><use xlink:href="#m34103cf70c" id="line2d_14" x="72" y="142.096" style="stroke:#000;stroke-width:.8"/><g id="text_15" transform="matrix(.1 0 0 -.1 47.4 145.895)"><use xlink:href="#DejaVuSans-31" transform="translate(0 .684)"/><use xlink:href="#DejaVuSans-30" transform="translate(63.623 .684)"/><use xlink:href="#DejaVuSans-35" transform="matrix(.7 0 0 .7 128.203 38.966)"/></g></g><g id="ytick_7"><use xlink:href="#m34103cf70c" id="line2d_15" x="72" y="97.071" style="stroke:#000;stroke-width:.8"/><g id="text_16" transform="matrix(.1 0 0 -.1 47.4 100.87)"><defs><path id="DejaVuSans-36" d="M2113 2584q-425 0-674-291-248-290-248-796 0-503 248-796 249-292 674-292t673 292q248 293 248 796 0 506-248 796-248 291-673 291m1253 1979v-575q-238 112-480 171-242 60-480 60-625 0-955-422-329-422-376-1275 184 272 462 417 279 145 613 145 703 0 1111-427 408-426 408-1160 0-719-425-1154Q2819-91 2113-91q-810 0-1238 620-428 621-428 1799 0 1106 525 1764t1409 658q238 0 480-47t505-140" transform="scale(.01563)"/></defs><use xlink:href="#DejaVuSans-31" transform="translate(0 .766)"/><use xlink:href="#DejaVuSans-30" transform="translate(63.623 .766)"/><use xlink:href="#DejaVuSans-36" transform="matrix(.7 0 0 .7 128.203 39.047)"/></g></g><g id="ytick_8"><use xlink:href="#m34103cf70c" id="line2d_16" x="72" y="52.045" style="stroke:#000;stroke-width:.8"/><g id="text_17" transform="matrix(.1 0 0 -.1 47.4 55.845)"><use xlink:href="#DejaVuSans-31" transform="translate(0 .684)"/><use xlink:href="#DejaVuSans-30" transform="translate(63.623 .684)"/><use xlink:href="#DejaVuSans-37" transform="matrix(.7 0 0 .7 128.203 38.966)"/></g></g><g id="ytick_9"><g id="line2d_17"><defs><path id="mc710889a9d" d="M0 0h-2" style="stroke:#000;stroke-width:.6"/></defs><use xlink:href="#mc710889a9d" x="72" y="380.777" style="stroke:#000;stroke-width:.6"/></g></g><g id="ytick_10"><use xlink:href="#mc710889a9d" id="line2d_18" x="72" y="377.212" style="stroke:#000;stroke-width:.6"/></g><g id="ytick_11"><use xlink:href="#mc710889a9d" id="line2d_19" x="72" y="374.198" style="stroke:#000;stroke-width:.6"/></g><g id="ytick_12"><use xlink:href="#mc710889a9d" id="line2d_20" x="72" y="371.587" style="stroke:#000;stroke-width:.6"/></g><g id="ytick_13"><use xlink:href="#mc710889a9d" id="line2d_21" x="72" y="369.283" style="stroke:#000;stroke-width:.6"/></g><g id="ytick_14"><use xlink:href="#mc710889a9d" id="line2d_22" x="72" y="353.669" style="stroke:#000;stroke-width:.6"/></g><g id="ytick_15"><use xlink:href="#mc710889a9d" id="line2d_23" x="72" y="345.741" style="stroke:#000;stroke-width:.6"/></g><g id="ytick_16"><use xlink:href="#mc710889a9d" id="line2d_24" x="72" y="340.115" style="stroke:#000;stroke-width:.6"/></g><g id="ytick_17"><use xlink:href="#mc710889a9d" id="line2d_25" x="72" y="335.752" style="stroke:#000;stroke-width:.6"/></g><g id="ytick_18"><use xlink:href="#mc710889a9d" id="line2d_26" x="72" y="332.187" style="stroke:#000;stroke-width:.6"/></g><g id="ytick_19"><use xlink:href="#mc710889a9d" id="line2d_27" x="72" y="329.172" style="stroke:#000;stroke-width:.6"/></g><g id="ytick_20"><use xlink:href="#mc710889a9d" id="line2d_28" x="72" y="326.561" style="stroke:#000;stroke-width:.6"/></g><g id="ytick_21"><use xlink:href="#mc710889a9d" id="line2d_29" x="72" y="324.258" style="stroke:#000;stroke-width:.6"/></g><g id="ytick_22"><use xlink:href="#mc710889a9d" id="line2d_30" x="72" y="308.644" style="stroke:#000;stroke-width:.6"/></g><g id="ytick_23"><use xlink:href="#mc710889a9d" id="line2d_31" x="72" y="300.715" style="stroke:#000;stroke-width:.6"/></g><g id="ytick_24"><use xlink:href="#mc710889a9d" id="line2d_32" x="72" y="295.09" style="stroke:#000;stroke-width:.6"/></g><g id="ytick_25"><use xlink:href="#mc710889a9d" id="line2d_33" x="72" y="290.726" style="stroke:#000;stroke-width:.6"/></g><g id="ytick_26"><use xlink:href="#mc710889a9d" id="line2d_34" x="72" y="287.161" style="stroke:#000;stroke-width:.6"/></g><g id="ytick_27"><use xlink:href="#mc710889a9d" id="line2d_35" x="72" y="284.147" style="stroke:#000;stroke-width:.6"/></g><g id="ytick_28"><use xlink:href="#mc710889a9d" id="line2d_36" x="72" y="281.536" style="stroke:#000;stroke-width:.6"/></g><g id="ytick_29"><use xlink:href="#mc710889a9d" id="line2d_37" x="72" y="279.233" style="stroke:#000;stroke-width:.6"/></g><g id="ytick_30"><use xlink:href="#mc710889a9d" id="line2d_38" x="72" y="263.618" style="stroke:#000;stroke-width:.6"/></g><g id="ytick_31"><use xlink:href="#mc710889a9d" id="line2d_39" x="72" y="255.69" style="stroke:#000;stroke-width:.6"/></g><g id="ytick_32"><use xlink:href="#mc710889a9d" id="line2d_40" x="72" y="250.064" style="stroke:#000;stroke-width:.6"/></g><g id="ytick_33"><use xlink:href="#mc710889a9d" id="line2d_41" x="72" y="245.701" style="stroke:#000;stroke-width:.6"/></g><g id="ytick_34"><use xlink:href="#mc710889a9d" id="line2d_42" x="72" y="242.136" style="stroke:#000;stroke-width:.6"/></g><g id="ytick_35"><use xlink:href="#mc710889a9d" id="line2d_43" x="72" y="239.122" style="stroke:#000;stroke-width:.6"/></g><g id="ytick_36"><use xlink:href="#mc710889a9d" id="line2d_44" x="72" y="236.51" style="stroke:#000;stroke-width:.6"/></g><g id="ytick_37"><use xlink:href="#mc710889a9d" id="line2d_45" x="72" y="234.207" style="stroke:#000;stroke-width:.6"/></g><g id="ytick_38"><use xlink:href="#mc710889a9d" id="line2d_46" x="72" y="218.593" style="stroke:#000;stroke-width:.6"/></g><g id="ytick_39"><use xlink:href="#mc710889a9d" id="line2d_47" x="72" y="210.664" style="stroke:#000;stroke-width:.6"/></g><g id="ytick_40"><use xlink:href="#mc710889a9d" id="line2d_48" x="72" y="205.039" style="stroke:#000;stroke-width:.6"/></g><g id="ytick_41"><use xlink:href="#mc710889a9d" id="line2d_49" x="72" y="200.676" style="stroke:#000;stroke-width:.6"/></g><g id="ytick_42"><use xlink:href="#mc710889a9d" id="line2d_50" x="72" y="197.11" style="stroke:#000;stroke-width:.6"/></g><g id="ytick_43"><use xlink:href="#mc710889a9d" id="line2d_51" x="72" y="194.096" style="stroke:#000;stroke-width:.6"/></g><g id="ytick_44"><use xlink:href="#mc710889a9d" id="line2d_52" x="72" y="191.485" style="stroke:#000;stroke-width:.6"/></g><g id="ytick_45"><use xlink:href="#mc710889a9d" id="line2d_53" x="72" y="189.182" style="stroke:#000;stroke-width:.6"/></g><g id="ytick_46"><use xlink:href="#mc710889a9d" id="line2d_54" x="72" y="173.568" style="stroke:#000;stroke-width:.6"/></g><g id="ytick_47"><use xlink:href="#mc710889a9d" id="line2d_55" x="72" y="165.639" style="stroke:#000;stroke-width:.6"/></g><g id="ytick_48"><use xlink:href="#mc710889a9d" id="line2d_56" x="72" y="160.014" style="stroke:#000;stroke-width:.6"/></g><g id="ytick_49"><use xlink:href="#mc710889a9d" id="line2d_57" x="72" y="155.65" style="stroke:#000;stroke-width:.6"/></g><g id="ytick_50"><use xlink:href="#mc710889a9d" id="line2d_58" x="72" y="152.085" style="stroke:#000;stroke-width:.6"/></g><g id="ytick_51"><use xlink:href="#mc710889a9d" id="line2d_59" x="72" y="149.071" style="stroke:#000;stroke-width:.6"/></g><g id="ytick_52"><use xlink:href="#mc710889a9d" id="line2d_60" x="72" y="146.46" style="stroke:#000;stroke-width:.6"/></g><g id="ytick_53"><use xlink:href="#mc710889a9d" id="line2d_61" x="72" y="144.156" style="stroke:#000;stroke-width:.6"/></g><g id="ytick_54"><use xlink:href="#mc710889a9d" id="line2d_62" x="72" y="128.542" style="stroke:#000;stroke-width:.6"/></g><g id="ytick_55"><use xlink:href="#mc710889a9d" id="line2d_63" x="72" y="120.614" style="stroke:#000;stroke-width:.6"/></g><g id="ytick_56"><use xlink:href="#mc710889a9d" id="line2d_64" x="72" y="114.988" style="stroke:#000;stroke-width:.6"/></g><g id="ytick_57"><use xlink:href="#mc710889a9d" id="line2d_65" x="72" y="110.625" style="stroke:#000;stroke-width:.6"/></g><g id="ytick_58"><use xlink:href="#mc710889a9d" id="line2d_66" x="72" y="107.06" style="stroke:#000;stroke-width:.6"/></g><g id="ytick_59"><use xlink:href="#mc710889a9d" id="line2d_67" x="72" y="104.045" style="stroke:#000;stroke-width:.6"/></g><g id="ytick_60"><use xlink:href="#mc710889a9d" id="line2d_68" x="72" y="101.434" style="stroke:#000;stroke-width:.6"/></g><g id="ytick_61"><use xlink:href="#mc710889a9d" id="line2d_69" x="72" y="99.131" style="stroke:#000;stroke-width:.6"/></g><g id="ytick_62"><use xlink:href="#mc710889a9d" id="line2d_70" x="72" y="83.517" style="stroke:#000;stroke-width:.6"/></g><g id="ytick_63"><use xlink:href="#mc710889a9d" id="line2d_71" x="72" y="75.588" style="stroke:#000;stroke-width:.6"/></g><g id="ytick_64"><use xlink:href="#mc710889a9d" id="line2d_72" x="72" y="69.963" style="stroke:#000;stroke-width:.6"/></g><g id="ytick_65"><use xlink:href="#mc710889a9d" id="line2d_73" x="72" y="65.599" style="stroke:#000;stroke-width:.6"/></g><g id="ytick_66"><use xlink:href="#mc710889a9d" id="line2d_74" x="72" y="62.034" style="stroke:#000;stroke-width:.6"/></g><g id="ytick_67"><use xlink:href="#mc710889a9d" id="line2d_75" x="72" y="59.02" style="stroke:#000;stroke-width:.6"/></g><g id="ytick_68"><use xlink:href="#mc710889a9d" id="line2d_76" x="72" y="56.409" style="stroke:#000;stroke-width:.6"/></g><g id="ytick_69"><use xlink:href="#mc710889a9d" id="line2d_77" x="72" y="54.106" style="stroke:#000;stroke-width:.6"/></g><g id="text_18" transform="matrix(0 -.1 -.1 0 41.32 254.925)"><defs><path id="DejaVuSans-6f" d="M1959 3097q-462 0-731-361t-269-989 267-989q268-361 733-361 460 0 728 362 269 363 269 988 0 622-269 986-268 364-728 364m0 487q750 0 1178-488 429-487 429-1349 0-859-429-1349Q2709-91 1959-91q-753 0-1180 489-426 490-426 1349 0 862 426 1349 427 488 1180 488" transform="scale(.01563)"/><path id="DejaVuSans-28" d="M1984 4856q-418-718-622-1422-203-703-203-1425 0-721 205-1429t620-1424h-500Q1016-109 783 600T550 2009q0 697 231 1403 232 707 703 1444z" transform="scale(.01563)"/><path id="DejaVuSans-66" d="M2375 4863v-479h-550q-309 0-430-125-120-125-120-450v-309h947v-447h-947V0H697v3053H147v447h550v244q0 584 272 851 272 268 862 268z" transform="scale(.01563)"/><path id="DejaVuSans-55" d="M556 4666h635V1831q0-750 271-1080 272-329 882-329 606 0 878 329 272 330 272 1080v2835h634V1753q0-912-452-1378Q3225-91 2344-91q-885 0-1337 466-451 466-451 1378z" transform="scale(.01563)"/><path id="DejaVuSans-4c" d="M628 4666h631V531h2272V0H628z" transform="scale(.01563)"/><path id="DejaVuSans-50" d="M1259 4147V2394h794q441 0 681 228 241 228 241 650 0 419-241 647-240 228-681 228zm-631 519h1425q785 0 1186-355 402-355 402-1039 0-691-402-1044-401-353-1186-353h-794V0H628z" transform="scale(.01563)"/><path id="DejaVuSans-29" d="M513 4856h500q468-737 701-1444 233-706 233-1403 0-700-233-1409T1013-844H513q415 716 620 1424t205 1429q0 722-205 1425-205 704-620 1422" transform="scale(.01563)"/></defs><use xlink:href="#DejaVuSans-65"/><use xlink:href="#DejaVuSans-72" x="61.523"/><use xlink:href="#DejaVuSans-72" x="100.887"/><use xlink:href="#DejaVuSans-6f" x="139.75"/><use xlink:href="#DejaVuSans-72" x="200.932"/><use xlink:href="#DejaVuSans-28" x="273.832"/><use xlink:href="#DejaVuSans-66" x="312.846"/><use xlink:href="#DejaVuSans-33" x="348.051"/><use xlink:href="#DejaVuSans-32" x="411.674"/><use xlink:href="#DejaVuSans-55" x="507.084"/><use xlink:href="#DejaVuSans-4c" x="580.277"/><use xlink:href="#DejaVuSans-50" x="635.99"/><use xlink:href="#DejaVuSans-29" x="696.293"/></g></g><path id="line2d_78" d="m92.29 66.96 47.744 57.619 47.744 75.639 47.743 87.946 47.743 69.565 47.743 11.631 47.744-1.955 47.743.33h47.743" clip-path="url(#p2f292483c7)" style="fill:none;stroke:#1f77b4;stroke-width:1.5;stroke-linecap:square"/><path id="line2d_79" d="m116.163 81.291 47.743 66.636 47.743 81.9 47.744 91.417 47.743 38.05h190.973" clip-path="url(#p2f292483c7)" style="fill:none;stroke:#ff7f0e;stroke-width:1.5;stroke-linecap:square"/><path id="patch_3" d="M72 384.48V51.84" style="fill:none;stroke:#000;stroke-width:.8;stroke-linejoin:miter;stroke-linecap:square"/><path id="patch_4" d="M518.4 384.48V51.84" style="fill:none;stroke:#000;stroke-width:.8;stroke-linejoin:miter;stroke-linecap:square"/><path id="patch_5" d="M72 384.48h446.4" style="fill:none;stroke:#000;stroke-width:.8;stroke-linejoin:miter;stroke-linecap:square"/><path id="patch_6" d="M72 51.84h446.4" style="fill:none;stroke:#000;stroke-width:.8;stroke-linejoin:miter;stroke-linecap:square"/><g id="legend_1"><path id="patch_7" d="M330.102 89.196H511.4q2 0 2-2V58.84q0-2-2-2H330.102q-2 0-2 2v28.356q0 2 2 2z" style="fill:#fff;opacity:.8;stroke:#ccc;stroke-linejoin:miter"/><path id="line2d_80" d="M332.102 64.938h20" style="fill:none;stroke:#1f77b4;stroke-width:1.5;stroke-linecap:square"/><g id="text_19" transform="matrix(.1 0 0 -.1 360.102 68.438)"><defs><path id="DejaVuSans-45" d="M628 4666h2950v-532H1259V2753h2222v-531H1259V531h2375V0H628z" transform="scale(.01563)"/><path id="DejaVuSans-76" d="M191 3500h609L1894 563l1094 2937h609L2284 0h-781z" transform="scale(.01563)"/><path id="DejaVuSans-6e" d="M3513 2113V0h-575v2094q0 497-194 743-194 247-581 247-466 0-735-297-269-296-269-809V0H581v3500h578v-544q207 316 486 472 280 156 646 156 603 0 912-373 310-373 310-1098" transform="scale(.01563)"/><path id="DejaVuSans-2d" d="M313 2009h1684v-512H313z" transform="scale(.01563)"/><path id="DejaVuSans-43" d="M4122 4306v-665q-319 297-680 443-361 147-767 147-800 0-1225-489t-425-1414q0-922 425-1411t1225-489q406 0 767 147t680 444V359q-331-225-702-338-370-112-782-112-1060 0-1670 648-609 649-609 1771 0 1125 609 1773 610 649 1670 649 418 0 788-111 371-111 696-333" transform="scale(.01563)"/><path id="DejaVuSans-68" d="M3513 2113V0h-575v2094q0 497-194 743-194 247-581 247-466 0-735-297-269-296-269-809V0H581v4863h578V2956q207 316 486 472 280 156 646 156 603 0 912-373 310-373 310-1098" transform="scale(.01563)"/><path id="DejaVuSans-62" d="M3116 1747q0 634-261 995t-717 361q-457 0-718-361t-261-995 261-995 718-361q456 0 717 361t261 995M1159 2969q182 312 458 463 277 152 661 152 638 0 1036-506 399-506 399-1331T3314 415Q2916-91 2278-91q-384 0-661 152-276 152-458 464V0H581v4863h578z" transform="scale(.01563)"/><path id="DejaVuSans-79" d="M2059-325q-243-625-475-815-231-191-618-191H506v481h338q237 0 368 113 132 112 291 531l103 262L191 3500h609L1894 763l1094 2737h609z" transform="scale(.01563)"/><path id="DejaVuSans-73" d="M2834 3397v-544q-243 125-506 187-262 63-544 63-428 0-642-131t-214-394q0-200 153-314t616-217l197-44q612-131 870-370t258-667q0-488-386-773Q2250-91 1575-91q-281 0-586 55T347 128v594q319-166 628-249 309-82 613-82 406 0 624 139 219 139 219 392 0 234-158 359-157 125-692 241l-200 47q-534 112-772 345-237 233-237 639 0 494 350 762 350 269 994 269 318 0 599-47 282-46 519-140" transform="scale(.01563)"/></defs><use xlink:href="#DejaVuSans-45"/><use xlink:href="#DejaVuSans-76" x="63.184"/><use xlink:href="#DejaVuSans-65" x="122.363"/><use xlink:href="#DejaVuSans-6e" x="183.887"/><use xlink:href="#DejaVuSans-2d" x="247.266"/><use xlink:href="#DejaVuSans-64" x="283.35"/><use xlink:href="#DejaVuSans-65" x="346.826"/><use xlink:href="#DejaVuSans-67" x="408.35"/><use xlink:href="#DejaVuSans-72" x="471.826"/><use xlink:href="#DejaVuSans-65" x="510.689"/><use xlink:href="#DejaVuSans-65" x="572.213"/><use xlink:href="#DejaVuSans-43" x="665.523"/><use xlink:href="#DejaVuSans-68" x="735.348"/><use xlink:href="#DejaVuSans-65" x="798.727"/><use xlink:href="#DejaVuSans-62" x="860.25"/><use xlink:href="#DejaVuSans-79" x="923.727"/><use xlink:href="#DejaVuSans-73" x="982.906"/><use xlink:href="#DejaVuSans-68" x="1035.006"/><use xlink:href="#DejaVuSans-65" x="1098.385"/><use xlink:href="#DejaVuSans-76" x="1159.908"/><use xlink:href="#DejaVuSans-65" x="1250.875"/><use xlink:href="#DejaVuSans-72" x="1312.398"/><use xlink:href="#DejaVuSans-72" x="1351.762"/><use xlink:href="#DejaVuSans-6f" x="1390.625"/><use xlink:href="#DejaVuSans-72" x="1451.807"/></g><path id="line2d_81" d="M332.102 79.617h20" style="fill:none;stroke:#ff7f0e;stroke-width:1.5;stroke-linecap:square"/><g id="text_20" transform="matrix(.1 0 0 -.1 360.102 83.117)"><defs><path id="DejaVuSans-4f" d="M2522 4238q-688 0-1093-513-404-512-404-1397 0-881 404-1394 405-512 1093-512 687 0 1089 512 402 513 402 1394 0 885-402 1397-402 513-1089 513m0 512q981 0 1568-658 588-658 588-1764 0-1103-588-1761Q3503-91 2522-91q-984 0-1574 656-589 657-589 1763t589 1764q590 658 1574 658" transform="scale(.01563)"/></defs><use xlink:href="#DejaVuSans-4f"/><use xlink:href="#DejaVuSans-64" x="78.711"/><use xlink:href="#DejaVuSans-64" x="142.188"/><use xlink:href="#DejaVuSans-2d" x="205.664"/><use xlink:href="#DejaVuSans-64" x="241.748"/><use xlink:href="#DejaVuSans-65" x="305.225"/><use xlink:href="#DejaVuSans-67" x="366.748"/><use xlink:href="#DejaVuSans-72" x="430.225"/><use xlink:href="#DejaVuSans-65" x="469.088"/><use xlink:href="#DejaVuSans-65" x="530.611"/><use xlink:href="#DejaVuSans-43" x="623.922"/><use xlink:href="#DejaVuSans-68" x="693.746"/><use xlink:href="#DejaVuSans-65" x="757.125"/><use xlink:href="#DejaVuSans-62" x="818.648"/><use xlink:href="#DejaVuSans-79" x="882.125"/><use xlink:href="#DejaVuSans-73" x="941.305"/><use xlink:href="#DejaVuSans-68" x="993.404"/><use xlink:href="#DejaVuSans-65" x="1056.783"/><use xlink:href="#DejaVuSans-76" x="1118.307"/><use xlink:href="#DejaVuSans-65" x="1209.273"/><use xlink:href="#DejaVuSans-72" x="1270.797"/><use xlink:href="#DejaVuSans-72" x="1310.16"/><use xlink:href="#DejaVuSans-6f" x="1349.023"/><use xlink:href="#DejaVuSans-72" x="1410.205"/></g></g></g></g><defs><clipPath id="p2f292483c7"><path d="M72 51.84h446.4v332.64H72z"/></clipPath></defs></svg>