<svg xmlns="http://www.w3.org/2000/svg" xmlns:xlink="http://www.w3.org/1999/xlink" width="768" height="576" viewBox="0 0 576 432"><defs><style>*{stroke-linejoin:round;stroke-linecap:butt}</style></defs><g id="figure_1"><path id="patch_1" d="M0 432h576V0H0z" style="fill:#fff"/><g id="axes_1"><path id="patch_2" d="M72 384.48h446.4V51.84H72z" style="fill:#fff"/><path id="patch_3" d="M92.29 384.48h9.899V67.68H92.29z" clip-path="url(#pa0a3138161)" style="fill:#1f77b4"/><path id="patch_4" d="M104.663 384.48h9.898V67.99h-9.898z" clip-path="url(#pa0a3138161)" style="fill:#1f77b4"/><path id="patch_5" d="M117.036 384.48h9.898V67.68h-9.898z" clip-path="url(#pa0a3138161)" style="fill:#1f77b4"/><path id="patch_6" d="M129.408 384.48h9.898V67.68h-9.898z" clip-path="url(#pa0a3138161)" style="fill:#1f77b4"/><path id="patch_7" d="M141.78 384.48h9.899V67.68h-9.898z" clip-path="url(#pa0a3138161)" style="fill:#1f77b4"/><path id="patch_8" d="M154.153 384.48h9.898V67.835h-9.898z" clip-path="url(#pa0a3138161)" style="fill:#1f77b4"/><path id="patch_9" d="M166.526 384.48h9.898v-158.4h-9.898z" clip-path="url(#pa0a3138161)" style="fill:#1f77b4"/><path id="patch_10" d="M178.898 384.48h9.898v-158.4h-9.898z" clip-path="url(#pa0a3138161)" style="fill:#1f77b4"/><path id="patch_11" d="M191.271 384.48h9.898v-158.4h-9.898z" clip-path="url(#pa0a3138161)" style="fill:#1f77b4"/><path id="patch_12" d="M203.643 384.48h9.898v-158.4h-9.898z" clip-path="url(#pa0a3138161)" style="fill:#1f77b4"/><path id="patch_13" d="M216.016 384.48h9.898v-158.4h-9.898z" clip-path="url(#pa0a3138161)" style="fill:#1f77b4"/><path id="patch_14" d="M228.388 384.48h9.898v-79.2h-9.898z" clip-path="url(#pa0a3138161)" style="fill:#1f77b4"/><path id="patch_15" d="M240.761 384.48h9.898v-79.2h-9.898z" clip-path="url(#pa0a3138161)" style="fill:#1f77b4"/><path id="patch_16" d="M253.133 384.48h9.898v-39.6h-9.898z" clip-path="url(#pa0a3138161)" style="fill:#1f77b4"/><path id="patch_17" d="M265.506 384.48h9.898v-39.6h-9.898z" clip-path="url(#pa0a3138161)" style="fill:#1f77b4"/><path id="patch_18" d="M277.878 384.48h9.898v-9.9h-9.898z" clip-path="url(#pa0a3138161)" style="fill:#1f77b4"/><path id="patch_19" d="M290.251 384.48h9.898v-39.6h-9.898z" clip-path="url(#pa0a3138161)" style="fill:#1f77b4"/><path id="patch_20" d="M302.624 384.48h9.898v-39.6h-9.898z" clip-path="url(#pa0a3138161)" style="fill:#1f77b4"/><path id="patch_21" d="M314.996 384.48h9.898v-79.2h-9.898z" clip-path="url(#pa0a3138161)" style="fill:#1f77b4"/><path id="patch_22" d="M327.369 384.48h9.898v-79.2h-9.898z" clip-path="url(#pa0a3138161)" style="fill:#1f77b4"/><path id="patch_23" d="M339.741 384.48h9.898v-158.4h-9.898z" clip-path="url(#pa0a3138161)" style="fill:#1f77b4"/><path id="patch_24" d="M352.114 384.48h9.898v-158.4h-9.898z" clip-path="url(#pa0a3138161)" style="fill:#1f77b4"/><path id="patch_25" d="M364.486 384.48h9.898v-158.4h-9.898z" clip-path="url(#pa0a3138161)" style="fill:#1f77b4"/><path id="patch_26" d="M376.859 384.48h9.898v-158.4h-9.898z" clip-path="url(#pa0a3138161)" style="fill:#1f77b4"/><path id="patch_27" d="M389.231 384.48h9.898v-158.4h-9.898z" clip-path="url(#pa0a3138161)" style="fill:#1f77b4"/><path id="patch_28" d="M401.604 384.48h9.898V67.835h-9.898z" clip-path="url(#pa0a3138161)" style="fill:#1f77b4"/><path id="patch_29" d="M413.976 384.48h9.898V67.68h-9.898z" clip-path="url(#pa0a3138161)" style="fill:#1f77b4"/><path id="patch_30" d="M426.349 384.48h9.898V67.68h-9.898z" clip-path="url(#pa0a3138161)" style="fill:#1f77b4"/><path id="patch_31" d="M438.721 384.48h9.898V67.68h-9.898z" clip-path="url(#pa0a3138161)" style="fill:#1f77b4"/><path id="patch_32" d="M451.094 384.48h9.898V67.99h-9.898z" clip-path="url(#pa0a3138161)" style="fill:#1f77b4"/><path id="patch_33" d="M463.466 384.48h9.898V67.68h-9.898z" clip-path="url(#pa0a3138161)" style="fill:#1f77b4"/><path id="patch_34" d="M475.839 384.48h9.898V67.68h-9.898z" clip-path="url(#pa0a3138161)" style="fill:#1f77b4"/><path id="patch_35" d="M488.211 384.48h9.898V67.99h-9.898z" clip-path="url(#pa0a3138161)" style="fill:#1f77b4"/><g id="matplotlib.axis_1"><g id="xtick_1"><g id="line2d_1"><defs><path id="m53e84293ad" d="M0 0v3.5" style="stroke:#000;stroke-width:.8"/></defs><use xlink:href="#m53e84293ad" x="109.612" y="384.48" style="stroke:#000;stroke-width:.8"/></g><g id="text_1" transform="matrix(.1 0 0 -.1 99.06 399.078)"><defs><path id="DejaVuSans-2212" d="M678 2272h4006v-531H678z" transform="scale(.01563)"/><path id="DejaVuSans-31" d="M794 531h1031v3560L703 3866v575l1116 225h631V531h1031V0H794z" transform="scale(.01563)"/><path id="DejaVuSans-35" d="M691 4666h2478v-532H1269V2991q137 47 274 70 138 23 276 23 781 0 1237-428 457-428 457-1159 0-753-469-1171Q2575-91 1722-91q-294 0-599 50Q819 9 494 109v635q281-153 581-228t634-75q541 0 856 284 316 284 316 772 0 487-316 771-315 285-856 285-253 0-505-56-251-56-513-175z" transform="scale(.01563)"/></defs><use xlink:href="#DejaVuSans-2212"/><use xlink:href="#DejaVuSans-31" x="83.789"/><use xlink:href="#DejaVuSans-35" x="147.412"/></g></g><g id="xtick_2"><use xlink:href="#m53e84293ad" id="line2d_2" x="171.475" y="384.48" style="stroke:#000;stroke-width:.8"/><g id="text_2" transform="matrix(.1 0 0 -.1 160.923 399.078)"><defs><path id="DejaVuSans-30" d="M2034 4250q-487 0-733-480-245-479-245-1442 0-959 245-1439 246-480 733-480 491 0 736 480 246 480 246 1439 0 963-246 1442-245 480-736 480m0 500q785 0 1199-621 414-620 414-1801 0-1178-414-1799Q2819-91 2034-91q-784 0-1198 620-414 621-414 1799 0 1181 414 1801 414 621 1198 621" transform="scale(.01563)"/></defs><use xlink:href="#DejaVuSans-2212"/><use xlink:href="#DejaVuSans-31" x="83.789"/><use xlink:href="#DejaVuSans-30" x="147.412"/></g></g><g id="xtick_3"><use xlink:href="#m53e84293ad" id="line2d_3" x="233.337" y="384.48" style="stroke:#000;stroke-width:.8"/><g id="text_3" transform="matrix(.1 0 0 -.1 225.966 399.078)"><use xlink:href="#DejaVuSans-2212"/><use xlink:href="#DejaVuSans-35" x="83.789"/></g></g><g id="xtick_4"><use xlink:href="#m53e84293ad" id="line2d_4" x="295.2" y="384.48" style="stroke:#000;stroke-width:.8"/><use xlink:href="#DejaVuSans-30" id="text_4" transform="matrix(.1 0 0 -.1 292.019 399.078)"/></g><g id="xtick_5"><use xlink:href="#m53e84293ad" id="line2d_5" x="357.063" y="384.48" style="stroke:#000;stroke-width:.8"/><use xlink:href="#DejaVuSans-35" id="text_5" transform="matrix(.1 0 0 -.1 353.881 399.078)"/></g><g id="xtick_6"><use xlink:href="#m53e84293ad" id="line2d_6" x="418.925" y="384.48" style="stroke:#000;stroke-width:.8"/><g id="text_6" transform="matrix(.1 0 0 -.1 412.563 399.078)"><use xlink:href="#DejaVuSans-31"/><use xlink:href="#DejaVuSans-30" x="63.623"/></g></g><g id="xtick_7"><use xlink:href="#m53e84293ad" id="line2d_7" x="480.788" y="384.48" style="stroke:#000;stroke-width:.8"/><g id="text_7" transform="matrix(.1 0 0 -.1 474.425 399.078)"><use xlink:href="#DejaVuSans-31"/><use xlink:href="#DejaVuSans-35" x="63.623"/></g></g><g id="text_8" transform="matrix(.1 0 0 -.1 218.4 412.758)"><defs><path id="DejaVuSans-69" d="M603 3500h575V0H603zm0 1363h575v-729H603z" transform="scale(.01563)"/><path id="DejaVuSans-6e" d="M3513 2113V0h-575v2094q0 497-194 743-194 247-581 247-466 0-735-297-269-296-269-809V0H581v3500h578v-544q207 316 486 472 280 156 646 156 603 0 912-373 310-373 310-1098" transform="scale(.01563)"/><path id="DejaVuSans-70" d="M1159 525v-1856H581v4831h578v-531q182 312 458 463 277 152 661 152 638 0 1036-506 399-506 399-1331T3314 415Q2916-91 2278-91q-384 0-661 152-276 152-458 464m1957 1222q0 634-261 995t-717 361q-457 0-718-361t-261-995 261-995 718-361q456 0 717 361t261 995" transform="scale(.01563)"/><path id="DejaVuSans-75" d="M544 1381v2119h575V1403q0-497 193-746 194-248 582-248 465 0 735 297 271 297 271 810v1984h575V0h-575v538q-209-319-486-474-276-155-642-155-603 0-916 375-312 375-312 1097m1447 2203" transform="scale(.01563)"/><path id="DejaVuSans-74" d="M1172 4494v-994h1184v-447H1172V1153q0-428 117-550t477-122h590V0h-590q-666 0-919 248-253 249-253 905v1900H172v447h422v994z" transform="scale(.01563)"/><path id="DejaVuSans-72" d="M2631 2963q-97 56-211 82-114 27-251 27-488 0-749-317t-261-911V0H581v3500h578v-544q182 319 472 473 291 155 707 155 59 0 131-8 72-7 159-23z" transform="scale(.01563)"/><path id="DejaVuSans-61" d="M2194 1759q-697 0-966-159t-269-544q0-306 202-486 202-179 548-179 479 0 768 339t289 901v128zm1147 238V0h-575v531q-197-318-491-470T1556-91q-537 0-855 302-317 302-317 808 0 590 395 890 396 300 1180 300h807v57q0 397-261 614t-733 217q-300 0-585-72-284-72-546-216v532q315 122 612 182 297 61 578 61 760 0 1135-394 375-393 375-1193" transform="scale(.01563)"/><path id="DejaVuSans-67" d="M2906 1791q0 625-258 968-257 344-723 344-462 0-720-344-258-343-258-968 0-622 258-966t720-344q466 0 723 344 258 344 258 966m575-1357q0-893-397-1329-396-436-1215-436-303 0-572 45t-522 139v559q253-137 500-202 247-66 503-66 566 0 847 295t281 892v285q-178-310-456-463T1784 0Q1141 0 747 490 353 981 353 1791q0 812 394 1302 394 491 1037 491 388 0 666-153t456-462v531h575z" transform="scale(.01563)"/><path id="DejaVuSans-65" d="M3597 1894v-281H953q38-594 358-905t892-311q331 0 642 81t618 244V178Q3153 47 2828-22t-659-69q-838 0-1327 487-489 488-489 1320 0 859 464 1363 464 505 1252 505 706 0 1117-455 411-454 411-1235m-575 169q-6 471-264 752-258 282-683 282-481 0-770-272t-333-766z" transform="scale(.01563)"/><path id="DejaVuSans-28" d="M1984 4856q-418-718-622-1422-203-703-203-1425 0-721 205-1429t620-1424h-500Q1016-109 783 600T550 2009q0 697 231 1403 232 707 703 1444z" transform="scale(.01563)"/><path id="DejaVuSans-Oblique-78" d="M3841 3500 2234 1784 3219 0h-660l-740 1388L531 0h-697l1722 1844-915 1656h659l672-1266 1172 1266z" transform="scale(.01563)"/><path id="DejaVuSans-2e" d="M684 794h660V0H684z" transform="scale(.01563)"/><path id="DejaVuSans-6f" d="M1959 3097q-462 0-731-361t-269-989 267-989q268-361 733-361 460 0 728 362 269 363 269 988 0 622-269 986-268 364-728 364m0 487q750 0 1178-488 429-487 429-1349 0-859-429-1349Q2709-91 1959-91q-753 0-1180 489-426 490-426 1349 0 862 426 1349 427 488 1180 488" transform="scale(.01563)"/><path id="DejaVuSans-2b" d="M2944 4013V2272h1740v-531H2944V0h-525v1741H678v531h1741v1741z" transform="scale(.01563)"/><path id="DejaVuSans-29" d="M513 4856h500q468-737 701-1444 233-706 233-1403 0-700-233-1409T1013-844H513q415 716 620 1424t205 1429q0 722-205 1425-205 704-620 1422" transform="scale(.01563)"/></defs><use xlink:href="#DejaVuSans-69" transform="translate(0 .016)"/><use xlink:href="#DejaVuSans-6e" transform="translate(27.783 .016)"/><use xlink:href="#DejaVuSans-70" transform="translate(91.162 .016)"/><use xlink:href="#DejaVuSans-75" transform="translate(154.639 .016)"/><use xlink:href="#DejaVuSans-74" transform="translate(218.018 .016)"/><use xlink:href="#DejaVuSans-72" transform="translate(289.014 .016)"/><use xlink:href="#DejaVuSans-61" transform="translate(330.127 .016)"/><use xlink:href="#DejaVuSans-6e" transform="translate(391.406 .016)"/><use xlink:href="#DejaVuSans-67" transform="translate(454.785 .016)"/><use xlink:href="#DejaVuSans-65" transform="translate(518.262 .016)"/><use xlink:href="#DejaVuSans-28" transform="translate(611.572 .016)"/><use xlink:href="#DejaVuSans-Oblique-78" transform="translate(650.586 .016)"/><use xlink:href="#DejaVuSans-2212" transform="translate(729.248 .016)"/><use xlink:href="#DejaVuSans-30" transform="translate(832.52 .016)"/><use xlink:href="#DejaVuSans-2e" transform="translate(896.143 .016)"/><use xlink:href="#DejaVuSans-35" transform="translate(927.93 .016)"/><use xlink:href="#DejaVuSans-74" transform="translate(1023.34 .016)"/><use xlink:href="#DejaVuSans-6f" transform="translate(1062.549 .016)"/><use xlink:href="#DejaVuSans-Oblique-78" transform="translate(1155.518 .016)"/><use xlink:href="#DejaVuSans-2b" transform="translate(1234.18 .016)"/><use xlink:href="#DejaVuSans-30" transform="translate(1337.451 .016)"/><use xlink:href="#DejaVuSans-2e" transform="translate(1401.074 .016)"/><use xlink:href="#DejaVuSans-35" transform="translate(1432.861 .016)"/><use xlink:href="#DejaVuSans-29" transform="translate(1496.484 .016)"/></g></g><g id="matplotlib.axis_2"><g id="ytick_1"><g id="line2d_8"><defs><path id="m569c2b13ab" d="M0 0h-3.5" style="stroke:#000;stroke-width:.8"/></defs><use xlink:href="#m569c2b13ab" x="72" y="384.48" style="stroke:#000;stroke-width:.8"/></g><use xlink:href="#DejaVuSans-30" id="text_9" transform="matrix(.1 0 0 -.1 58.638 388.28)"/></g><g id="ytick_2"><use xlink:href="#m569c2b13ab" id="line2d_9" x="72" y="334.98" style="stroke:#000;stroke-width:.8"/><use xlink:href="#DejaVuSans-35" id="text_10" transform="matrix(.1 0 0 -.1 58.638 338.78)"/></g><g id="ytick_3"><use xlink:href="#m569c2b13ab" id="line2d_10" x="72" y="285.48" style="stroke:#000;stroke-width:.8"/><g id="text_11" transform="matrix(.1 0 0 -.1 52.275 289.28)"><use xlink:href="#DejaVuSans-31"/><use xlink:href="#DejaVuSans-30" x="63.623"/></g></g><g id="ytick_4"><use xlink:href="#m569c2b13ab" id="line2d_11" x="72" y="235.98" style="stroke:#000;stroke-width:.8"/><g id="text_12" transform="matrix(.1 0 0 -.1 52.275 239.78)"><use xlink:href="#DejaVuSans-31"/><use xlink:href="#DejaVuSans-35" x="63.623"/></g></g><g id="ytick_5"><use xlink:href="#m569c2b13ab" id="line2d_12" x="72" y="186.48" style="stroke:#000;stroke-width:.8"/><g id="text_13" transform="matrix(.1 0 0 -.1 52.275 190.28)"><defs><path id="DejaVuSans-32" d="M1228 531h2203V0H469v531q359 372 979 998 621 627 780 809 303 340 423 576 121 236 121 464 0 372-261 606-261 235-680 235-297 0-627-103-329-103-704-313v638q381 153 712 231 332 78 607 78 725 0 1156-363 431-362 431-968 0-288-108-546-107-257-392-607-78-91-497-524-418-433-1181-1211" transform="scale(.01563)"/></defs><use xlink:href="#DejaVuSans-32"/><use xlink:href="#DejaVuSans-30" x="63.623"/></g></g><g id="ytick_6"><use xlink:href="#m569c2b13ab" id="line2d_13" x="72" y="136.98" style="stroke:#000;stroke-width:.8"/><g id="text_14" transform="matrix(.1 0 0 -.1 52.275 140.78)"><use xlink:href="#DejaVuSans-32"/><use xlink:href="#DejaVuSans-35" x="63.623"/></g></g><g id="ytick_7"><use xlink:href="#m569c2b13ab" id="line2d_14" x="72" y="87.48" style="stroke:#000;stroke-width:.8"/><g id="text_15" transform="matrix(.1 0 0 -.1 52.275 91.28)"><defs><path id="DejaVuSans-33" d="M2597 2516q453-97 707-404 255-306 255-756 0-690-475-1069Q2609-91 1734-91q-293 0-604 58T488 141v609q262-153 574-231 313-78 654-78 593 0 904 234t311 681q0 413-289 645-289 233-804 233h-544v519h569q465 0 712 186t247 536q0 359-255 551-254 193-729 193-260 0-557-57-297-56-653-174v562q360 100 674 150t592 50q719 0 1137-327 419-326 419-882 0-388-222-655t-631-370" transform="scale(.01563)"/></defs><use xlink:href="#DejaVuSans-33"/><use xlink:href="#DejaVuSans-30" x="63.623"/></g></g><g id="text_16" transform="matrix(0 -.1 -.1 0 46.195 281.706)"><defs><path id="DejaVuSans-6d" d="M3328 2828q216 388 516 572t706 184q547 0 844-383 297-382 297-1088V0h-578v2094q0 503-179 746-178 244-543 244-447 0-707-297-259-296-259-809V0h-578v2094q0 506-178 748t-550 242q-441 0-701-298-259-298-259-808V0H581v3500h578v-544q197 322 472 475t653 153q382 0 649-194 267-193 395-562" transform="scale(.01563)"/><path id="DejaVuSans-78" d="M3513 3500 2247 1797 3578 0h-678L1881 1375 863 0H184l1360 1831L300 3500h678l928-1247 928 1247z" transform="scale(.01563)"/><path id="DejaVuSans-66" d="M2375 4863v-479h-550q-309 0-430-125-120-125-120-450v-309h947v-447h-947V0H697v3053H147v447h550v244q0 584 272 851 272 268 862 268z" transform="scale(.01563)"/><path id="DejaVuSans-55" d="M556 4666h635V1831q0-750 271-1080 272-329 882-329 606 0 878 329 272 330 272 1080v2835h634V1753q0-912-452-1378Q3225-91 2344-91q-885 0-1337 466-451 466-451 1378z" transform="scale(.01563)"/><path id="DejaVuSans-4c" d="M628 4666h631V531h2272V0H628z" transform="scale(.01563)"/><path id="DejaVuSans-50" d="M1259 4147V2394h794q441 0 681 228 241 228 241 650 0 419-241 647-240 228-681 228zm-631 519h1425q785 0 1186-355 402-355 402-1039 0-691-402-1044-401-353-1186-353h-794V0H628z" transform="scale(.01563)"/></defs><use xlink:href="#DejaVuSans-6d"/><use xlink:href="#DejaVuSans-61" x="97.412"/><use xlink:href="#DejaVuSans-78" x="158.691"/><use xlink:href="#DejaVuSans-69" x="217.871"/><use xlink:href="#DejaVuSans-6d" x="245.654"/><use xlink:href="#DejaVuSans-75" x="343.066"/><use xlink:href="#DejaVuSans-6d" x="406.445"/><use xlink:href="#DejaVuSans-65" x="535.645"/><use xlink:href="#DejaVuSans-72" x="597.168"/><use xlink:href="#DejaVuSans-72" x="636.531"/><use xlink:href="#DejaVuSans-6f" x="675.395"/><use xlink:href="#DejaVuSans-72" x="736.576"/><use xlink:href="#DejaVuSans-28" x="809.477"/><use xlink:href="#DejaVuSans-66" x="848.49"/><use xlink:href="#DejaVuSans-33" x="883.695"/><use xlink:href="#DejaVuSans-32" x="947.318"/><use xlink:href="#DejaVuSans-55" x="1042.729"/><use xlink:href="#DejaVuSans-4c" x="1115.922"/><use xlink:href="#DejaVuSans-50" x="1171.635"/><use xlink:href="#DejaVuSans-29" x="1231.938"/></g></g><path id="patch_36" d="M72 384.48V51.84" style="fill:none;stroke:#000;stroke-width:.8;stroke-linejoin:miter;stroke-linecap:square"/><path id="patch_37" d="M518.4 384.48V51.84" style="fill:none;stroke:#000;stroke-width:.8;stroke-linejoin:miter;stroke-linecap:square"/><path id="patch_38" d="M72 384.48h446.4" style="fill:none;stroke:#000;stroke-width:.8;stroke-linejoin:miter;stroke-linecap:square"/><path id="patch_39" d="M72 51.84h446.4" style="fill:none;stroke:#000;stroke-width:.8;stroke-linejoin:miter;stroke-linecap:square"/></g></g><defs><clipPath id="pa0a3138161"><path d="M72 51.84h446.4v332.64H72z"/></clipPath></defs></svg>