<svg xmlns="http://www.w3.org/2000/svg" xmlns:xlink="http://www.w3.org/1999/xlink" width="365.52" height="65.849" viewBox="212.024 118.901 274.14 49.387"><defs><path id="v" d="M7.878-2.75c.204 0 .419 0 .419-.239s-.215-.239-.419-.239H1.411c-.204 0-.419 0-.419.24s.215.238.419.238z"/><path id="p" d="M4.937 13.737c0-.048-.023-.072-.047-.108-.55-.586-1.363-1.554-1.865-3.503-.275-1.088-.383-2.32-.383-3.431 0-3.144.753-5.344 2.188-6.898.107-.108.107-.132.107-.156 0-.12-.095-.12-.143-.12-.18 0-.825.718-.98.897-1.22 1.447-1.997 3.599-1.997 6.265 0 1.698.3 4.1 1.865 6.121.12.143.897 1.052 1.112 1.052.048 0 .143 0 .143-.12"/><path id="s" d="M3.646 6.695c0-1.698-.299-4.1-1.865-6.121C1.661.43.885-.478.67-.478c-.06 0-.143.024-.143.12 0 .047.024.083.072.119.574.622 1.35 1.59 1.84 3.49.276 1.089.383 2.32.383 3.432 0 1.207-.107 2.427-.418 3.598-.454 1.674-1.16 2.63-1.77 3.3-.107.108-.107.132-.107.155 0 .096.084.12.143.12.18 0 .837-.73.98-.897 1.22-1.446 1.997-3.598 1.997-6.264"/><path id="j" d="m15.135 16.737 1.447-3.825h-.3c-.465 1.243-1.733 2.056-3.107 2.414-.252.06-1.423.371-3.718.371h-7.21L8.334 8.56c.083-.096.107-.132.107-.191 0-.024 0-.06-.083-.18L2.786.574h6.551c1.602 0 2.69.167 2.797.191.646.096 1.686.299 2.63.897.3.191 1.113.729 1.519 1.697h.299L15.135 0H1.005C.728 0 .716.012.68.084.67.12.67.347.67.478l6.325 8.656L.8 16.39c-.12.144-.12.204-.12.216 0 .131.108.131.323.131z"/><path id="q" d="M2.264-2.91h.916c-.167.726-.31 1.316-.31 1.906 0 .056 0 .398.087.685.104.335.183.399.327.399.175 0 .358-.152.358-.343 0-.056-.008-.072-.04-.143-.167-.367-.286-.75-.286-1.403 0-.184 0-.518.12-1.1h.963c.128 0 .216 0 .295-.064a.35.35 0 0 0 .12-.239c0-.223-.2-.223-.335-.223H1.602c-.167 0-.47 0-.86.382-.288.287-.51.654-.51.71 0 .072.055.095.119.095.08 0 .095-.023.143-.087.39-.574.86-.574 1.044-.574h.463c-.232.845-.654 1.81-.949 2.39-.056.12-.135.28-.135.352 0 .167.135.247.263.247.302 0 .382-.303.55-.957z"/><path id="k" d="M1.594-1.307c.024-.12.104-.423.128-.542.111-.43.111-.438.294-.701.263-.391.638-.742 1.172-.742.287 0 .454.168.454.542 0 .439-.334 1.347-.486 1.738-.103.263-.103.31-.103.414 0 .455.374.678.717.678.78 0 1.108-1.116 1.108-1.22 0-.08-.064-.103-.12-.103-.095 0-.111.055-.135.135-.192.654-.526.965-.83.965-.127 0-.19-.08-.19-.263s.063-.36.143-.558c.12-.303.47-1.22.47-1.666 0-.598-.414-.885-.988-.885-.646 0-1.06.39-1.291.694-.056-.439-.407-.694-.813-.694-.287 0-.486.183-.614.43a3.2 3.2 0 0 0-.27.79c0 .071.055.103.119.103.103 0 .111-.032.167-.239.096-.39.24-.86.574-.86.207 0 .255.199.255.374 0 .143-.04.295-.104.558a43 43 0 0 1-.167.645L.789-.518c-.032.12-.08.319-.08.35C.71.017.861.08.964.08a.39.39 0 0 0 .32-.192c.023-.047.087-.318.127-.486z"/><path id="i" d="M4.304-2.184c-.47-.566-.534-.63-.813-.837-.367-.279-.853-.494-1.379-.494-.972 0-1.642.853-1.642 1.801C.47-.78 1.132.08 2.08.08c.654 0 1.419-.343 2.08-1.331.47.566.534.63.813.837.367.279.853.494 1.38.494.972 0 1.641-.853 1.641-1.802 0-.932-.662-1.793-1.61-1.793-.653 0-1.419.343-2.08 1.331m.239.295c.303-.502.956-1.323 1.897-1.323.853 0 1.33.773 1.33 1.49 0 .774-.589 1.371-1.29 1.371S5.308-.933 4.543-1.889m-.622.343c-.303.502-.956 1.323-1.897 1.323-.852 0-1.33-.773-1.33-1.49 0-.774.59-1.371 1.29-1.371s1.172.581 1.937 1.538"/><path id="m" d="M3.897-2.542c0-.853-.087-1.371-.35-1.881-.351-.702-.997-.877-1.435-.877-1.004 0-1.37.75-1.482.972-.287.582-.303 1.371-.303 1.786 0 .526.024 1.33.406 1.968.367.59.957.741 1.38.741.382 0 1.067-.12 1.466-.908.294-.574.318-1.283.318-1.801M2.112-.056c-.27 0-.82-.127-.988-.964-.088-.454-.088-1.204-.088-1.618 0-.55 0-1.108.088-1.546.167-.813.789-.893.988-.893.271 0 .821.136.98.86.096.44.096 1.037.096 1.579 0 .47 0 1.187-.096 1.634-.167.837-.717.948-.98.948"/><path id="r" d="M2.248-1.626c.127-.12.462-.382.59-.494.494-.454.964-.893.964-1.618 0-.948-.797-1.562-1.794-1.562-.956 0-1.586.725-1.586 1.435 0 .39.311.446.423.446a.41.41 0 0 0 .414-.423c0-.414-.398-.414-.494-.414a1.23 1.23 0 0 1 1.156-.781c.741 0 1.124.63 1.124 1.299 0 .829-.582 1.435-1.523 2.399L.518-.303C.422-.215.422-.199.422 0h3.149l.23-1.427h-.246c-.024.16-.088.558-.184.71-.047.063-.653.063-.78.063H1.17z"/><path id="l" d="M5.826-2.654c.12 0 .28 0 .28-.183s-.192-.184-.312-.184H.781c-.12 0-.31 0-.31.184s.159.183.278.183zm-.032 1.69c.12 0 .311 0 .311-.184s-.16-.183-.279-.183H.75c-.12 0-.279 0-.279.183s.192.184.311.184z"/><path id="e" d="M3.096-4.507h1.351c-.322 1.339-.526 2.212-.526 3.168 0 .167 0 1.459.49 1.459.252 0 .467-.228.467-.43 0-.06 0-.085-.084-.264-.323-.825-.323-1.853-.323-1.937 0-.071 0-.92.251-1.996h1.34c.155 0 .55 0 .55-.383 0-.263-.228-.263-.443-.263H2.236c-.275 0-.682 0-1.232.586-.31.347-.693.98-.693 1.052s.06.096.131.096c.084 0 .096-.036.156-.108.621-.98 1.243-.98 1.542-.98h.681C2.558-3.61 2.26-2.57 1.28-.478c-.095.191-.095.215-.095.287 0 .25.215.31.322.31.347 0 .443-.31.586-.812.191-.61.191-.634.311-1.112z"/><path id="x" d="M2.2-.574a.584.584 0 0 0-.574-.586.584.584 0 0 0-.586.574c0 .347.287.586.574.586A.584.584 0 0 0 2.2-.574"/><path id="t" d="M2.463-3.503c.024-.072.323-.67.765-1.052.31-.287.717-.478 1.183-.478.479 0 .646.359.646.837 0 .681-.49 2.044-.73 2.69-.107.287-.167.442-.167.657 0 .538.371.969.945.969 1.112 0 1.53-1.758 1.53-1.83 0-.06-.048-.107-.12-.107-.107 0-.119.036-.179.239-.275.98-.729 1.458-1.195 1.458-.12 0-.311-.012-.311-.394 0-.299.131-.658.203-.825.24-.658.741-1.996.741-2.678 0-.717-.418-1.255-1.327-1.255-1.064 0-1.626.753-1.84 1.052-.037-.682-.527-1.052-1.053-1.052-.382 0-.645.227-.849.633C.49-4.209.323-3.49.323-3.443s.048.108.131.108c.096 0 .108-.012.18-.287.19-.73.406-1.411.884-1.411.275 0 .37.191.37.55 0 .263-.119.73-.202 1.1l-.335 1.29c-.048.228-.18.766-.24.981-.083.311-.214.873-.214.933 0 .167.131.299.31.299.144 0 .311-.072.407-.252.024-.06.131-.478.191-.717l.263-1.076z"/><path id="f" d="M5.667-4.878c-.383.072-.526.359-.526.586 0 .287.227.383.394.383.359 0 .61-.311.61-.634 0-.502-.574-.73-1.076-.73-.73 0-1.136.718-1.243.945-.275-.896-1.017-.944-1.232-.944C1.374-5.272.73-3.706.73-3.443c0 .048.048.108.132.108.095 0 .12-.072.143-.12.407-1.327 1.208-1.578 1.554-1.578.538 0 .646.502.646.789 0 .263-.072.538-.215 1.112l-.407 1.638C2.403-.777 2.056-.12 1.422-.12c-.06 0-.358 0-.609-.155a.62.62 0 0 0 .526-.586c0-.239-.18-.382-.406-.382a.623.623 0 0 0-.598.633c0 .502.562.73 1.076.73.574 0 .98-.455 1.231-.945.191.705.79.945 1.231.945 1.22 0 1.865-1.567 1.865-1.83 0-.06-.047-.107-.12-.107-.107 0-.119.06-.154.155C5.14-.61 4.447-.12 3.909-.12c-.418 0-.645-.31-.645-.8 0-.264.048-.455.239-1.244L3.92-3.79c.18-.717.586-1.243 1.136-1.243.024 0 .359 0 .61.155"/><path id="u" d="M2.2-7.986c0-.383-.323-.562-.574-.562s-.622.167-.586.67l.43 5.475c.012.203.036.251.144.251.12 0 .143-.036.155-.251zm0 7.4a.58.58 0 1 0-1.161.01.58.58 0 0 0 1.16-.01"/><path id="d" d="M3.885 2.905c0-.036 0-.06-.203-.263-1.195-1.207-1.865-3.18-1.865-5.619 0-2.32.562-4.316 1.949-5.726.12-.108.12-.132.12-.168 0-.071-.06-.095-.108-.095-.156 0-1.136.86-1.722 2.032-.61 1.207-.884 2.487-.884 3.957 0 1.064.167 2.487.789 3.766.705 1.435 1.685 2.212 1.817 2.212.048 0 .107-.024.107-.096"/><path id="g" d="M3.371-2.977c0-.908-.12-2.39-.789-3.778C1.877-8.189.897-8.966.765-8.966c-.048 0-.107.024-.107.095 0 .036 0 .06.203.263 1.195 1.208 1.865 3.18 1.865 5.62 0 2.319-.562 4.315-1.949 5.726-.12.107-.12.131-.12.167 0 .072.06.096.108.096C.921 3 1.901 2.14 2.487.968c.61-1.22.884-2.51.884-3.945"/><path id="w" d="M5.356-3.826c0-.992-.06-1.96-.49-2.869-.49-.992-1.351-1.255-1.937-1.255-.693 0-1.542.347-1.985 1.339C.61-5.858.49-5.117.49-3.826c0 1.16.084 2.033.514 2.882A2.13 2.13 0 0 0 2.917.25c1.04 0 1.638-.622 1.985-1.315.43-.897.454-2.068.454-2.762M2.917.012c-.382 0-1.16-.215-1.387-1.518C1.4-2.224 1.4-3.132 1.4-3.97c0-.98 0-1.865.191-2.57.203-.801.813-1.172 1.327-1.172.454 0 1.148.275 1.375 1.303.155.681.155 1.626.155 2.439 0 .8 0 1.71-.131 2.439C4.089-.215 3.336.012 2.917.012"/><path id="y" d="M1.53-6.85c.514.167.933.179 1.064.179 1.351 0 2.212-.992 2.212-1.16 0-.047-.024-.107-.096-.107-.024 0-.047 0-.155.048A3.9 3.9 0 0 1 3-7.568c-.79 0-1.351-.239-1.578-.334-.084-.036-.108-.036-.12-.036-.096 0-.096.071-.096.263v3.55c0 .216 0 .287.144.287.06 0 .072-.012.191-.155.335-.49.897-.777 1.495-.777.633 0 .944.586 1.04.789.203.466.215 1.052.215 1.506s0 1.136-.335 1.674c-.263.43-.73.73-1.255.73A1.85 1.85 0 0 1 .92-1.483c.06.023.131.035.19.035.204 0 .527-.12.527-.526 0-.334-.227-.526-.526-.526-.215 0-.526.108-.526.574 0 1.016.813 2.176 2.14 2.176 1.35 0 2.534-1.136 2.534-2.654 0-1.423-.956-2.606-2.211-2.606-.682 0-1.208.299-1.519.633z"/><path id="h" d="M8.07-3.873c.167 0 .382 0 .382-.216 0-.227-.203-.227-.382-.227H1.028c-.167 0-.382 0-.382.215 0 .228.203.228.382.228zm0 2.223c.167 0 .382 0 .382-.215 0-.227-.203-.227-.382-.227H1.028c-.167 0-.382 0-.382.215 0 .227.203.227.382.227z"/><path id="n" d="M4.328-4.423c-.144 0-.586 0-.586.49 0 .287.203.49.49.49.275 0 .502-.167.502-.514 0-.801-.837-1.375-1.805-1.375-1.399 0-2.51 1.243-2.51 2.75C.418-1.052 1.565.12 2.916.12c1.578 0 1.937-1.435 1.937-1.543s-.084-.107-.12-.107c-.107 0-.12.036-.155.18-.263.848-.909 1.207-1.554 1.207-.73 0-1.698-.634-1.698-2.451 0-1.985 1.016-2.475 1.614-2.475.454 0 1.112.18 1.387.646"/><path id="b" d="M2.08-7.364a.587.587 0 0 0-.586-.586.574.574 0 0 0-.573.574c0 .358.286.585.573.585.371 0 .586-.31.586-.573M.43-5.141v.347c.766 0 .873.072.873.658v3.251c0 .538-.131.538-.908.538V0c.334-.024.908-.024 1.255-.024.131 0 .825 0 1.231.024v-.347c-.777 0-.825-.06-.825-.526v-4.4z"/><path id="c" d="M5.32-2.905c0-1.112 0-1.447-.275-1.83-.347-.465-.909-.537-1.315-.537-1.16 0-1.614.992-1.71 1.231h-.012v-1.231l-1.625.131v.347c.813 0 .908.084.908.67v3.24c0 .537-.131.537-.908.537V0c.31-.024.956-.024 1.29-.024.347 0 .993 0 1.304.024v-.347c-.765 0-.909 0-.909-.538v-2.223c0-1.256.825-1.925 1.566-1.925s.909.61.909 1.339v2.81c0 .537-.132.537-.909.537V0c.311-.024.957-.024 1.292-.024.346 0 .992 0 1.303.024v-.347c-.598 0-.897 0-.909-.358z"/><path id="o" d="M5.487-2.558c0-1.543-1.171-2.774-2.558-2.774-1.435 0-2.57 1.267-2.57 2.774C.359-1.028 1.554.12 2.917.12c1.41 0 2.57-1.172 2.57-2.678M2.93-.143c-.442 0-.98-.192-1.327-.778-.323-.538-.335-1.243-.335-1.745 0-.454 0-1.184.37-1.722.336-.514.862-.705 1.28-.705.466 0 .968.215 1.291.682.37.55.37 1.303.37 1.745 0 .418 0 1.16-.31 1.722a1.56 1.56 0 0 1-1.339.8"/><path id="a" d="M3.921-5.057c0-.215 0-.275-.12-.275-.095 0-.322.263-.406.37-.37-.298-.741-.37-1.124-.37-1.446 0-1.876.789-1.876 1.447 0 .131 0 .55.454.968.382.335.789.418 1.339.526.657.131.813.167 1.112.406.215.18.37.443.37.778 0 .514-.299 1.087-1.35 1.087C1.53-.12.955-.574.692-1.77c-.047-.215-.047-.227-.06-.238-.023-.048-.071-.048-.107-.048-.131 0-.131.06-.131.275v1.626c0 .215 0 .275.12.275.059 0 .07-.012.274-.263.06-.084.06-.108.24-.3C1.481.12 2.127.12 2.33.12c1.256 0 1.877-.694 1.877-1.638 0-.646-.394-1.028-.502-1.136-.43-.37-.753-.442-1.542-.586-.359-.072-1.231-.239-1.231-.956 0-.37.25-.92 1.327-.92 1.303 0 1.374 1.111 1.398 1.482.012.095.096.095.132.095.131 0 .131-.06.131-.275z"/></defs><g transform="scale(1.5)"><use xlink:href="#a" x="141.35" y="98.276"/><use xlink:href="#b" x="145.95" y="98.276"/><use xlink:href="#c" x="149.189" y="98.276"/><use xlink:href="#d" x="157.714" y="98.276"/><use xlink:href="#e" x="162.267" y="98.276"/><use xlink:href="#f" x="169.311" y="98.276"/><use xlink:href="#g" x="175.938" y="98.276"/><use xlink:href="#h" x="183.861" y="98.276"/><use xlink:href="#i" x="200.653" y="83.332"/><use xlink:href="#j" x="196.253" y="86.918"/><use xlink:href="#k" x="196.908" y="112.024"/><use xlink:href="#l" x="202.027" y="112.024"/><use xlink:href="#m" x="208.588" y="112.024"/><use xlink:href="#n" x="216.709" y="89.429"/><use xlink:href="#o" x="221.893" y="89.429"/><use xlink:href="#a" x="227.724" y="89.429"/><use xlink:href="#p" x="234.375" y="79.745"/><use xlink:href="#q" x="241.05" y="84.722"/><use xlink:href="#k" x="246.18" y="84.722"/><path d="M241.05 86.201h10.287v.478H241.05z"/><use xlink:href="#r" x="244.076" y="93.552"/><use xlink:href="#s" x="252.532" y="79.745"/><use xlink:href="#e" x="258.012" y="89.429"/><use xlink:href="#k" x="265.056" y="85.091"/><path d="M216.709 95.048h54.008v.478h-54.008z"/><use xlink:href="#t" x="238.594" y="106.477"/><use xlink:href="#u" x="245.555" y="106.477"/><use xlink:href="#d" x="273.905" y="98.276"/><use xlink:href="#f" x="278.458" y="98.276"/><use xlink:href="#v" x="287.742" y="98.276"/><use xlink:href="#w" x="299.662" y="98.276"/><use xlink:href="#x" x="305.493" y="98.276"/><use xlink:href="#y" x="308.733" y="98.276"/><use xlink:href="#g" x="314.564" y="98.276"/><use xlink:href="#k" x="319.232" y="92.464"/></g></svg>