<svg xmlns="http://www.w3.org/2000/svg" xmlns:xlink="http://www.w3.org/1999/xlink" width="1271.104" height="579.035" viewBox="0 0 953.328 434.276"><defs><style>*{stroke-linejoin:round;stroke-linecap:butt}</style></defs><g id="figure_1"><path id="patch_1" d="M0 434.276h953.328V0H0z" style="fill:#fff"/><g id="axes_1"><path id="patch_2" d="M53.328 410.398h405.818V22.318H53.328z" style="fill:#fff"/><path id="patch_3" d="M71.774 410.398h36.893V226.666H71.774z" clip-path="url(#p3ad2451a44)" style="fill:#1f77b4"/><path id="patch_4" d="M127.113 410.398h36.893v-369.6h-36.893z" clip-path="url(#p3ad2451a44)" style="fill:#1f77b4"/><path id="patch_5" d="M182.452 410.398h36.893V207.944h-36.893z" clip-path="url(#p3ad2451a44)" style="fill:#1f77b4"/><path id="patch_6" d="M237.79 410.398h36.893V117.326h-36.892z" clip-path="url(#p3ad2451a44)" style="fill:#1f77b4"/><path id="patch_7" d="M293.13 410.398h36.892v-268.22H293.13z" clip-path="url(#p3ad2451a44)" style="fill:#1f77b4"/><path id="patch_8" d="M348.469 410.398h36.892v-96.89H348.47z" clip-path="url(#p3ad2451a44)" style="fill:#1f77b4"/><path id="patch_9" d="M403.807 410.398H440.7V270.975h-36.893z" clip-path="url(#p3ad2451a44)" style="fill:#1f77b4"/><g id="matplotlib.axis_1"><g id="xtick_1"><g id="line2d_1"><defs><path id="m1958d7fc6f" d="M0 0v3.5" style="stroke:#000;stroke-width:.8"/></defs><use xlink:href="#m1958d7fc6f" x="90.221" y="410.398" style="stroke:#000;stroke-width:.8"/></g><g id="text_1" transform="matrix(.1 0 0 -.1 70.182 424.997)"><defs><path id="DejaVuSans-46" d="M628 4666h2681v-532H1259V2759h1850v-531H1259V0H628z" transform="scale(.01563)"/><path id="DejaVuSans-6d" d="M3328 2828q216 388 516 572t706 184q547 0 844-383 297-382 297-1088V0h-578v2094q0 503-179 746-178 244-543 244-447 0-707-297-259-296-259-809V0h-578v2094q0 506-178 748t-550 242q-441 0-701-298-259-298-259-808V0H581v3500h578v-544q197 322 472 475t653 153q382 0 649-194 267-193 395-562" transform="scale(.01563)"/><path id="DejaVuSans-63" d="M3122 3366v-538q-244 135-489 202t-495 67q-560 0-870-355-309-354-309-995t309-996q310-354 870-354 250 0 495 67t489 202V134Q2881 22 2623-34q-257-57-548-57-791 0-1257 497-465 497-465 1341 0 856 470 1346 471 491 1290 491 265 0 518-55 253-54 491-163" transform="scale(.01563)"/><path id="DejaVuSans-32" d="M1228 531h2203V0H469v531q359 372 979 998 621 627 780 809 303 340 423 576 121 236 121 464 0 372-261 606-261 235-680 235-297 0-627-103-329-103-704-313v638q381 153 712 231 332 78 607 78 725 0 1156-363 431-362 431-968 0-288-108-546-107-257-392-607-78-91-497-524-418-433-1181-1211" transform="scale(.01563)"/><path id="DejaVuSans-35" d="M691 4666h2478v-532H1269V2991q137 47 274 70 138 23 276 23 781 0 1237-428 457-428 457-1159 0-753-469-1171Q2575-91 1722-91q-294 0-599 50Q819 9 494 109v635q281-153 581-228t634-75q541 0 856 284 316 284 316 772 0 487-316 771-315 285-856 285-253 0-505-56-251-56-513-175z" transform="scale(.01563)"/><path id="DejaVuSans-36" d="M2113 2584q-425 0-674-291-248-290-248-796 0-503 248-796 249-292 674-292t673 292q248 293 248 796 0 506-248 796-248 291-673 291m1253 1979v-575q-238 112-480 171-242 60-480 60-625 0-955-422-329-422-376-1275 184 272 462 417 279 145 613 145 703 0 1111-427 408-426 408-1160 0-719-425-1154Q2819-91 2113-91q-810 0-1238 620-428 621-428 1799 0 1106 525 1764t1409 658q238 0 480-47t505-140" transform="scale(.01563)"/></defs><use xlink:href="#DejaVuSans-46"/><use xlink:href="#DejaVuSans-6d" transform="translate(57.52)"/><use xlink:href="#DejaVuSans-63" transform="translate(154.932)"/><use xlink:href="#DejaVuSans-32" transform="translate(209.912)"/><use xlink:href="#DejaVuSans-35" transform="translate(273.535)"/><use xlink:href="#DejaVuSans-36" transform="translate(337.158)"/></g></g><g id="xtick_2"><use xlink:href="#m1958d7fc6f" id="line2d_2" x="145.56" y="410.398" style="stroke:#000;stroke-width:.8"/><g id="text_2" transform="matrix(.1 0 0 -.1 121.858 424.997)"><defs><path id="DejaVuSans-50" d="M1259 4147V2394h794q441 0 681 228 241 228 241 650 0 419-241 647-240 228-681 228zm-631 519h1425q785 0 1186-355 402-355 402-1039 0-691-402-1044-401-353-1186-353h-794V0H628z" transform="scale(.01563)"/><path id="DejaVuSans-67" d="M2906 1791q0 625-258 968-257 344-723 344-462 0-720-344-258-343-258-968 0-622 258-966t720-344q466 0 723 344 258 344 258 966m575-1357q0-893-397-1329-396-436-1215-436-303 0-572 45t-522 139v559q253-137 500-202 247-66 503-66 566 0 847 295t281 892v285q-178-310-456-463T1784 0Q1141 0 747 490 353 981 353 1791q0 812 394 1302 394 491 1037 491 388 0 666-153t456-462v531h575z" transform="scale(.01563)"/><path id="DejaVuSans-44" d="M1259 4147V519h763q966 0 1414 437 448 438 448 1382 0 937-448 1373t-1414 436zm-631 519h1297q1356 0 1990-564 635-564 635-1764 0-1207-638-1773Q3275 0 1925 0H628z" transform="scale(.01563)"/><path id="DejaVuSans-58" d="M403 4666h678l1160-1735 1165 1735h678L2584 2425 4184 0h-678L2194 1984 872 0H191l1665 2491z" transform="scale(.01563)"/><path id="DejaVuSans-53" d="M3425 4513v-616q-359 172-678 256-319 85-616 85-515 0-795-200t-280-569q0-310 186-468 186-157 705-254l381-78q706-135 1042-474t336-907q0-679-455-1029Q2797-91 1919-91q-331 0-705 75-373 75-773 222v650q384-215 753-325 369-109 725-109 540 0 834 212 294 213 294 607 0 343-211 537t-692 291l-385 75q-706 140-1022 440-315 300-315 835 0 619 436 975t1201 356q329 0 669-60 341-59 697-177" transform="scale(.01563)"/><path id="DejaVuSans-4d" d="M628 4666h941l1190-3175 1197 3175h941V0h-616v4097L3078 897h-634L1241 4097V0H628z" transform="scale(.01563)"/></defs><use xlink:href="#DejaVuSans-50"/><use xlink:href="#DejaVuSans-63" transform="translate(60.303)"/><use xlink:href="#DejaVuSans-67" transform="translate(115.283)"/><use xlink:href="#DejaVuSans-44" transform="translate(178.76)"/><use xlink:href="#DejaVuSans-58" transform="translate(255.762)"/><use xlink:href="#DejaVuSans-53" transform="translate(324.268)"/><use xlink:href="#DejaVuSans-4d" transform="translate(387.744)"/></g></g><g id="xtick_3"><use xlink:href="#m1958d7fc6f" id="line2d_3" x="200.898" y="410.398" style="stroke:#000;stroke-width:.8"/><g id="text_3" transform="matrix(.1 0 0 -.1 175.59 424.997)"><defs><path id="DejaVuSans-4c" d="M628 4666h631V531h2272V0H628z" transform="scale(.01563)"/><path id="DejaVuSans-65" d="M3597 1894v-281H953q38-594 358-905t892-311q331 0 642 81t618 244V178Q3153 47 2828-22t-659-69q-838 0-1327 487-489 488-489 1320 0 859 464 1363 464 505 1252 505 706 0 1117-455 411-454 411-1235m-575 169q-6 471-264 752-258 282-683 282-481 0-770-272t-333-766z" transform="scale(.01563)"/><path id="DejaVuSans-68" d="M3513 2113V0h-575v2094q0 497-194 743-194 247-581 247-466 0-735-297-269-296-269-809V0H581v4863h578V2956q207 316 486 472 280 156 646 156 603 0 912-373 310-373 310-1098" transform="scale(.01563)"/><path id="DejaVuSans-72" d="M2631 2963q-97 56-211 82-114 27-251 27-488 0-749-317t-261-911V0H581v3500h578v-544q182 319 472 473 291 155 707 155 59 0 131-8 72-7 159-23z" transform="scale(.01563)"/><path id="DejaVuSans-34" d="M2419 4116 825 1625h1594zm-166 550h794V1625h666v-525h-666V0h-628v1100H313v609z" transform="scale(.01563)"/></defs><use xlink:href="#DejaVuSans-4c"/><use xlink:href="#DejaVuSans-65" transform="translate(53.963)"/><use xlink:href="#DejaVuSans-68" transform="translate(115.486)"/><use xlink:href="#DejaVuSans-6d" transform="translate(178.865)"/><use xlink:href="#DejaVuSans-65" transform="translate(276.277)"/><use xlink:href="#DejaVuSans-72" transform="translate(337.8)"/><use xlink:href="#DejaVuSans-36" transform="translate(378.914)"/><use xlink:href="#DejaVuSans-34" transform="translate(442.537)"/></g></g><g id="xtick_4"><use xlink:href="#m1958d7fc6f" id="line2d_4" x="256.237" y="410.398" style="stroke:#000;stroke-width:.8"/><g id="text_4" transform="matrix(.1 0 0 -.1 228.044 424.997)"><defs><path id="DejaVuSans-6f" d="M1959 3097q-462 0-731-361t-269-989 267-989q268-361 733-361 460 0 728 362 269 363 269 988 0 622-269 986-268 364-728 364m0 487q750 0 1178-488 429-487 429-1349 0-859-429-1349Q2709-91 1959-91q-753 0-1180 489-426 490-426 1349 0 862 426 1349 427 488 1180 488" transform="scale(.01563)"/><path id="DejaVuSans-73" d="M2834 3397v-544q-243 125-506 187-262 63-544 63-428 0-642-131t-214-394q0-200 153-314t616-217l197-44q612-131 870-370t258-667q0-488-386-773Q2250-91 1575-91q-281 0-586 55T347 128v594q319-166 628-249 309-82 613-82 406 0 624 139 219 139 219 392 0 234-158 359-157 125-692 241l-200 47q-534 112-772 345-237 233-237 639 0 494 350 762 350 269 994 269 318 0 599-47 282-46 519-140" transform="scale(.01563)"/><path id="DejaVuSans-69" d="M603 3500h575V0H603zm0 1363h575v-729H603z" transform="scale(.01563)"/></defs><use xlink:href="#DejaVuSans-58"/><use xlink:href="#DejaVuSans-6f" transform="translate(68.506)"/><use xlink:href="#DejaVuSans-73" transform="translate(129.688)"/><use xlink:href="#DejaVuSans-68" transform="translate(181.787)"/><use xlink:href="#DejaVuSans-69" transform="translate(245.166)"/><use xlink:href="#DejaVuSans-72" transform="translate(272.95)"/><use xlink:href="#DejaVuSans-6f" transform="translate(311.813)"/><use xlink:href="#DejaVuSans-32" transform="translate(372.994)"/><use xlink:href="#DejaVuSans-35" transform="translate(436.617)"/><use xlink:href="#DejaVuSans-36" transform="translate(500.24)"/></g></g><g id="xtick_5"><use xlink:href="#m1958d7fc6f" id="line2d_5" x="311.576" y="410.398" style="stroke:#000;stroke-width:.8"/><g id="text_5" transform="matrix(.1 0 0 -.1 290.135 424.997)"><defs><path id="DejaVuSans-33" d="M2597 2516q453-97 707-404 255-306 255-756 0-690-475-1069Q2609-91 1734-91q-293 0-604 58T488 141v609q262-153 574-231 313-78 654-78 593 0 904 234t311 681q0 413-289 645-289 233-804 233h-544v519h569q465 0 712 186t247 536q0 359-255 551-254 193-729 193-260 0-557-57-297-56-653-174v562q360 100 674 150t592 50q719 0 1137-327 419-326 419-882 0-388-222-655t-631-370" transform="scale(.01563)"/><path id="DejaVuSans-78" d="M3513 3500 2247 1797 3578 0h-678L1881 1375 863 0H184l1360 1831L300 3500h678l928-1247 928 1247z" transform="scale(.01563)"/></defs><use xlink:href="#DejaVuSans-50"/><use xlink:href="#DejaVuSans-63" transform="translate(60.303)"/><use xlink:href="#DejaVuSans-67" transform="translate(115.283)"/><use xlink:href="#DejaVuSans-33" transform="translate(178.76)"/><use xlink:href="#DejaVuSans-32" transform="translate(242.383)"/><use xlink:href="#DejaVuSans-78" transform="translate(306.006)"/><use xlink:href="#DejaVuSans-32" transform="translate(365.186)"/></g></g><g id="xtick_6"><use xlink:href="#m1958d7fc6f" id="line2d_6" x="366.915" y="410.398" style="stroke:#000;stroke-width:.8"/><g id="text_6" transform="matrix(.1 0 0 -.1 340.247 424.997)"><defs><path id="DejaVuSans-70" d="M1159 525v-1856H581v4831h578v-531q182 312 458 463 277 152 661 152 638 0 1036-506 399-506 399-1331T3314 415Q2916-91 2278-91q-384 0-661 152-276 152-458 464m1957 1222q0 634-261 995t-717 361q-457 0-718-361t-261-995 261-995 718-361q456 0 717 361t261 995" transform="scale(.01563)"/><path id="DejaVuSans-6c" d="M603 4863h575V0H603z" transform="scale(.01563)"/><path id="DejaVuSans-74" d="M1172 4494v-994h1184v-447H1172V1153q0-428 117-550t477-122h590V0h-590q-666 0-919 248-253 249-253 905v1900H172v447h422v994z" transform="scale(.01563)"/></defs><use xlink:href="#DejaVuSans-53"/><use xlink:href="#DejaVuSans-70" transform="translate(63.477)"/><use xlink:href="#DejaVuSans-6c" transform="translate(126.953)"/><use xlink:href="#DejaVuSans-69" transform="translate(154.736)"/><use xlink:href="#DejaVuSans-74" transform="translate(182.52)"/><use xlink:href="#DejaVuSans-6d" transform="translate(221.729)"/><use xlink:href="#DejaVuSans-69" transform="translate(319.14)"/><use xlink:href="#DejaVuSans-78" transform="translate(346.924)"/><use xlink:href="#DejaVuSans-36" transform="translate(406.104)"/><use xlink:href="#DejaVuSans-34" transform="translate(469.727)"/></g></g><g id="xtick_7"><use xlink:href="#m1958d7fc6f" id="line2d_7" x="422.254" y="410.398" style="stroke:#000;stroke-width:.8"/><g id="text_7" transform="matrix(.1 0 0 -.1 402.976 424.997)"><defs><path id="DejaVuSans-57" d="M213 4666h637l981-3944 978 3944h710l981-3944 978 3944h641L4947 0h-794l-984 4050L2175 0h-794z" transform="scale(.01563)"/><path id="DejaVuSans-79" d="M2059-325q-243-625-475-815-231-191-618-191H506v481h338q237 0 368 113 132 112 291 531l103 262L191 3500h609L1894 763l1094 2737h609z" transform="scale(.01563)"/><path id="DejaVuSans-61" d="M2194 1759q-697 0-966-159t-269-544q0-306 202-486 202-179 548-179 479 0 768 339t289 901v128zm1147 238V0h-575v531q-197-318-491-470T1556-91q-537 0-855 302-317 302-317 808 0 590 395 890 396 300 1180 300h807v57q0 397-261 614t-733 217q-300 0-585-72-284-72-546-216v532q315 122 612 182 297 61 578 61 760 0 1135-394 375-393 375-1193" transform="scale(.01563)"/><path id="DejaVuSans-6e" d="M3513 2113V0h-575v2094q0 497-194 743-194 247-581 247-466 0-735-297-269-296-269-809V0H581v3500h578v-544q207 316 486 472 280 156 646 156 603 0 912-373 310-373 310-1098" transform="scale(.01563)"/><path id="DejaVuSans-64" d="M2906 2969v1894h575V0h-575v525q-181-312-458-464-276-152-664-152-634 0-1033 506-398 507-398 1332t398 1331q399 506 1033 506 388 0 664-152 277-151 458-463M947 1747q0-634 261-995t717-361 718 361q263 361 263 995t-263 995q-262 361-718 361t-717-361-261-995" transform="scale(.01563)"/></defs><use xlink:href="#DejaVuSans-57"/><use xlink:href="#DejaVuSans-79" transform="translate(97.127)"/><use xlink:href="#DejaVuSans-72" transform="translate(156.307)"/><use xlink:href="#DejaVuSans-61" transform="translate(197.42)"/><use xlink:href="#DejaVuSans-6e" transform="translate(258.7)"/><use xlink:href="#DejaVuSans-64" transform="translate(322.078)"/></g></g></g><g id="matplotlib.axis_2"><g id="ytick_1"><g id="line2d_8"><defs><path id="m8f8b4cf501" d="M0 0h-3.5" style="stroke:#000;stroke-width:.8"/></defs><use xlink:href="#m8f8b4cf501" x="53.328" y="410.398" style="stroke:#000;stroke-width:.8"/></g><g id="text_8" transform="matrix(.1 0 0 -.1 39.966 414.197)"><defs><path id="DejaVuSans-30" d="M2034 4250q-487 0-733-480-245-479-245-1442 0-959 245-1439 246-480 733-480 491 0 736 480 246 480 246 1439 0 963-246 1442-245 480-736 480m0 500q785 0 1199-621 414-620 414-1801 0-1178-414-1799Q2819-91 2034-91q-784 0-1198 620-414 621-414 1799 0 1181 414 1801 414 621 1198 621" transform="scale(.01563)"/></defs><use xlink:href="#DejaVuSans-30"/></g></g><g id="ytick_2"><use xlink:href="#m8f8b4cf501" id="line2d_9" x="53.328" y="324.917" style="stroke:#000;stroke-width:.8"/><g id="text_9" transform="matrix(.1 0 0 -.1 20.878 328.716)"><use xlink:href="#DejaVuSans-32"/><use xlink:href="#DejaVuSans-30" transform="translate(63.623)"/><use xlink:href="#DejaVuSans-30" transform="translate(127.246)"/><use xlink:href="#DejaVuSans-30" transform="translate(190.87)"/></g></g><g id="ytick_3"><use xlink:href="#m8f8b4cf501" id="line2d_10" x="53.328" y="239.435" style="stroke:#000;stroke-width:.8"/><g id="text_10" transform="matrix(.1 0 0 -.1 20.878 243.235)"><use xlink:href="#DejaVuSans-34"/><use xlink:href="#DejaVuSans-30" transform="translate(63.623)"/><use xlink:href="#DejaVuSans-30" transform="translate(127.246)"/><use xlink:href="#DejaVuSans-30" transform="translate(190.87)"/></g></g><g id="ytick_4"><use xlink:href="#m8f8b4cf501" id="line2d_11" x="53.328" y="153.954" style="stroke:#000;stroke-width:.8"/><g id="text_11" transform="matrix(.1 0 0 -.1 20.878 157.753)"><use xlink:href="#DejaVuSans-36"/><use xlink:href="#DejaVuSans-30" transform="translate(63.623)"/><use xlink:href="#DejaVuSans-30" transform="translate(127.246)"/><use xlink:href="#DejaVuSans-30" transform="translate(190.87)"/></g></g><g id="ytick_5"><use xlink:href="#m8f8b4cf501" id="line2d_12" x="53.328" y="68.473" style="stroke:#000;stroke-width:.8"/><g id="text_12" transform="matrix(.1 0 0 -.1 20.878 72.272)"><defs><path id="DejaVuSans-38" d="M2034 2216q-450 0-708-241-257-241-257-662 0-422 257-663 258-241 708-241t709 242q260 243 260 662 0 421-258 662-257 241-711 241m-631 268q-406 100-633 378-226 279-226 679 0 559 398 884 399 325 1092 325 697 0 1094-325t397-884q0-400-227-679-226-278-629-378 456-106 710-416 255-309 255-755 0-679-414-1042Q2806-91 2034-91q-771 0-1186 362-414 363-414 1042 0 446 256 755 257 310 713 416m-231 997q0-362 226-565 227-203 636-203 407 0 636 203 230 203 230 565 0 363-230 566-229 203-636 203-409 0-636-203-226-203-226-566" transform="scale(.01563)"/></defs><use xlink:href="#DejaVuSans-38"/><use xlink:href="#DejaVuSans-30" transform="translate(63.623)"/><use xlink:href="#DejaVuSans-30" transform="translate(127.246)"/><use xlink:href="#DejaVuSans-30" transform="translate(190.87)"/></g></g><g id="text_13" transform="matrix(0 -.1 -.1 0 14.798 266.743)"><defs><path id="DejaVuSans-45" d="M628 4666h2950v-532H1259V2753h2222v-531H1259V531h2375V0H628z" transform="scale(.01563)"/><path id="DejaVuSans-75" d="M544 1381v2119h575V1403q0-497 193-746 194-248 582-248 465 0 735 297 271 297 271 810v1984h575V0h-575v538q-209-319-486-474-276-155-642-155-603 0-916 375-312 375-312 1097m1447 2203" transform="scale(.01563)"/><path id="DejaVuSans-28" d="M1984 4856q-418-718-622-1422-203-703-203-1425 0-721 205-1429t620-1424h-500Q1016-109 783 600T550 2009q0 697 231 1403 232 707 703 1444z" transform="scale(.01563)"/><path id="DejaVuSans-29" d="M513 4856h500q468-737 701-1444 233-706 233-1403 0-700-233-1409T1013-844H513q415 716 620 1424t205 1429q0 722-205 1425-205 704-620 1422" transform="scale(.01563)"/></defs><use xlink:href="#DejaVuSans-45"/><use xlink:href="#DejaVuSans-78" transform="translate(63.184)"/><use xlink:href="#DejaVuSans-65" transform="translate(119.238)"/><use xlink:href="#DejaVuSans-63" transform="translate(180.762)"/><use xlink:href="#DejaVuSans-75" transform="translate(235.742)"/><use xlink:href="#DejaVuSans-74" transform="translate(299.121)"/><use xlink:href="#DejaVuSans-69" transform="translate(338.33)"/><use xlink:href="#DejaVuSans-6f" transform="translate(366.113)"/><use xlink:href="#DejaVuSans-6e" transform="translate(427.295)"/><use xlink:href="#DejaVuSans-74" transform="translate(522.46)"/><use xlink:href="#DejaVuSans-69" transform="translate(561.67)"/><use xlink:href="#DejaVuSans-6d" transform="translate(589.453)"/><use xlink:href="#DejaVuSans-65" transform="translate(686.865)"/><use xlink:href="#DejaVuSans-28" transform="translate(780.176)"/><use xlink:href="#DejaVuSans-6d" transform="translate(819.19)"/><use xlink:href="#DejaVuSans-73" transform="translate(916.602)"/><use xlink:href="#DejaVuSans-29" transform="translate(968.701)"/></g></g><path id="patch_10" d="M53.328 410.398V22.318" style="fill:none;stroke:#000;stroke-width:.8;stroke-linejoin:miter;stroke-linecap:square"/><path id="patch_11" d="M459.146 410.398V22.318" style="fill:none;stroke:#000;stroke-width:.8;stroke-linejoin:miter;stroke-linecap:square"/><path id="patch_12" d="M53.328 410.398h405.818" style="fill:none;stroke:#000;stroke-width:.8;stroke-linejoin:miter;stroke-linecap:square"/><path id="patch_13" d="M53.328 22.318h405.818" style="fill:none;stroke:#000;stroke-width:.8;stroke-linejoin:miter;stroke-linecap:square"/><g id="text_14" transform="matrix(.12 0 0 -.12 136.002 16.318)"><defs><path id="DejaVuSans-54" d="M-19 4666h3947v-532H2272V0h-634v4134H-19z" transform="scale(.01563)"/><path id="DejaVuSans-49" d="M628 4666h631V0H628z" transform="scale(.01563)"/><path id="DejaVuSans-66" d="M2375 4863v-479h-550q-309 0-430-125-120-125-120-450v-309h947v-447h-947V0H697v3053H147v447h550v244q0 584 272 851 272 268 862 268z" transform="scale(.01563)"/><path id="DejaVuSans-2d" d="M313 2009h1684v-512H313z" transform="scale(.01563)"/><path id="DejaVuSans-62" d="M3116 1747q0 634-261 995t-717 361q-457 0-718-361t-261-995 261-995 718-361q456 0 717 361t261 995M1159 2969q182 312 458 463 277 152 661 152 638 0 1036-506 399-506 399-1331T3314 415Q2916-91 2278-91q-384 0-661 152-276 152-458 464V0H581v4863h578z" transform="scale(.01563)"/><path id="DejaVuSans-52" d="M2841 2188q203-69 395-294t386-619L4263 0h-679l-596 1197q-232 469-449 622t-592 153h-688V0H628v4666h1425q800 0 1194-335 394-334 394-1009 0-441-205-732-205-290-595-402M1259 4147V2491h794q456 0 689 211t233 620-233 617-689 208z" transform="scale(.01563)"/><path id="DejaVuSans-4e" d="M628 4666h850L3547 763v3903h612V0h-850L1241 3903V0H628z" transform="scale(.01563)"/><path id="DejaVuSans-47" d="M3809 666v1253H2778v519h1656V434q-365-259-806-392-440-133-940-133-1094 0-1712 639-617 640-617 1780 0 1144 617 1783 618 639 1712 639 456 0 867-113 411-112 758-331v-672q-350 297-744 447t-828 150q-857 0-1287-478-429-478-429-1425 0-944 429-1422 430-478 1287-478 334 0 596 58 263 58 472 180" transform="scale(.01563)"/></defs><use xlink:href="#DejaVuSans-54"/><use xlink:href="#DejaVuSans-69" transform="translate(57.959)"/><use xlink:href="#DejaVuSans-6d" transform="translate(85.742)"/><use xlink:href="#DejaVuSans-65" transform="translate(183.154)"/><use xlink:href="#DejaVuSans-63" transform="translate(276.465)"/><use xlink:href="#DejaVuSans-6f" transform="translate(331.445)"/><use xlink:href="#DejaVuSans-6d" transform="translate(392.627)"/><use xlink:href="#DejaVuSans-70" transform="translate(490.04)"/><use xlink:href="#DejaVuSans-75" transform="translate(553.516)"/><use xlink:href="#DejaVuSans-74" transform="translate(616.895)"/><use xlink:href="#DejaVuSans-69" transform="translate(656.104)"/><use xlink:href="#DejaVuSans-6e" transform="translate(683.887)"/><use xlink:href="#DejaVuSans-67" transform="translate(747.266)"/><use xlink:href="#DejaVuSans-50" transform="translate(842.53)"/><use xlink:href="#DejaVuSans-49" transform="translate(902.832)"/><use xlink:href="#DejaVuSans-6f" transform="translate(964.111)"/><use xlink:href="#DejaVuSans-66" transform="translate(1025.293)"/><use xlink:href="#DejaVuSans-73" transform="translate(1092.285)"/><use xlink:href="#DejaVuSans-6f" transform="translate(1144.385)"/><use xlink:href="#DejaVuSans-6d" transform="translate(1205.566)"/><use xlink:href="#DejaVuSans-65" transform="translate(1302.979)"/><use xlink:href="#DejaVuSans-36" transform="translate(1396.29)"/><use xlink:href="#DejaVuSans-34" transform="translate(1459.912)"/><use xlink:href="#DejaVuSans-2d" transform="translate(1523.535)"/><use xlink:href="#DejaVuSans-62" transform="translate(1559.62)"/><use xlink:href="#DejaVuSans-69" transform="translate(1623.096)"/><use xlink:href="#DejaVuSans-74" transform="translate(1650.879)"/><use xlink:href="#DejaVuSans-50" transform="translate(1721.875)"/><use xlink:href="#DejaVuSans-52" transform="translate(1782.178)"/><use xlink:href="#DejaVuSans-4e" transform="translate(1851.66)"/><use xlink:href="#DejaVuSans-47" transform="translate(1926.465)"/></g></g><g id="axes_2"><path id="patch_14" d="M540.31 410.398h405.818V22.318H540.31z" style="fill:#fff"/><path id="patch_15" d="M558.756 410.398h43.403V113.947h-43.403z" clip-path="url(#p974c76f589)" style="fill:#1f77b4"/><path id="patch_16" d="M623.86 410.398h43.404V173.36H623.86z" clip-path="url(#p974c76f589)" style="fill:#1f77b4"/><path id="patch_17" d="M688.965 410.398h43.403v-369.6h-43.403z" clip-path="url(#p974c76f589)" style="fill:#1f77b4"/><path id="patch_18" d="M754.07 410.398h43.403V114.444H754.07z" clip-path="url(#p974c76f589)" style="fill:#1f77b4"/><path id="patch_19" d="M819.174 410.398h43.403v-102.24h-43.403z" clip-path="url(#p974c76f589)" style="fill:#1f77b4"/><path id="patch_20" d="M884.279 410.398h43.403V331.47h-43.403z" clip-path="url(#p974c76f589)" style="fill:#1f77b4"/><g id="matplotlib.axis_3"><g id="xtick_8"><use xlink:href="#m1958d7fc6f" id="line2d_13" x="580.458" y="410.398" style="stroke:#000;stroke-width:.8"/><g id="text_15" transform="matrix(.1 0 0 -.1 560.419 424.997)"><use xlink:href="#DejaVuSans-46"/><use xlink:href="#DejaVuSans-6d" transform="translate(57.52)"/><use xlink:href="#DejaVuSans-63" transform="translate(154.932)"/><use xlink:href="#DejaVuSans-32" transform="translate(209.912)"/><use xlink:href="#DejaVuSans-35" transform="translate(273.535)"/><use xlink:href="#DejaVuSans-36" transform="translate(337.158)"/></g></g><g id="xtick_9"><use xlink:href="#m1958d7fc6f" id="line2d_14" x="645.562" y="410.398" style="stroke:#000;stroke-width:.8"/><g id="text_16" transform="matrix(.1 0 0 -.1 626.284 424.997)"><use xlink:href="#DejaVuSans-57"/><use xlink:href="#DejaVuSans-79" transform="translate(97.127)"/><use xlink:href="#DejaVuSans-72" transform="translate(156.307)"/><use xlink:href="#DejaVuSans-61" transform="translate(197.42)"/><use xlink:href="#DejaVuSans-6e" transform="translate(258.7)"/><use xlink:href="#DejaVuSans-64" transform="translate(322.078)"/></g></g><g id="xtick_10"><use xlink:href="#m1958d7fc6f" id="line2d_15" x="710.667" y="410.398" style="stroke:#000;stroke-width:.8"/><g id="text_17" transform="matrix(.1 0 0 -.1 695.366 424.997)"><use xlink:href="#DejaVuSans-50"/><use xlink:href="#DejaVuSans-63" transform="translate(60.303)"/><use xlink:href="#DejaVuSans-67" transform="translate(115.283)"/><use xlink:href="#DejaVuSans-33" transform="translate(178.76)"/><use xlink:href="#DejaVuSans-32" transform="translate(242.383)"/></g></g><g id="xtick_11"><use xlink:href="#m1958d7fc6f" id="line2d_16" x="775.771" y="410.398" style="stroke:#000;stroke-width:.8"/><g id="text_18" transform="matrix(.1 0 0 -.1 747.578 424.997)"><defs><path id="DejaVuSans-31" d="M794 531h1031v3560L703 3866v575l1116 225h631V531h1031V0H794z" transform="scale(.01563)"/></defs><use xlink:href="#DejaVuSans-58"/><use xlink:href="#DejaVuSans-6f" transform="translate(68.506)"/><use xlink:href="#DejaVuSans-73" transform="translate(129.688)"/><use xlink:href="#DejaVuSans-68" transform="translate(181.787)"/><use xlink:href="#DejaVuSans-69" transform="translate(245.166)"/><use xlink:href="#DejaVuSans-72" transform="translate(272.95)"/><use xlink:href="#DejaVuSans-6f" transform="translate(311.813)"/><use xlink:href="#DejaVuSans-31" transform="translate(372.994)"/><use xlink:href="#DejaVuSans-32" transform="translate(436.617)"/><use xlink:href="#DejaVuSans-38" transform="translate(500.24)"/></g></g><g id="xtick_12"><use xlink:href="#m1958d7fc6f" id="line2d_17" x="840.876" y="410.398" style="stroke:#000;stroke-width:.8"/><g id="text_19" transform="matrix(.1 0 0 -.1 812.408 424.997)"><use xlink:href="#DejaVuSans-4d"/><use xlink:href="#DejaVuSans-75" transform="translate(86.28)"/><use xlink:href="#DejaVuSans-6c" transform="translate(149.658)"/><use xlink:href="#DejaVuSans-62" transform="translate(177.441)"/><use xlink:href="#DejaVuSans-65" transform="translate(240.918)"/><use xlink:href="#DejaVuSans-72" transform="translate(302.441)"/><use xlink:href="#DejaVuSans-72" transform="translate(341.805)"/><use xlink:href="#DejaVuSans-79" transform="translate(382.918)"/><use xlink:href="#DejaVuSans-33" transform="translate(442.098)"/><use xlink:href="#DejaVuSans-32" transform="translate(505.72)"/></g></g><g id="xtick_13"><use xlink:href="#m1958d7fc6f" id="line2d_18" x="905.98" y="410.398" style="stroke:#000;stroke-width:.8"/><g id="text_20" transform="matrix(.1 0 0 -.1 879.312 424.997)"><use xlink:href="#DejaVuSans-53"/><use xlink:href="#DejaVuSans-70" transform="translate(63.477)"/><use xlink:href="#DejaVuSans-6c" transform="translate(126.953)"/><use xlink:href="#DejaVuSans-69" transform="translate(154.736)"/><use xlink:href="#DejaVuSans-74" transform="translate(182.52)"/><use xlink:href="#DejaVuSans-6d" transform="translate(221.729)"/><use xlink:href="#DejaVuSans-69" transform="translate(319.14)"/><use xlink:href="#DejaVuSans-78" transform="translate(346.924)"/><use xlink:href="#DejaVuSans-33" transform="translate(406.104)"/><use xlink:href="#DejaVuSans-32" transform="translate(469.727)"/></g></g></g><g id="matplotlib.axis_4"><g id="ytick_6"><use xlink:href="#m8f8b4cf501" id="line2d_19" x="540.31" y="410.398" style="stroke:#000;stroke-width:.8"/><use xlink:href="#DejaVuSans-30" id="text_21" transform="matrix(.1 0 0 -.1 526.947 414.197)"/></g><g id="ytick_7"><use xlink:href="#m8f8b4cf501" id="line2d_20" x="540.31" y="338.461" style="stroke:#000;stroke-width:.8"/><g id="text_22" transform="matrix(.1 0 0 -.1 507.86 342.26)"><use xlink:href="#DejaVuSans-32"/><use xlink:href="#DejaVuSans-30" transform="translate(63.623)"/><use xlink:href="#DejaVuSans-30" transform="translate(127.246)"/><use xlink:href="#DejaVuSans-30" transform="translate(190.87)"/></g></g><g id="ytick_8"><use xlink:href="#m8f8b4cf501" id="line2d_21" x="540.31" y="266.523" style="stroke:#000;stroke-width:.8"/><g id="text_23" transform="matrix(.1 0 0 -.1 507.86 270.322)"><use xlink:href="#DejaVuSans-34"/><use xlink:href="#DejaVuSans-30" transform="translate(63.623)"/><use xlink:href="#DejaVuSans-30" transform="translate(127.246)"/><use xlink:href="#DejaVuSans-30" transform="translate(190.87)"/></g></g><g id="ytick_9"><use xlink:href="#m8f8b4cf501" id="line2d_22" x="540.31" y="194.586" style="stroke:#000;stroke-width:.8"/><g id="text_24" transform="matrix(.1 0 0 -.1 507.86 198.385)"><use xlink:href="#DejaVuSans-36"/><use xlink:href="#DejaVuSans-30" transform="translate(63.623)"/><use xlink:href="#DejaVuSans-30" transform="translate(127.246)"/><use xlink:href="#DejaVuSans-30" transform="translate(190.87)"/></g></g><g id="ytick_10"><use xlink:href="#m8f8b4cf501" id="line2d_23" x="540.31" y="122.648" style="stroke:#000;stroke-width:.8"/><g id="text_25" transform="matrix(.1 0 0 -.1 507.86 126.447)"><use xlink:href="#DejaVuSans-38"/><use xlink:href="#DejaVuSans-30" transform="translate(63.623)"/><use xlink:href="#DejaVuSans-30" transform="translate(127.246)"/><use xlink:href="#DejaVuSans-30" transform="translate(190.87)"/></g></g><g id="ytick_11"><use xlink:href="#m8f8b4cf501" id="line2d_24" x="540.31" y="50.711" style="stroke:#000;stroke-width:.8"/><g id="text_26" transform="matrix(.1 0 0 -.1 501.497 54.51)"><use xlink:href="#DejaVuSans-31"/><use xlink:href="#DejaVuSans-30" transform="translate(63.623)"/><use xlink:href="#DejaVuSans-30" transform="translate(127.246)"/><use xlink:href="#DejaVuSans-30" transform="translate(190.87)"/><use xlink:href="#DejaVuSans-30" transform="translate(254.492)"/></g></g><g id="text_27" transform="matrix(0 -.1 -.1 0 495.418 266.743)"><use xlink:href="#DejaVuSans-45"/><use xlink:href="#DejaVuSans-78" transform="translate(63.184)"/><use xlink:href="#DejaVuSans-65" transform="translate(119.238)"/><use xlink:href="#DejaVuSans-63" transform="translate(180.762)"/><use xlink:href="#DejaVuSans-75" transform="translate(235.742)"/><use xlink:href="#DejaVuSans-74" transform="translate(299.121)"/><use xlink:href="#DejaVuSans-69" transform="translate(338.33)"/><use xlink:href="#DejaVuSans-6f" transform="translate(366.113)"/><use xlink:href="#DejaVuSans-6e" transform="translate(427.295)"/><use xlink:href="#DejaVuSans-74" transform="translate(522.46)"/><use xlink:href="#DejaVuSans-69" transform="translate(561.67)"/><use xlink:href="#DejaVuSans-6d" transform="translate(589.453)"/><use xlink:href="#DejaVuSans-65" transform="translate(686.865)"/><use xlink:href="#DejaVuSans-28" transform="translate(780.176)"/><use xlink:href="#DejaVuSans-6d" transform="translate(819.19)"/><use xlink:href="#DejaVuSans-73" transform="translate(916.602)"/><use xlink:href="#DejaVuSans-29" transform="translate(968.701)"/></g></g><path id="patch_21" d="M540.31 410.398V22.318" style="fill:none;stroke:#000;stroke-width:.8;stroke-linejoin:miter;stroke-linecap:square"/><path id="patch_22" d="M946.128 410.398V22.318" style="fill:none;stroke:#000;stroke-width:.8;stroke-linejoin:miter;stroke-linecap:square"/><path id="patch_23" d="M540.31 410.398h405.818" style="fill:none;stroke:#000;stroke-width:.8;stroke-linejoin:miter;stroke-linecap:square"/><path id="patch_24" d="M540.31 22.318h405.818" style="fill:none;stroke:#000;stroke-width:.8;stroke-linejoin:miter;stroke-linecap:square"/><g id="text_28" transform="matrix(.12 0 0 -.12 622.984 16.318)"><use xlink:href="#DejaVuSans-54"/><use xlink:href="#DejaVuSans-69" transform="translate(57.959)"/><use xlink:href="#DejaVuSans-6d" transform="translate(85.742)"/><use xlink:href="#DejaVuSans-65" transform="translate(183.154)"/><use xlink:href="#DejaVuSans-63" transform="translate(276.465)"/><use xlink:href="#DejaVuSans-6f" transform="translate(331.445)"/><use xlink:href="#DejaVuSans-6d" transform="translate(392.627)"/><use xlink:href="#DejaVuSans-70" transform="translate(490.04)"/><use xlink:href="#DejaVuSans-75" transform="translate(553.516)"/><use xlink:href="#DejaVuSans-74" transform="translate(616.895)"/><use xlink:href="#DejaVuSans-69" transform="translate(656.104)"/><use xlink:href="#DejaVuSans-6e" transform="translate(683.887)"/><use xlink:href="#DejaVuSans-67" transform="translate(747.266)"/><use xlink:href="#DejaVuSans-50" transform="translate(842.53)"/><use xlink:href="#DejaVuSans-49" transform="translate(902.832)"/><use xlink:href="#DejaVuSans-6f" transform="translate(964.111)"/><use xlink:href="#DejaVuSans-66" transform="translate(1025.293)"/><use xlink:href="#DejaVuSans-73" transform="translate(1092.285)"/><use xlink:href="#DejaVuSans-6f" transform="translate(1144.385)"/><use xlink:href="#DejaVuSans-6d" transform="translate(1205.566)"/><use xlink:href="#DejaVuSans-65" transform="translate(1302.979)"/><use xlink:href="#DejaVuSans-33" transform="translate(1396.29)"/><use xlink:href="#DejaVuSans-32" transform="translate(1459.912)"/><use xlink:href="#DejaVuSans-2d" transform="translate(1523.535)"/><use xlink:href="#DejaVuSans-62" transform="translate(1559.62)"/><use xlink:href="#DejaVuSans-69" transform="translate(1623.096)"/><use xlink:href="#DejaVuSans-74" transform="translate(1650.879)"/><use xlink:href="#DejaVuSans-50" transform="translate(1721.875)"/><use xlink:href="#DejaVuSans-52" transform="translate(1782.178)"/><use xlink:href="#DejaVuSans-4e" transform="translate(1851.66)"/><use xlink:href="#DejaVuSans-47" transform="translate(1926.465)"/></g></g></g><defs><clipPath id="p3ad2451a44"><path d="M53.328 22.318h405.818v388.08H53.328z"/></clipPath><clipPath id="p974c76f589"><path d="M540.31 22.318h405.818v388.08H540.31z"/></clipPath></defs></svg>