<svg xmlns="http://www.w3.org/2000/svg" xmlns:xlink="http://www.w3.org/1999/xlink" width="768" height="576" viewBox="0 0 576 432"><defs><style>*{stroke-linejoin:round;stroke-linecap:butt}</style></defs><g id="figure_1"><path id="patch_1" d="M0 432h576V0H0z" style="fill:#fff"/><g id="axes_1"><path id="patch_2" d="M72 384.48h446.4V51.84H72z" style="fill:#fff"/><g id="matplotlib.axis_1"><g id="xtick_1"><g id="line2d_1"><defs><path id="macddfbb88b" d="M0 0v3.5" style="stroke:#000;stroke-width:.8"/></defs><use xlink:href="#macddfbb88b" x="92.291" y="384.48" style="stroke:#000;stroke-width:.8"/></g><g id="text_1" transform="matrix(.1 0 0 -.1 84.34 399.078)"><defs><path id="DejaVuSans-30" d="M2034 4250q-487 0-733-480-245-479-245-1442 0-959 245-1439 246-480 733-480 491 0 736 480 246 480 246 1439 0 963-246 1442-245 480-736 480m0 500q785 0 1199-621 414-620 414-1801 0-1178-414-1799Q2819-91 2034-91q-784 0-1198 620-414 621-414 1799 0 1181 414 1801 414 621 1198 621" transform="scale(.01563)"/><path id="DejaVuSans-2e" d="M684 794h660V0H684z" transform="scale(.01563)"/></defs><use xlink:href="#DejaVuSans-30"/><use xlink:href="#DejaVuSans-2e" x="63.623"/><use xlink:href="#DejaVuSans-30" x="95.41"/></g></g><g id="xtick_2"><use xlink:href="#macddfbb88b" id="line2d_2" x="148.655" y="384.48" style="stroke:#000;stroke-width:.8"/><g id="text_2" transform="matrix(.1 0 0 -.1 140.703 399.078)"><defs><path id="DejaVuSans-32" d="M1228 531h2203V0H469v531q359 372 979 998 621 627 780 809 303 340 423 576 121 236 121 464 0 372-261 606-261 235-680 235-297 0-627-103-329-103-704-313v638q381 153 712 231 332 78 607 78 725 0 1156-363 431-362 431-968 0-288-108-546-107-257-392-607-78-91-497-524-418-433-1181-1211" transform="scale(.01563)"/><path id="DejaVuSans-35" d="M691 4666h2478v-532H1269V2991q137 47 274 70 138 23 276 23 781 0 1237-428 457-428 457-1159 0-753-469-1171Q2575-91 1722-91q-294 0-599 50Q819 9 494 109v635q281-153 581-228t634-75q541 0 856 284 316 284 316 772 0 487-316 771-315 285-856 285-253 0-505-56-251-56-513-175z" transform="scale(.01563)"/></defs><use xlink:href="#DejaVuSans-32"/><use xlink:href="#DejaVuSans-2e" x="63.623"/><use xlink:href="#DejaVuSans-35" x="95.41"/></g></g><g id="xtick_3"><use xlink:href="#macddfbb88b" id="line2d_3" x="205.018" y="384.48" style="stroke:#000;stroke-width:.8"/><g id="text_3" transform="matrix(.1 0 0 -.1 197.067 399.078)"><use xlink:href="#DejaVuSans-35"/><use xlink:href="#DejaVuSans-2e" x="63.623"/><use xlink:href="#DejaVuSans-30" x="95.41"/></g></g><g id="xtick_4"><use xlink:href="#macddfbb88b" id="line2d_4" x="261.382" y="384.48" style="stroke:#000;stroke-width:.8"/><g id="text_4" transform="matrix(.1 0 0 -.1 253.43 399.078)"><defs><path id="DejaVuSans-37" d="M525 4666h3000v-269L1831 0h-659l1594 4134H525z" transform="scale(.01563)"/></defs><use xlink:href="#DejaVuSans-37"/><use xlink:href="#DejaVuSans-2e" x="63.623"/><use xlink:href="#DejaVuSans-35" x="95.41"/></g></g><g id="xtick_5"><use xlink:href="#macddfbb88b" id="line2d_5" x="317.745" y="384.48" style="stroke:#000;stroke-width:.8"/><g id="text_5" transform="matrix(.1 0 0 -.1 306.613 399.078)"><defs><path id="DejaVuSans-31" d="M794 531h1031v3560L703 3866v575l1116 225h631V531h1031V0H794z" transform="scale(.01563)"/></defs><use xlink:href="#DejaVuSans-31"/><use xlink:href="#DejaVuSans-30" x="63.623"/><use xlink:href="#DejaVuSans-2e" x="127.246"/><use xlink:href="#DejaVuSans-30" x="159.033"/></g></g><g id="xtick_6"><use xlink:href="#macddfbb88b" id="line2d_6" x="374.109" y="384.48" style="stroke:#000;stroke-width:.8"/><g id="text_6" transform="matrix(.1 0 0 -.1 362.976 399.078)"><use xlink:href="#DejaVuSans-31"/><use xlink:href="#DejaVuSans-32" x="63.623"/><use xlink:href="#DejaVuSans-2e" x="127.246"/><use xlink:href="#DejaVuSans-35" x="159.033"/></g></g><g id="xtick_7"><use xlink:href="#macddfbb88b" id="line2d_7" x="430.473" y="384.48" style="stroke:#000;stroke-width:.8"/><g id="text_7" transform="matrix(.1 0 0 -.1 419.34 399.078)"><use xlink:href="#DejaVuSans-31"/><use xlink:href="#DejaVuSans-35" x="63.623"/><use xlink:href="#DejaVuSans-2e" x="127.246"/><use xlink:href="#DejaVuSans-30" x="159.033"/></g></g><g id="xtick_8"><use xlink:href="#macddfbb88b" id="line2d_8" x="486.836" y="384.48" style="stroke:#000;stroke-width:.8"/><g id="text_8" transform="matrix(.1 0 0 -.1 475.704 399.078)"><use xlink:href="#DejaVuSans-31"/><use xlink:href="#DejaVuSans-37" x="63.623"/><use xlink:href="#DejaVuSans-2e" x="127.246"/><use xlink:href="#DejaVuSans-35" x="159.033"/></g></g><g id="text_9" transform="matrix(.1 0 0 -.1 277.679 412.757)"><defs><path id="DejaVuSans-64" d="M2906 2969v1894h575V0h-575v525q-181-312-458-464-276-152-664-152-634 0-1033 506-398 507-398 1332t398 1331q399 506 1033 506 388 0 664-152 277-151 458-463M947 1747q0-634 261-995t717-361 718 361q263 361 263 995t-263 995q-262 361-718 361t-717-361-261-995" transform="scale(.01563)"/><path id="DejaVuSans-65" d="M3597 1894v-281H953q38-594 358-905t892-311q331 0 642 81t618 244V178Q3153 47 2828-22t-659-69q-838 0-1327 487-489 488-489 1320 0 859 464 1363 464 505 1252 505 706 0 1117-455 411-454 411-1235m-575 169q-6 471-264 752-258 282-683 282-481 0-770-272t-333-766z" transform="scale(.01563)"/><path id="DejaVuSans-67" d="M2906 1791q0 625-258 968-257 344-723 344-462 0-720-344-258-343-258-968 0-622 258-966t720-344q466 0 723 344 258 344 258 966m575-1357q0-893-397-1329-396-436-1215-436-303 0-572 45t-522 139v559q253-137 500-202 247-66 503-66 566 0 847 295t281 892v285q-178-310-456-463T1784 0Q1141 0 747 490 353 981 353 1791q0 812 394 1302 394 491 1037 491 388 0 666-153t456-462v531h575z" transform="scale(.01563)"/><path id="DejaVuSans-72" d="M2631 2963q-97 56-211 82-114 27-251 27-488 0-749-317t-261-911V0H581v3500h578v-544q182 319 472 473 291 155 707 155 59 0 131-8 72-7 159-23z" transform="scale(.01563)"/></defs><use xlink:href="#DejaVuSans-64"/><use xlink:href="#DejaVuSans-65" x="63.477"/><use xlink:href="#DejaVuSans-67" x="125"/><use xlink:href="#DejaVuSans-72" x="188.477"/><use xlink:href="#DejaVuSans-65" x="227.34"/><use xlink:href="#DejaVuSans-65" x="288.863"/></g></g><g id="matplotlib.axis_2"><g id="ytick_1"><g id="line2d_9"><defs><path id="mc7b2be05ec" d="M0 0h-3.5" style="stroke:#000;stroke-width:.8"/></defs><use xlink:href="#mc7b2be05ec" x="72" y="339.388" style="stroke:#000;stroke-width:.8"/></g><g id="text_10" transform="matrix(.1 0 0 -.1 37.1 343.187)"><defs><path id="DejaVuSans-2212" d="M678 2272h4006v-531H678z" transform="scale(.01563)"/></defs><use xlink:href="#DejaVuSans-31" transform="translate(0 .684)"/><use xlink:href="#DejaVuSans-30" transform="translate(63.623 .684)"/><use xlink:href="#DejaVuSans-2212" transform="matrix(.7 0 0 .7 128.203 38.966)"/><use xlink:href="#DejaVuSans-31" transform="matrix(.7 0 0 .7 186.855 38.966)"/><use xlink:href="#DejaVuSans-31" transform="matrix(.7 0 0 .7 231.392 38.966)"/></g></g><g id="ytick_2"><use xlink:href="#mc7b2be05ec" id="line2d_10" x="72" y="293.79" style="stroke:#000;stroke-width:.8"/><g id="text_11" transform="matrix(.1 0 0 -.1 41.5 297.59)"><defs><path id="DejaVuSans-38" d="M2034 2216q-450 0-708-241-257-241-257-662 0-422 257-663 258-241 708-241t709 242q260 243 260 662 0 421-258 662-257 241-711 241m-631 268q-406 100-633 378-226 279-226 679 0 559 398 884 399 325 1092 325 697 0 1094-325t397-884q0-400-227-679-226-278-629-378 456-106 710-416 255-309 255-755 0-679-414-1042Q2806-91 2034-91q-771 0-1186 362-414 363-414 1042 0 446 256 755 257 310 713 416m-231 997q0-362 226-565 227-203 636-203 407 0 636 203 230 203 230 565 0 363-230 566-229 203-636 203-409 0-636-203-226-203-226-566" transform="scale(.01563)"/></defs><use xlink:href="#DejaVuSans-31" transform="translate(0 .766)"/><use xlink:href="#DejaVuSans-30" transform="translate(63.623 .766)"/><use xlink:href="#DejaVuSans-2212" transform="matrix(.7 0 0 .7 128.203 39.047)"/><use xlink:href="#DejaVuSans-38" transform="matrix(.7 0 0 .7 186.855 39.047)"/></g></g><g id="ytick_3"><use xlink:href="#mc7b2be05ec" id="line2d_11" x="72" y="248.192" style="stroke:#000;stroke-width:.8"/><g id="text_12" transform="matrix(.1 0 0 -.1 41.5 251.991)"><use xlink:href="#DejaVuSans-31" transform="translate(0 .684)"/><use xlink:href="#DejaVuSans-30" transform="translate(63.623 .684)"/><use xlink:href="#DejaVuSans-2212" transform="matrix(.7 0 0 .7 128.203 38.966)"/><use xlink:href="#DejaVuSans-35" transform="matrix(.7 0 0 .7 186.855 38.966)"/></g></g><g id="ytick_4"><use xlink:href="#mc7b2be05ec" id="line2d_12" x="72" y="202.594" style="stroke:#000;stroke-width:.8"/><g id="text_13" transform="matrix(.1 0 0 -.1 41.5 206.393)"><use xlink:href="#DejaVuSans-31" transform="translate(0 .766)"/><use xlink:href="#DejaVuSans-30" transform="translate(63.623 .766)"/><use xlink:href="#DejaVuSans-2212" transform="matrix(.7 0 0 .7 128.203 39.047)"/><use xlink:href="#DejaVuSans-32" transform="matrix(.7 0 0 .7 186.855 39.047)"/></g></g><g id="ytick_5"><use xlink:href="#mc7b2be05ec" id="line2d_13" x="72" y="156.996" style="stroke:#000;stroke-width:.8"/><g id="text_14" transform="matrix(.1 0 0 -.1 47.4 160.795)"><use xlink:href="#DejaVuSans-31" transform="translate(0 .684)"/><use xlink:href="#DejaVuSans-30" transform="translate(63.623 .684)"/><use xlink:href="#DejaVuSans-31" transform="matrix(.7 0 0 .7 128.203 38.966)"/></g></g><g id="ytick_6"><use xlink:href="#mc7b2be05ec" id="line2d_14" x="72" y="111.398" style="stroke:#000;stroke-width:.8"/><g id="text_15" transform="matrix(.1 0 0 -.1 47.4 115.197)"><defs><path id="DejaVuSans-34" d="M2419 4116 825 1625h1594zm-166 550h794V1625h666v-525h-666V0h-628v1100H313v609z" transform="scale(.01563)"/></defs><use xlink:href="#DejaVuSans-31" transform="translate(0 .684)"/><use xlink:href="#DejaVuSans-30" transform="translate(63.623 .684)"/><use xlink:href="#DejaVuSans-34" transform="matrix(.7 0 0 .7 128.203 38.966)"/></g></g><g id="ytick_7"><use xlink:href="#mc7b2be05ec" id="line2d_15" x="72" y="65.8" style="stroke:#000;stroke-width:.8"/><g id="text_16" transform="matrix(.1 0 0 -.1 47.4 69.6)"><use xlink:href="#DejaVuSans-31" transform="translate(0 .684)"/><use xlink:href="#DejaVuSans-30" transform="translate(63.623 .684)"/><use xlink:href="#DejaVuSans-37" transform="matrix(.7 0 0 .7 128.203 38.966)"/></g></g><g id="text_17" transform="matrix(0 -.1 -.1 0 31.02 254.925)"><defs><path id="DejaVuSans-6f" d="M1959 3097q-462 0-731-361t-269-989 267-989q268-361 733-361 460 0 728 362 269 363 269 988 0 622-269 986-268 364-728 364m0 487q750 0 1178-488 429-487 429-1349 0-859-429-1349Q2709-91 1959-91q-753 0-1180 489-426 490-426 1349 0 862 426 1349 427 488 1180 488" transform="scale(.01563)"/><path id="DejaVuSans-28" d="M1984 4856q-418-718-622-1422-203-703-203-1425 0-721 205-1429t620-1424h-500Q1016-109 783 600T550 2009q0 697 231 1403 232 707 703 1444z" transform="scale(.01563)"/><path id="DejaVuSans-66" d="M2375 4863v-479h-550q-309 0-430-125-120-125-120-450v-309h947v-447h-947V0H697v3053H147v447h550v244q0 584 272 851 272 268 862 268z" transform="scale(.01563)"/><path id="DejaVuSans-33" d="M2597 2516q453-97 707-404 255-306 255-756 0-690-475-1069Q2609-91 1734-91q-293 0-604 58T488 141v609q262-153 574-231 313-78 654-78 593 0 904 234t311 681q0 413-289 645-289 233-804 233h-544v519h569q465 0 712 186t247 536q0 359-255 551-254 193-729 193-260 0-557-57-297-56-653-174v562q360 100 674 150t592 50q719 0 1137-327 419-326 419-882 0-388-222-655t-631-370" transform="scale(.01563)"/><path id="DejaVuSans-55" d="M556 4666h635V1831q0-750 271-1080 272-329 882-329 606 0 878 329 272 330 272 1080v2835h634V1753q0-912-452-1378Q3225-91 2344-91q-885 0-1337 466-451 466-451 1378z" transform="scale(.01563)"/><path id="DejaVuSans-4c" d="M628 4666h631V531h2272V0H628z" transform="scale(.01563)"/><path id="DejaVuSans-50" d="M1259 4147V2394h794q441 0 681 228 241 228 241 650 0 419-241 647-240 228-681 228zm-631 519h1425q785 0 1186-355 402-355 402-1039 0-691-402-1044-401-353-1186-353h-794V0H628z" transform="scale(.01563)"/><path id="DejaVuSans-29" d="M513 4856h500q468-737 701-1444 233-706 233-1403 0-700-233-1409T1013-844H513q415 716 620 1424t205 1429q0 722-205 1425-205 704-620 1422" transform="scale(.01563)"/></defs><use xlink:href="#DejaVuSans-65"/><use xlink:href="#DejaVuSans-72" x="61.523"/><use xlink:href="#DejaVuSans-72" x="100.887"/><use xlink:href="#DejaVuSans-6f" x="139.75"/><use xlink:href="#DejaVuSans-72" x="200.932"/><use xlink:href="#DejaVuSans-28" x="273.832"/><use xlink:href="#DejaVuSans-66" x="312.846"/><use xlink:href="#DejaVuSans-33" x="348.051"/><use xlink:href="#DejaVuSans-32" x="411.674"/><use xlink:href="#DejaVuSans-55" x="507.084"/><use xlink:href="#DejaVuSans-4c" x="580.277"/><use xlink:href="#DejaVuSans-50" x="635.99"/><use xlink:href="#DejaVuSans-29" x="696.293"/></g></g><path id="line2d_16" d="m92.29 66.96 45.092 9.596 45.09 16.237 45.092 20.5 45.09 23.685 45.091 26.236 45.091 28.368 45.091 30.201 45.091 31.81 45.091 33.241" clip-path="url(#p95f24bd40f)" style="fill:none;stroke:#1f77b4;stroke-width:1.5;stroke-linecap:square"/><path id="line2d_17" d="m92.29 66.96 45.092 9.596 45.09 16.237 45.092 20.5 45.09 23.664 45.091 25.52 45.091 9.686 45.091.206h90.182" clip-path="url(#p95f24bd40f)" style="fill:none;stroke:#ff7f0e;stroke-width:1.5;stroke-linecap:square"/><path id="line2d_18" d="m92.29 66.96 22.546 3.875 22.546 15.294 22.545 4.156 22.546 21.18 22.545 4.354 22.546 25.247 22.545 4.438 22.546 28.357 22.545 4.482 22.545 30.872 22.546 4.508 22.545 32.986 22.546 4.524 22.545 34.807 22.546 4.535 22.545 36.407 22.546 4.543 22.545 37.835" clip-path="url(#p95f24bd40f)" style="fill:none;stroke:#2ca02c;stroke-width:1.5;stroke-linecap:square"/><path id="line2d_19" d="m92.29 66.96 22.546 3.875 22.546 15.294 22.545 4.156 22.546 21.18 22.545 4.353 22.546 25.039 22.545 4.38 22.546 15.897 22.545.125L317.745 160l22.546.812 22.545 2.55 22.546-2.96 22.545.848 22.546 1.017 22.545-1.017 22.546.556 22.545-.664" clip-path="url(#p95f24bd40f)" style="fill:none;stroke:#d62728;stroke-width:1.5;stroke-linecap:square"/><path id="patch_3" d="M72 384.48V51.84" style="fill:none;stroke:#000;stroke-width:.8;stroke-linejoin:miter;stroke-linecap:square"/><path id="patch_4" d="M518.4 384.48V51.84" style="fill:none;stroke:#000;stroke-width:.8;stroke-linejoin:miter;stroke-linecap:square"/><path id="patch_5" d="M72 384.48h446.4" style="fill:none;stroke:#000;stroke-width:.8;stroke-linejoin:miter;stroke-linecap:square"/><path id="patch_6" d="M72 51.84h446.4" style="fill:none;stroke:#000;stroke-width:.8;stroke-linejoin:miter;stroke-linecap:square"/><g id="legend_1"><path id="patch_7" d="M337.034 118.553H511.4q2 0 2-2V58.84q0-2-2-2H337.034q-2 0-2 2v57.712q0 2 2 2z" style="fill:#fff;opacity:.8;stroke:#ccc;stroke-linejoin:miter"/><path id="line2d_20" d="M339.034 64.938h20" style="fill:none;stroke:#1f77b4;stroke-width:1.5;stroke-linecap:square"/><g id="text_18" transform="matrix(.1 0 0 -.1 367.034 68.438)"><defs><path id="DejaVuSans-54" d="M-19 4666h3947v-532H2272V0h-634v4134H-19z" transform="scale(.01563)"/><path id="DejaVuSans-61" d="M2194 1759q-697 0-966-159t-269-544q0-306 202-486 202-179 548-179 479 0 768 339t289 901v128zm1147 238V0h-575v531q-197-318-491-470T1556-91q-537 0-855 302-317 302-317 808 0 590 395 890 396 300 1180 300h807v57q0 397-261 614t-733 217q-300 0-585-72-284-72-546-216v532q315 122 612 182 297 61 578 61 760 0 1135-394 375-393 375-1193" transform="scale(.01563)"/><path id="DejaVuSans-79" d="M2059-325q-243-625-475-815-231-191-618-191H506v481h338q237 0 368 113 132 112 291 531l103 262L191 3500h609L1894 763l1094 2737h609z" transform="scale(.01563)"/><path id="DejaVuSans-6c" d="M603 4863h575V0H603z" transform="scale(.01563)"/><path id="DejaVuSans-74" d="M1172 4494v-994h1184v-447H1172V1153q0-428 117-550t477-122h590V0h-590q-666 0-919 248-253 249-253 905v1900H172v447h422v994z" transform="scale(.01563)"/><path id="DejaVuSans-68" d="M3513 2113V0h-575v2094q0 497-194 743-194 247-581 247-466 0-735-297-269-296-269-809V0H581v4863h578V2956q207 316 486 472 280 156 646 156 603 0 912-373 310-373 310-1098" transform="scale(.01563)"/><path id="DejaVuSans-69" d="M603 3500h575V0H603zm0 1363h575v-729H603z" transform="scale(.01563)"/><path id="DejaVuSans-63" d="M3122 3366v-538q-244 135-489 202t-495 67q-560 0-870-355-309-354-309-995t309-996q310-354 870-354 250 0 495 67t489 202V134Q2881 22 2623-34q-257-57-548-57-791 0-1257 497-465 497-465 1341 0 856 470 1346 471 491 1290 491 265 0 518-55 253-54 491-163" transform="scale(.01563)"/></defs><use xlink:href="#DejaVuSans-54"/><use xlink:href="#DejaVuSans-61" x="44.584"/><use xlink:href="#DejaVuSans-79" x="105.863"/><use xlink:href="#DejaVuSans-6c" x="165.043"/><use xlink:href="#DejaVuSans-6f" x="192.826"/><use xlink:href="#DejaVuSans-72" x="254.008"/><use xlink:href="#DejaVuSans-74" x="326.908"/><use xlink:href="#DejaVuSans-68" x="366.117"/><use xlink:href="#DejaVuSans-65" x="429.496"/><use xlink:href="#DejaVuSans-6f" x="491.02"/><use xlink:href="#DejaVuSans-72" x="552.201"/><use xlink:href="#DejaVuSans-65" x="591.064"/><use xlink:href="#DejaVuSans-74" x="652.588"/><use xlink:href="#DejaVuSans-69" x="691.797"/><use xlink:href="#DejaVuSans-63" x="719.58"/><use xlink:href="#DejaVuSans-61" x="774.561"/><use xlink:href="#DejaVuSans-6c" x="835.84"/><use xlink:href="#DejaVuSans-65" x="895.41"/><use xlink:href="#DejaVuSans-72" x="956.934"/><use xlink:href="#DejaVuSans-72" x="996.297"/><use xlink:href="#DejaVuSans-6f" x="1035.16"/><use xlink:href="#DejaVuSans-72" x="1096.342"/></g><path id="line2d_21" d="M339.034 79.617h20" style="fill:none;stroke:#ff7f0e;stroke-width:1.5;stroke-linecap:square"/><g id="text_19" transform="matrix(.1 0 0 -.1 367.034 83.117)"><defs><path id="DejaVuSans-62" d="M3116 1747q0 634-261 995t-717 361q-457 0-718-361t-261-995 261-995 718-361q456 0 717 361t261 995M1159 2969q182 312 458 463 277 152 661 152 638 0 1036-506 399-506 399-1331T3314 415Q2916-91 2278-91q-384 0-661 152-276 152-458 464V0H581v4863h578z" transform="scale(.01563)"/><path id="DejaVuSans-6e" d="M3513 2113V0h-575v2094q0 497-194 743-194 247-581 247-466 0-735-297-269-296-269-809V0H581v3500h578v-544q207 316 486 472 280 156 646 156 603 0 912-373 310-373 310-1098" transform="scale(.01563)"/><path id="DejaVuSans-6d" d="M3328 2828q216 388 516 572t706 184q547 0 844-383 297-382 297-1088V0h-578v2094q0 503-179 746-178 244-543 244-447 0-707-297-259-296-259-809V0h-578v2094q0 506-178 748t-550 242q-441 0-701-298-259-298-259-808V0H581v3500h578v-544q197 322 472 475t653 153q382 0 649-194 267-193 395-562" transform="scale(.01563)"/><path id="DejaVuSans-6b" d="M581 4863h578V1991l1716 1509h734L1753 1863 3688 0h-750L1159 1709V0H581z" transform="scale(.01563)"/></defs><use xlink:href="#DejaVuSans-54"/><use xlink:href="#DejaVuSans-61" x="44.584"/><use xlink:href="#DejaVuSans-79" x="105.863"/><use xlink:href="#DejaVuSans-6c" x="165.043"/><use xlink:href="#DejaVuSans-6f" x="192.826"/><use xlink:href="#DejaVuSans-72" x="254.008"/><use xlink:href="#DejaVuSans-62" x="326.908"/><use xlink:href="#DejaVuSans-65" x="390.385"/><use xlink:href="#DejaVuSans-6e" x="451.908"/><use xlink:href="#DejaVuSans-63" x="515.287"/><use xlink:href="#DejaVuSans-68" x="570.268"/><use xlink:href="#DejaVuSans-6d" x="633.646"/><use xlink:href="#DejaVuSans-61" x="731.059"/><use xlink:href="#DejaVuSans-72" x="792.338"/><use xlink:href="#DejaVuSans-6b" x="833.451"/><use xlink:href="#DejaVuSans-65" x="923.148"/><use xlink:href="#DejaVuSans-72" x="984.672"/><use xlink:href="#DejaVuSans-72" x="1024.035"/><use xlink:href="#DejaVuSans-6f" x="1062.898"/><use xlink:href="#DejaVuSans-72" x="1124.08"/></g><path id="line2d_22" d="M339.034 94.295h20" style="fill:none;stroke:#2ca02c;stroke-width:1.5;stroke-linecap:square"/><g id="text_20" transform="matrix(.1 0 0 -.1 367.034 97.795)"><defs><path id="DejaVuSans-43" d="M4122 4306v-665q-319 297-680 443-361 147-767 147-800 0-1225-489t-425-1414q0-922 425-1411t1225-489q406 0 767 147t680 444V359q-331-225-702-338-370-112-782-112-1060 0-1670 648-609 649-609 1771 0 1125 609 1773 610 649 1670 649 418 0 788-111 371-111 696-333" transform="scale(.01563)"/><path id="DejaVuSans-73" d="M2834 3397v-544q-243 125-506 187-262 63-544 63-428 0-642-131t-214-394q0-200 153-314t616-217l197-44q612-131 870-370t258-667q0-488-386-773Q2250-91 1575-91q-281 0-586 55T347 128v594q319-166 628-249 309-82 613-82 406 0 624 139 219 139 219 392 0 234-158 359-157 125-692 241l-200 47q-534 112-772 345-237 233-237 639 0 494 350 762 350 269 994 269 318 0 599-47 282-46 519-140" transform="scale(.01563)"/><path id="DejaVuSans-76" d="M191 3500h609L1894 563l1094 2937h609L2284 0h-781z" transform="scale(.01563)"/></defs><use xlink:href="#DejaVuSans-43"/><use xlink:href="#DejaVuSans-68" x="69.824"/><use xlink:href="#DejaVuSans-65" x="133.203"/><use xlink:href="#DejaVuSans-62" x="194.727"/><use xlink:href="#DejaVuSans-79" x="258.203"/><use xlink:href="#DejaVuSans-73" x="317.383"/><use xlink:href="#DejaVuSans-68" x="369.482"/><use xlink:href="#DejaVuSans-65" x="432.861"/><use xlink:href="#DejaVuSans-76" x="494.385"/><use xlink:href="#DejaVuSans-74" x="585.352"/><use xlink:href="#DejaVuSans-68" x="624.561"/><use xlink:href="#DejaVuSans-65" x="687.939"/><use xlink:href="#DejaVuSans-6f" x="749.463"/><use xlink:href="#DejaVuSans-72" x="810.645"/><use xlink:href="#DejaVuSans-65" x="849.508"/><use xlink:href="#DejaVuSans-74" x="911.031"/><use xlink:href="#DejaVuSans-69" x="950.24"/><use xlink:href="#DejaVuSans-63" x="978.023"/><use xlink:href="#DejaVuSans-61" x="1033.004"/><use xlink:href="#DejaVuSans-6c" x="1094.283"/><use xlink:href="#DejaVuSans-65" x="1153.854"/><use xlink:href="#DejaVuSans-72" x="1215.377"/><use xlink:href="#DejaVuSans-72" x="1254.74"/><use xlink:href="#DejaVuSans-6f" x="1293.604"/><use xlink:href="#DejaVuSans-72" x="1354.785"/></g><path id="line2d_23" d="M339.034 108.973h20" style="fill:none;stroke:#d62728;stroke-width:1.5;stroke-linecap:square"/><g id="text_21" transform="matrix(.1 0 0 -.1 367.034 112.473)"><use xlink:href="#DejaVuSans-43"/><use xlink:href="#DejaVuSans-68" x="69.824"/><use xlink:href="#DejaVuSans-65" x="133.203"/><use xlink:href="#DejaVuSans-62" x="194.727"/><use xlink:href="#DejaVuSans-79" x="258.203"/><use xlink:href="#DejaVuSans-73" x="317.383"/><use xlink:href="#DejaVuSans-68" x="369.482"/><use xlink:href="#DejaVuSans-65" x="432.861"/><use xlink:href="#DejaVuSans-76" x="494.385"/><use xlink:href="#DejaVuSans-62" x="585.352"/><use xlink:href="#DejaVuSans-65" x="648.828"/><use xlink:href="#DejaVuSans-6e" x="710.352"/><use xlink:href="#DejaVuSans-63" x="773.73"/><use xlink:href="#DejaVuSans-68" x="828.711"/><use xlink:href="#DejaVuSans-6d" x="892.09"/><use xlink:href="#DejaVuSans-61" x="989.502"/><use xlink:href="#DejaVuSans-72" x="1050.781"/><use xlink:href="#DejaVuSans-6b" x="1091.895"/><use xlink:href="#DejaVuSans-65" x="1181.592"/><use xlink:href="#DejaVuSans-72" x="1243.115"/><use xlink:href="#DejaVuSans-72" x="1282.479"/><use xlink:href="#DejaVuSans-6f" x="1321.342"/><use xlink:href="#DejaVuSans-72" x="1382.523"/></g></g></g></g><defs><clipPath id="p95f24bd40f"><path d="M72 51.84h446.4v332.64H72z"/></clipPath></defs></svg>