<svg xmlns="http://www.w3.org/2000/svg" xmlns:xlink="http://www.w3.org/1999/xlink" width="1344" height="576" viewBox="0 0 1008 432"><defs><style>*{stroke-linejoin:round;stroke-linecap:butt}</style></defs><g id="figure_1"><path id="patch_1" d="M0 432h1008V0H0z" style="fill:#fff"/><g id="axes_1"><path id="patch_2" d="M126 384.48h355.09V51.84H126z" style="fill:#fff"/><g id="PathCollection_1"><defs><path id="m5ae92d5f9c" d="M0 3a3 3 0 1 0 0-6 3 3 0 0 0 0 6z" style="stroke:red"/></defs><g clip-path="url(#pb6dd89ce31)"><use xlink:href="#m5ae92d5f9c" x="142.14" y="66.96" style="fill:red;stroke:red"/><use xlink:href="#m5ae92d5f9c" x="143.406" y="219.351" style="fill:red;stroke:red"/><use xlink:href="#m5ae92d5f9c" x="145.938" y="295.546" style="fill:red;stroke:red"/><use xlink:href="#m5ae92d5f9c" x="151.002" y="333.643" style="fill:red;stroke:red"/><use xlink:href="#m5ae92d5f9c" x="161.129" y="352.691" style="fill:red;stroke:red"/><use xlink:href="#m5ae92d5f9c" x="181.384" y="362.213" style="fill:red;stroke:red"/><use xlink:href="#m5ae92d5f9c" x="221.894" y="366.968" style="fill:red;stroke:red"/><use xlink:href="#m5ae92d5f9c" x="302.912" y="369.36" style="fill:red;stroke:red"/><use xlink:href="#m5ae92d5f9c" x="464.95" y="369.36" style="fill:red;stroke:red"/></g></g><g id="PathCollection_2" clip-path="url(#pb6dd89ce31)"><use xlink:href="#m5ae92d5f9c" x="142.14" y="219.351" style="fill:red;stroke:red"/><use xlink:href="#m5ae92d5f9c" x="143.406" y="295.546" style="fill:red;stroke:red"/><use xlink:href="#m5ae92d5f9c" x="145.938" y="333.643" style="fill:red;stroke:red"/><use xlink:href="#m5ae92d5f9c" x="151.002" y="352.691" style="fill:red;stroke:red"/><use xlink:href="#m5ae92d5f9c" x="161.129" y="362.213" style="fill:red;stroke:red"/><use xlink:href="#m5ae92d5f9c" x="181.384" y="366.968" style="fill:red;stroke:red"/><use xlink:href="#m5ae92d5f9c" x="221.894" y="369.36" style="fill:red;stroke:red"/><use xlink:href="#m5ae92d5f9c" x="302.912" y="369.36" style="fill:red;stroke:red"/><use xlink:href="#m5ae92d5f9c" x="464.95" y="369.36" style="fill:red;stroke:red"/></g><g id="matplotlib.axis_1"><g id="xtick_1"><g id="line2d_1"><defs><path id="mc1ae4218a9" d="M0 0v3.5" style="stroke:#000;stroke-width:.8"/></defs><use xlink:href="#mc1ae4218a9" x="140.875" y="384.48" style="stroke:#000;stroke-width:.8"/></g><g id="text_1" transform="matrix(.1 0 0 -.1 129.742 399.078)"><defs><path id="DejaVuSans-30" d="M2034 4250q-487 0-733-480-245-479-245-1442 0-959 245-1439 246-480 733-480 491 0 736 480 246 480 246 1439 0 963-246 1442-245 480-736 480m0 500q785 0 1199-621 414-620 414-1801 0-1178-414-1799Q2819-91 2034-91q-784 0-1198 620-414 621-414 1799 0 1181 414 1801 414 621 1198 621" transform="scale(.01563)"/><path id="DejaVuSans-2e" d="M684 794h660V0H684z" transform="scale(.01563)"/></defs><use xlink:href="#DejaVuSans-30"/><use xlink:href="#DejaVuSans-2e" x="63.623"/><use xlink:href="#DejaVuSans-30" x="95.41"/><use xlink:href="#DejaVuSans-30" x="159.033"/></g></g><g id="xtick_2"><use xlink:href="#mc1ae4218a9" id="line2d_2" x="189.166" y="384.48" style="stroke:#000;stroke-width:.8"/><g id="text_2" transform="matrix(.1 0 0 -.1 178.033 399.078)"><defs><path id="DejaVuSans-32" d="M1228 531h2203V0H469v531q359 372 979 998 621 627 780 809 303 340 423 576 121 236 121 464 0 372-261 606-261 235-680 235-297 0-627-103-329-103-704-313v638q381 153 712 231 332 78 607 78 725 0 1156-363 431-362 431-968 0-288-108-546-107-257-392-607-78-91-497-524-418-433-1181-1211" transform="scale(.01563)"/><path id="DejaVuSans-35" d="M691 4666h2478v-532H1269V2991q137 47 274 70 138 23 276 23 781 0 1237-428 457-428 457-1159 0-753-469-1171Q2575-91 1722-91q-294 0-599 50Q819 9 494 109v635q281-153 581-228t634-75q541 0 856 284 316 284 316 772 0 487-316 771-315 285-856 285-253 0-505-56-251-56-513-175z" transform="scale(.01563)"/></defs><use xlink:href="#DejaVuSans-30"/><use xlink:href="#DejaVuSans-2e" x="63.623"/><use xlink:href="#DejaVuSans-32" x="95.41"/><use xlink:href="#DejaVuSans-35" x="159.033"/></g></g><g id="xtick_3"><use xlink:href="#mc1ae4218a9" id="line2d_3" x="237.457" y="384.48" style="stroke:#000;stroke-width:.8"/><g id="text_3" transform="matrix(.1 0 0 -.1 226.324 399.078)"><use xlink:href="#DejaVuSans-30"/><use xlink:href="#DejaVuSans-2e" x="63.623"/><use xlink:href="#DejaVuSans-35" x="95.41"/><use xlink:href="#DejaVuSans-30" x="159.033"/></g></g><g id="xtick_4"><use xlink:href="#mc1ae4218a9" id="line2d_4" x="285.748" y="384.48" style="stroke:#000;stroke-width:.8"/><g id="text_4" transform="matrix(.1 0 0 -.1 274.615 399.078)"><defs><path id="DejaVuSans-37" d="M525 4666h3000v-269L1831 0h-659l1594 4134H525z" transform="scale(.01563)"/></defs><use xlink:href="#DejaVuSans-30"/><use xlink:href="#DejaVuSans-2e" x="63.623"/><use xlink:href="#DejaVuSans-37" x="95.41"/><use xlink:href="#DejaVuSans-35" x="159.033"/></g></g><g id="xtick_5"><use xlink:href="#mc1ae4218a9" id="line2d_5" x="334.039" y="384.48" style="stroke:#000;stroke-width:.8"/><g id="text_5" transform="matrix(.1 0 0 -.1 322.906 399.078)"><defs><path id="DejaVuSans-31" d="M794 531h1031v3560L703 3866v575l1116 225h631V531h1031V0H794z" transform="scale(.01563)"/></defs><use xlink:href="#DejaVuSans-31"/><use xlink:href="#DejaVuSans-2e" x="63.623"/><use xlink:href="#DejaVuSans-30" x="95.41"/><use xlink:href="#DejaVuSans-30" x="159.033"/></g></g><g id="xtick_6"><use xlink:href="#mc1ae4218a9" id="line2d_6" x="382.33" y="384.48" style="stroke:#000;stroke-width:.8"/><g id="text_6" transform="matrix(.1 0 0 -.1 371.197 399.078)"><use xlink:href="#DejaVuSans-31"/><use xlink:href="#DejaVuSans-2e" x="63.623"/><use xlink:href="#DejaVuSans-32" x="95.41"/><use xlink:href="#DejaVuSans-35" x="159.033"/></g></g><g id="xtick_7"><use xlink:href="#mc1ae4218a9" id="line2d_7" x="430.621" y="384.48" style="stroke:#000;stroke-width:.8"/><g id="text_7" transform="matrix(.1 0 0 -.1 419.488 399.078)"><use xlink:href="#DejaVuSans-31"/><use xlink:href="#DejaVuSans-2e" x="63.623"/><use xlink:href="#DejaVuSans-35" x="95.41"/><use xlink:href="#DejaVuSans-30" x="159.033"/></g></g><g id="xtick_8"><use xlink:href="#mc1ae4218a9" id="line2d_8" x="478.912" y="384.48" style="stroke:#000;stroke-width:.8"/><g id="text_8" transform="matrix(.1 0 0 -.1 467.78 399.078)"><use xlink:href="#DejaVuSans-31"/><use xlink:href="#DejaVuSans-2e" x="63.623"/><use xlink:href="#DejaVuSans-37" x="95.41"/><use xlink:href="#DejaVuSans-35" x="159.033"/></g></g><g id="text_9" transform="matrix(.1 0 0 -.1 279.598 412.757)"><defs><path id="DejaVuSans-74" d="M1172 4494v-994h1184v-447H1172V1153q0-428 117-550t477-122h590V0h-590q-666 0-919 248-253 249-253 905v1900H172v447h422v994z" transform="scale(.01563)"/><path id="DejaVuSans-61" d="M2194 1759q-697 0-966-159t-269-544q0-306 202-486 202-179 548-179 479 0 768 339t289 901v128zm1147 238V0h-575v531q-197-318-491-470T1556-91q-537 0-855 302-317 302-317 808 0 590 395 890 396 300 1180 300h807v57q0 397-261 614t-733 217q-300 0-585-72-284-72-546-216v532q315 122 612 182 297 61 578 61 760 0 1135-394 375-393 375-1193" transform="scale(.01563)"/><path id="DejaVuSans-62" d="M3116 1747q0 634-261 995t-717 361q-457 0-718-361t-261-995 261-995 718-361q456 0 717 361t261 995M1159 2969q182 312 458 463 277 152 661 152 638 0 1036-506 399-506 399-1331T3314 415Q2916-91 2278-91q-384 0-661 152-276 152-458 464V0H581v4863h578z" transform="scale(.01563)"/><path id="DejaVuSans-6c" d="M603 4863h575V0H603z" transform="scale(.01563)"/><path id="DejaVuSans-65" d="M3597 1894v-281H953q38-594 358-905t892-311q331 0 642 81t618 244V178Q3153 47 2828-22t-659-69q-838 0-1327 487-489 488-489 1320 0 859 464 1363 464 505 1252 505 706 0 1117-455 411-454 411-1235m-575 169q-6 471-264 752-258 282-683 282-481 0-770-272t-333-766z" transform="scale(.01563)"/><path id="DejaVuSans-73" d="M2834 3397v-544q-243 125-506 187-262 63-544 63-428 0-642-131t-214-394q0-200 153-314t616-217l197-44q612-131 870-370t258-667q0-488-386-773Q2250-91 1575-91q-281 0-586 55T347 128v594q319-166 628-249 309-82 613-82 406 0 624 139 219 139 219 392 0 234-158 359-157 125-692 241l-200 47q-534 112-772 345-237 233-237 639 0 494 350 762 350 269 994 269 318 0 599-47 282-46 519-140" transform="scale(.01563)"/><path id="DejaVuSans-69" d="M603 3500h575V0H603zm0 1363h575v-729H603z" transform="scale(.01563)"/><path id="DejaVuSans-7a" d="M353 3500h2731v-525L922 459h2162V0H275v525l2163 2516H353z" transform="scale(.01563)"/></defs><use xlink:href="#DejaVuSans-74"/><use xlink:href="#DejaVuSans-61" x="39.209"/><use xlink:href="#DejaVuSans-62" x="100.488"/><use xlink:href="#DejaVuSans-6c" x="163.965"/><use xlink:href="#DejaVuSans-65" x="191.748"/><use xlink:href="#DejaVuSans-73" x="285.059"/><use xlink:href="#DejaVuSans-69" x="337.158"/><use xlink:href="#DejaVuSans-7a" x="364.941"/><use xlink:href="#DejaVuSans-65" x="417.432"/></g><g id="text_10" transform="matrix(.1 0 0 -.1 462.213 411.757)"><use xlink:href="#DejaVuSans-31"/><use xlink:href="#DejaVuSans-65" x="63.623"/><use xlink:href="#DejaVuSans-37" x="125.146"/></g></g><g id="matplotlib.axis_2"><g id="ytick_1"><g id="line2d_9"><defs><path id="mf47adb6be6" d="M0 0h-3.5" style="stroke:#000;stroke-width:.8"/></defs><use xlink:href="#mf47adb6be6" x="126" y="369.36" style="stroke:#000;stroke-width:.8"/></g><use xlink:href="#DejaVuSans-30" id="text_11" transform="matrix(.1 0 0 -.1 112.638 373.16)"/></g><g id="ytick_2"><use xlink:href="#mf47adb6be6" id="line2d_10" x="126" y="331.464" style="stroke:#000;stroke-width:.8"/><g id="text_12" transform="matrix(.1 0 0 -.1 99.912 335.263)"><use xlink:href="#DejaVuSans-31"/><use xlink:href="#DejaVuSans-30" x="63.623"/><use xlink:href="#DejaVuSans-30" x="127.246"/></g></g><g id="ytick_3"><use xlink:href="#mf47adb6be6" id="line2d_11" x="126" y="293.567" style="stroke:#000;stroke-width:.8"/><g id="text_13" transform="matrix(.1 0 0 -.1 99.912 297.366)"><use xlink:href="#DejaVuSans-32"/><use xlink:href="#DejaVuSans-30" x="63.623"/><use xlink:href="#DejaVuSans-30" x="127.246"/></g></g><g id="ytick_4"><use xlink:href="#mf47adb6be6" id="line2d_12" x="126" y="255.671" style="stroke:#000;stroke-width:.8"/><g id="text_14" transform="matrix(.1 0 0 -.1 99.912 259.47)"><defs><path id="DejaVuSans-33" d="M2597 2516q453-97 707-404 255-306 255-756 0-690-475-1069Q2609-91 1734-91q-293 0-604 58T488 141v609q262-153 574-231 313-78 654-78 593 0 904 234t311 681q0 413-289 645-289 233-804 233h-544v519h569q465 0 712 186t247 536q0 359-255 551-254 193-729 193-260 0-557-57-297-56-653-174v562q360 100 674 150t592 50q719 0 1137-327 419-326 419-882 0-388-222-655t-631-370" transform="scale(.01563)"/></defs><use xlink:href="#DejaVuSans-33"/><use xlink:href="#DejaVuSans-30" x="63.623"/><use xlink:href="#DejaVuSans-30" x="127.246"/></g></g><g id="ytick_5"><use xlink:href="#mf47adb6be6" id="line2d_13" x="126" y="217.774" style="stroke:#000;stroke-width:.8"/><g id="text_15" transform="matrix(.1 0 0 -.1 99.912 221.574)"><defs><path id="DejaVuSans-34" d="M2419 4116 825 1625h1594zm-166 550h794V1625h666v-525h-666V0h-628v1100H313v609z" transform="scale(.01563)"/></defs><use xlink:href="#DejaVuSans-34"/><use xlink:href="#DejaVuSans-30" x="63.623"/><use xlink:href="#DejaVuSans-30" x="127.246"/></g></g><g id="ytick_6"><use xlink:href="#mf47adb6be6" id="line2d_14" x="126" y="179.878" style="stroke:#000;stroke-width:.8"/><g id="text_16" transform="matrix(.1 0 0 -.1 99.912 183.677)"><use xlink:href="#DejaVuSans-35"/><use xlink:href="#DejaVuSans-30" x="63.623"/><use xlink:href="#DejaVuSans-30" x="127.246"/></g></g><g id="ytick_7"><use xlink:href="#mf47adb6be6" id="line2d_15" x="126" y="141.981" style="stroke:#000;stroke-width:.8"/><g id="text_17" transform="matrix(.1 0 0 -.1 99.912 145.78)"><defs><path id="DejaVuSans-36" d="M2113 2584q-425 0-674-291-248-290-248-796 0-503 248-796 249-292 674-292t673 292q248 293 248 796 0 506-248 796-248 291-673 291m1253 1979v-575q-238 112-480 171-242 60-480 60-625 0-955-422-329-422-376-1275 184 272 462 417 279 145 613 145 703 0 1111-427 408-426 408-1160 0-719-425-1154Q2819-91 2113-91q-810 0-1238 620-428 621-428 1799 0 1106 525 1764t1409 658q238 0 480-47t505-140" transform="scale(.01563)"/></defs><use xlink:href="#DejaVuSans-36"/><use xlink:href="#DejaVuSans-30" x="63.623"/><use xlink:href="#DejaVuSans-30" x="127.246"/></g></g><g id="ytick_8"><use xlink:href="#mf47adb6be6" id="line2d_16" x="126" y="104.085" style="stroke:#000;stroke-width:.8"/><g id="text_18" transform="matrix(.1 0 0 -.1 99.912 107.884)"><use xlink:href="#DejaVuSans-37"/><use xlink:href="#DejaVuSans-30" x="63.623"/><use xlink:href="#DejaVuSans-30" x="127.246"/></g></g><g id="ytick_9"><use xlink:href="#mf47adb6be6" id="line2d_17" x="126" y="66.189" style="stroke:#000;stroke-width:.8"/><g id="text_19" transform="matrix(.1 0 0 -.1 99.912 69.988)"><defs><path id="DejaVuSans-38" d="M2034 2216q-450 0-708-241-257-241-257-662 0-422 257-663 258-241 708-241t709 242q260 243 260 662 0 421-258 662-257 241-711 241m-631 268q-406 100-633 378-226 279-226 679 0 559 398 884 399 325 1092 325 697 0 1094-325t397-884q0-400-227-679-226-278-629-378 456-106 710-416 255-309 255-755 0-679-414-1042Q2806-91 2034-91q-771 0-1186 362-414 363-414 1042 0 446 256 755 257 310 713 416m-231 997q0-362 226-565 227-203 636-203 407 0 636 203 230 203 230 565 0 363-230 566-229 203-636 203-409 0-636-203-226-203-226-566" transform="scale(.01563)"/></defs><use xlink:href="#DejaVuSans-38"/><use xlink:href="#DejaVuSans-30" x="63.623"/><use xlink:href="#DejaVuSans-30" x="127.246"/></g></g><g id="text_20" transform="matrix(0 -.1 -.1 0 93.833 281.706)"><defs><path id="DejaVuSans-6d" d="M3328 2828q216 388 516 572t706 184q547 0 844-383 297-382 297-1088V0h-578v2094q0 503-179 746-178 244-543 244-447 0-707-297-259-296-259-809V0h-578v2094q0 506-178 748t-550 242q-441 0-701-298-259-298-259-808V0H581v3500h578v-544q197 322 472 475t653 153q382 0 649-194 267-193 395-562" transform="scale(.01563)"/><path id="DejaVuSans-78" d="M3513 3500 2247 1797 3578 0h-678L1881 1375 863 0H184l1360 1831L300 3500h678l928-1247 928 1247z" transform="scale(.01563)"/><path id="DejaVuSans-75" d="M544 1381v2119h575V1403q0-497 193-746 194-248 582-248 465 0 735 297 271 297 271 810v1984h575V0h-575v538q-209-319-486-474-276-155-642-155-603 0-916 375-312 375-312 1097m1447 2203" transform="scale(.01563)"/><path id="DejaVuSans-72" d="M2631 2963q-97 56-211 82-114 27-251 27-488 0-749-317t-261-911V0H581v3500h578v-544q182 319 472 473 291 155 707 155 59 0 131-8 72-7 159-23z" transform="scale(.01563)"/><path id="DejaVuSans-6f" d="M1959 3097q-462 0-731-361t-269-989 267-989q268-361 733-361 460 0 728 362 269 363 269 988 0 622-269 986-268 364-728 364m0 487q750 0 1178-488 429-487 429-1349 0-859-429-1349Q2709-91 1959-91q-753 0-1180 489-426 490-426 1349 0 862 426 1349 427 488 1180 488" transform="scale(.01563)"/><path id="DejaVuSans-28" d="M1984 4856q-418-718-622-1422-203-703-203-1425 0-721 205-1429t620-1424h-500Q1016-109 783 600T550 2009q0 697 231 1403 232 707 703 1444z" transform="scale(.01563)"/><path id="DejaVuSans-66" d="M2375 4863v-479h-550q-309 0-430-125-120-125-120-450v-309h947v-447h-947V0H697v3053H147v447h550v244q0 584 272 851 272 268 862 268z" transform="scale(.01563)"/><path id="DejaVuSans-55" d="M556 4666h635V1831q0-750 271-1080 272-329 882-329 606 0 878 329 272 330 272 1080v2835h634V1753q0-912-452-1378Q3225-91 2344-91q-885 0-1337 466-451 466-451 1378z" transform="scale(.01563)"/><path id="DejaVuSans-4c" d="M628 4666h631V531h2272V0H628z" transform="scale(.01563)"/><path id="DejaVuSans-50" d="M1259 4147V2394h794q441 0 681 228 241 228 241 650 0 419-241 647-240 228-681 228zm-631 519h1425q785 0 1186-355 402-355 402-1039 0-691-402-1044-401-353-1186-353h-794V0H628z" transform="scale(.01563)"/><path id="DejaVuSans-29" d="M513 4856h500q468-737 701-1444 233-706 233-1403 0-700-233-1409T1013-844H513q415 716 620 1424t205 1429q0 722-205 1425-205 704-620 1422" transform="scale(.01563)"/></defs><use xlink:href="#DejaVuSans-6d"/><use xlink:href="#DejaVuSans-61" x="97.412"/><use xlink:href="#DejaVuSans-78" x="158.691"/><use xlink:href="#DejaVuSans-69" x="217.871"/><use xlink:href="#DejaVuSans-6d" x="245.654"/><use xlink:href="#DejaVuSans-75" x="343.066"/><use xlink:href="#DejaVuSans-6d" x="406.445"/><use xlink:href="#DejaVuSans-65" x="535.645"/><use xlink:href="#DejaVuSans-72" x="597.168"/><use xlink:href="#DejaVuSans-72" x="636.531"/><use xlink:href="#DejaVuSans-6f" x="675.395"/><use xlink:href="#DejaVuSans-72" x="736.576"/><use xlink:href="#DejaVuSans-28" x="809.477"/><use xlink:href="#DejaVuSans-66" x="848.49"/><use xlink:href="#DejaVuSans-33" x="883.695"/><use xlink:href="#DejaVuSans-32" x="947.318"/><use xlink:href="#DejaVuSans-55" x="1042.729"/><use xlink:href="#DejaVuSans-4c" x="1115.922"/><use xlink:href="#DejaVuSans-50" x="1171.635"/><use xlink:href="#DejaVuSans-29" x="1231.938"/></g></g><path id="line2d_18" d="m142.14 66.96 1.266 152.39 1.266 48.813 1.266 27.383 1.266 13.095 1.266 10.715 1.266 5.953 1.266 8.334 1.266 1.19 1.266 3.572 1.266 2.382 1.266 3.57 1.266 1.19 1.265 2.382 1.266 1.19 1.266 3.572 1.266-1.19 1.266 1.19h1.266l1.266 1.19h1.266l1.266 1.19h1.266l1.266 2.381 1.266-1.19 1.266 1.19h1.265l1.266 1.19h3.798l1.266 3.571 1.266-2.38h2.532l1.266 1.19h3.798l1.265 1.184 1.266-1.184 1.266 1.19h6.33l1.266 1.19 1.266-1.19h1.266l1.266 1.19h15.19l1.267 3.565 1.265-2.375h17.723l1.266 1.19 1.266-1.19h2.532l1.266 1.19h13.925l1.266 1.185 1.266-1.184h17.723l1.266 1.184 1.266-1.184h7.595l1.266 1.184 1.266-1.184h2.532l1.266 1.184 1.266-1.184 1.266 1.184h1.266l1.265 2.392 1.266-2.392h78.488l1.265 1.16 1.266-1.16h37.978l1.266 1.16 1.266-1.16h17.723l1.266 1.16 1.266-1.16h7.595l1.266 1.16 1.266-1.16h2.532l1.266 1.16 1.266-1.154 1.266 1.154h1.265l1.266 1.232h0" clip-path="url(#pb6dd89ce31)" style="fill:none;stroke:#1f77b4;stroke-width:1.5;stroke-linecap:square"/><path id="line2d_19" d="m142.14 219.35 1.266 76.196 1.266 23.81 1.266 14.287 2.532 10.714 1.266 3.572 1.266 4.762h1.266l1.266 1.786 1.266 1.19 1.266 1.785h1.266l1.265 1.19 1.266.593 1.266 2.978 1.266-1.782 1.266.592h1.266l1.266 1.184 2.532.006 2.532 1.19 1.266-.592 1.266.592h1.265l1.266.592h3.798l1.266 2.973 1.266-2.375h2.532l1.266.598h3.798l1.265.593 1.266-.593 1.266.593h6.33l1.266 1.184 1.266-1.184 1.266.592h6.33l1.265.592 1.266-.592h2.532l1.266.592 1.266-.592 1.266.592h1.266l1.266 2.392 1.265-2.392h17.723l1.266.592 1.266-.592h2.532l1.266.592h13.925l1.266.568 1.266-.568h17.723l1.266.568 1.266-.568h7.595l1.266.568 1.266-.568h2.532l1.266.568 1.266-.568 1.266.568h1.266l1.265 1.232 1.266-1.232h37.978l1.266.569 1.266-.569h37.978l1.265 1.232 1.266-1.232h17.723l1.266.569 1.266-.569h17.723l1.266.569 1.266-.569h7.595l1.266.569 1.266-.569 6.33.024h1.266l1.266.545 1.266-.545h2.531l1.266.545 1.266-.545h2.532l1.266.545 1.266-.533 1.266.533 1.266-.533 1.266.533h3.797l1.266.663h0" clip-path="url(#pb6dd89ce31)" style="fill:none;stroke:#ff7f0e;stroke-width:1.5;stroke-linecap:square"/><path id="patch_3" d="M126 384.48V51.84" style="fill:none;stroke:#000;stroke-width:.8;stroke-linejoin:miter;stroke-linecap:square"/><path id="patch_4" d="M481.09 384.48V51.84" style="fill:none;stroke:#000;stroke-width:.8;stroke-linejoin:miter;stroke-linecap:square"/><path id="patch_5" d="M126 384.48h355.09" style="fill:none;stroke:#000;stroke-width:.8;stroke-linejoin:miter;stroke-linecap:square"/><path id="patch_6" d="M126 51.84h355.09" style="fill:none;stroke:#000;stroke-width:.8;stroke-linejoin:miter;stroke-linecap:square"/><g id="text_21" transform="matrix(.12 0 0 -.12 215.143 45.84)"><defs><path id="DejaVuSans-45" d="M628 4666h2950v-532H1259V2753h2222v-531H1259V531h2375V0H628z" transform="scale(.01563)"/><path id="DejaVuSans-6b" d="M581 4863h578V1991l1716 1509h734L1753 1863 3688 0h-750L1159 1709V0H581z" transform="scale(.01563)"/><path id="DejaVuSans-70" d="M1159 525v-1856H581v4831h578v-531q182 312 458 463 277 152 661 152 638 0 1036-506 399-506 399-1331T3314 415Q2916-91 2278-91q-384 0-661 152-276 152-458 464m1957 1222q0 634-261 995t-717 361q-457 0-718-361t-261-995 261-995 718-361q456 0 717 361t261 995" transform="scale(.01563)"/></defs><use xlink:href="#DejaVuSans-45"/><use xlink:href="#DejaVuSans-72" x="63.184"/><use xlink:href="#DejaVuSans-72" x="102.547"/><use xlink:href="#DejaVuSans-6f" x="141.41"/><use xlink:href="#DejaVuSans-72" x="202.592"/><use xlink:href="#DejaVuSans-6f" x="275.492"/><use xlink:href="#DejaVuSans-66" x="336.674"/><use xlink:href="#DejaVuSans-73" x="403.666"/><use xlink:href="#DejaVuSans-6d" x="455.766"/><use xlink:href="#DejaVuSans-61" x="553.178"/><use xlink:href="#DejaVuSans-6c" x="614.457"/><use xlink:href="#DejaVuSans-6c" x="642.24"/><use xlink:href="#DejaVuSans-65" x="670.023"/><use xlink:href="#DejaVuSans-72" x="731.547"/><use xlink:href="#DejaVuSans-6c" x="804.447"/><use xlink:href="#DejaVuSans-6f" x="832.23"/><use xlink:href="#DejaVuSans-6f" x="893.412"/><use xlink:href="#DejaVuSans-6b" x="954.594"/><use xlink:href="#DejaVuSans-75" x="1009.379"/><use xlink:href="#DejaVuSans-70" x="1072.758"/><use xlink:href="#DejaVuSans-74" x="1168.021"/><use xlink:href="#DejaVuSans-61" x="1207.23"/><use xlink:href="#DejaVuSans-62" x="1268.51"/><use xlink:href="#DejaVuSans-6c" x="1331.986"/><use xlink:href="#DejaVuSans-65" x="1359.77"/><use xlink:href="#DejaVuSans-73" x="1421.293"/></g><g id="legend_1"><path id="patch_7" d="M325.174 89.196H474.09q2 0 2-2V58.84q0-2-2-2H325.174q-2 0-2 2v28.356q0 2 2 2z" style="fill:#fff;opacity:.8;stroke:#ccc;stroke-linejoin:miter"/><path id="line2d_20" d="M327.174 64.938h20" style="fill:none;stroke:#1f77b4;stroke-width:1.5;stroke-linecap:square"/><g id="text_22" transform="matrix(.1 0 0 -.1 355.174 68.438)"><use xlink:href="#DejaVuSans-4c"/><use xlink:href="#DejaVuSans-6f" x="53.963"/><use xlink:href="#DejaVuSans-6f" x="115.145"/><use xlink:href="#DejaVuSans-6b" x="176.326"/><use xlink:href="#DejaVuSans-75" x="231.111"/><use xlink:href="#DejaVuSans-70" x="294.49"/><use xlink:href="#DejaVuSans-74" x="389.754"/><use xlink:href="#DejaVuSans-61" x="428.963"/><use xlink:href="#DejaVuSans-62" x="490.242"/><use xlink:href="#DejaVuSans-6c" x="553.719"/><use xlink:href="#DejaVuSans-65" x="581.502"/></g><path id="line2d_21" d="M327.174 79.617h20" style="fill:none;stroke:#ff7f0e;stroke-width:1.5;stroke-linecap:square"/><g id="text_23" transform="matrix(.1 0 0 -.1 355.174 83.117)"><defs><path id="DejaVuSans-64" d="M2906 2969v1894h575V0h-575v525q-181-312-458-464-276-152-664-152-634 0-1033 506-398 507-398 1332t398 1331q399 506 1033 506 388 0 664-152 277-151 458-463M947 1747q0-634 261-995t717-361 718 361q263 361 263 995t-263 995q-262 361-718 361t-717-361-261-995" transform="scale(.01563)"/></defs><use xlink:href="#DejaVuSans-4c"/><use xlink:href="#DejaVuSans-6f" x="53.963"/><use xlink:href="#DejaVuSans-6f" x="115.145"/><use xlink:href="#DejaVuSans-6b" x="176.326"/><use xlink:href="#DejaVuSans-75" x="231.111"/><use xlink:href="#DejaVuSans-70" x="294.49"/><use xlink:href="#DejaVuSans-74" x="389.754"/><use xlink:href="#DejaVuSans-61" x="428.963"/><use xlink:href="#DejaVuSans-62" x="490.242"/><use xlink:href="#DejaVuSans-6c" x="553.719"/><use xlink:href="#DejaVuSans-65" x="581.502"/><use xlink:href="#DejaVuSans-6f" x="674.813"/><use xlink:href="#DejaVuSans-70" x="735.994"/><use xlink:href="#DejaVuSans-74" x="799.471"/><use xlink:href="#DejaVuSans-69" x="838.68"/><use xlink:href="#DejaVuSans-6d" x="866.463"/><use xlink:href="#DejaVuSans-69" x="963.875"/><use xlink:href="#DejaVuSans-7a" x="991.658"/><use xlink:href="#DejaVuSans-65" x="1044.148"/><use xlink:href="#DejaVuSans-64" x="1105.672"/></g></g></g><g id="axes_2"><path id="patch_8" d="M552.11 384.48H907.2V51.84H552.11z" style="fill:#fff"/><g id="PathCollection_3" clip-path="url(#p12949ee4e8)"><use xlink:href="#m5ae92d5f9c" x="568.25" y="66.96" style="fill:red;stroke:red"/><use xlink:href="#m5ae92d5f9c" x="608.601" y="101.586" style="fill:red;stroke:red"/><use xlink:href="#m5ae92d5f9c" x="648.952" y="136.612" style="fill:red;stroke:red"/><use xlink:href="#m5ae92d5f9c" x="689.303" y="172.467" style="fill:red;stroke:red"/><use xlink:href="#m5ae92d5f9c" x="729.655" y="210.109" style="fill:red;stroke:red"/><use xlink:href="#m5ae92d5f9c" x="770.006" y="251.936" style="fill:red;stroke:red"/><use xlink:href="#m5ae92d5f9c" x="810.357" y="305.994" style="fill:red;stroke:red"/></g><g id="PathCollection_4" clip-path="url(#p12949ee4e8)"><use xlink:href="#m5ae92d5f9c" x="568.25" y="101.586" style="fill:red;stroke:red"/><use xlink:href="#m5ae92d5f9c" x="608.601" y="136.612" style="fill:red;stroke:red"/><use xlink:href="#m5ae92d5f9c" x="648.952" y="172.467" style="fill:red;stroke:red"/><use xlink:href="#m5ae92d5f9c" x="689.303" y="210.109" style="fill:red;stroke:red"/><use xlink:href="#m5ae92d5f9c" x="729.655" y="251.936" style="fill:red;stroke:red"/><use xlink:href="#m5ae92d5f9c" x="770.006" y="305.994" style="fill:red;stroke:red"/></g><g id="matplotlib.axis_3"><g id="xtick_9"><use xlink:href="#mc1ae4218a9" id="line2d_22" x="592.849" y="384.48" style="stroke:#000;stroke-width:.8"/><g id="text_24" transform="matrix(.1 0 0 -.1 584.05 399.078)"><use xlink:href="#DejaVuSans-31" transform="translate(0 .684)"/><use xlink:href="#DejaVuSans-30" transform="translate(63.623 .684)"/><use xlink:href="#DejaVuSans-35" transform="matrix(.7 0 0 .7 128.203 38.966)"/></g></g><g id="xtick_10"><use xlink:href="#mc1ae4218a9" id="line2d_23" x="726.893" y="384.48" style="stroke:#000;stroke-width:.8"/><g id="text_25" transform="matrix(.1 0 0 -.1 718.093 399.078)"><use xlink:href="#DejaVuSans-31" transform="translate(0 .766)"/><use xlink:href="#DejaVuSans-30" transform="translate(63.623 .766)"/><use xlink:href="#DejaVuSans-36" transform="matrix(.7 0 0 .7 128.203 39.047)"/></g></g><g id="xtick_11"><use xlink:href="#mc1ae4218a9" id="line2d_24" x="860.937" y="384.48" style="stroke:#000;stroke-width:.8"/><g id="text_26" transform="matrix(.1 0 0 -.1 852.137 399.078)"><use xlink:href="#DejaVuSans-31" transform="translate(0 .684)"/><use xlink:href="#DejaVuSans-30" transform="translate(63.623 .684)"/><use xlink:href="#DejaVuSans-37" transform="matrix(.7 0 0 .7 128.203 38.966)"/></g></g><g id="xtick_12"><g id="line2d_25"><defs><path id="m25194aedf2" d="M0 0v2" style="stroke:#000;stroke-width:.6"/></defs><use xlink:href="#m25194aedf2" x="552.498" y="384.48" style="stroke:#000;stroke-width:.6"/></g></g><g id="xtick_13"><use xlink:href="#m25194aedf2" id="line2d_26" x="563.112" y="384.48" style="stroke:#000;stroke-width:.6"/></g><g id="xtick_14"><use xlink:href="#m25194aedf2" id="line2d_27" x="572.086" y="384.48" style="stroke:#000;stroke-width:.6"/></g><g id="xtick_15"><use xlink:href="#m25194aedf2" id="line2d_28" x="579.859" y="384.48" style="stroke:#000;stroke-width:.6"/></g><g id="xtick_16"><use xlink:href="#m25194aedf2" id="line2d_29" x="586.716" y="384.48" style="stroke:#000;stroke-width:.6"/></g><g id="xtick_17"><use xlink:href="#m25194aedf2" id="line2d_30" x="633.201" y="384.48" style="stroke:#000;stroke-width:.6"/></g><g id="xtick_18"><use xlink:href="#m25194aedf2" id="line2d_31" x="656.805" y="384.48" style="stroke:#000;stroke-width:.6"/></g><g id="xtick_19"><use xlink:href="#m25194aedf2" id="line2d_32" x="673.552" y="384.48" style="stroke:#000;stroke-width:.6"/></g><g id="xtick_20"><use xlink:href="#m25194aedf2" id="line2d_33" x="686.542" y="384.48" style="stroke:#000;stroke-width:.6"/></g><g id="xtick_21"><use xlink:href="#m25194aedf2" id="line2d_34" x="697.156" y="384.48" style="stroke:#000;stroke-width:.6"/></g><g id="xtick_22"><use xlink:href="#m25194aedf2" id="line2d_35" x="706.13" y="384.48" style="stroke:#000;stroke-width:.6"/></g><g id="xtick_23"><use xlink:href="#m25194aedf2" id="line2d_36" x="713.903" y="384.48" style="stroke:#000;stroke-width:.6"/></g><g id="xtick_24"><use xlink:href="#m25194aedf2" id="line2d_37" x="720.76" y="384.48" style="stroke:#000;stroke-width:.6"/></g><g id="xtick_25"><use xlink:href="#m25194aedf2" id="line2d_38" x="767.244" y="384.48" style="stroke:#000;stroke-width:.6"/></g><g id="xtick_26"><use xlink:href="#m25194aedf2" id="line2d_39" x="790.848" y="384.48" style="stroke:#000;stroke-width:.6"/></g><g id="xtick_27"><use xlink:href="#m25194aedf2" id="line2d_40" x="807.596" y="384.48" style="stroke:#000;stroke-width:.6"/></g><g id="xtick_28"><use xlink:href="#m25194aedf2" id="line2d_41" x="820.586" y="384.48" style="stroke:#000;stroke-width:.6"/></g><g id="xtick_29"><use xlink:href="#m25194aedf2" id="line2d_42" x="831.2" y="384.48" style="stroke:#000;stroke-width:.6"/></g><g id="xtick_30"><use xlink:href="#m25194aedf2" id="line2d_43" x="840.174" y="384.48" style="stroke:#000;stroke-width:.6"/></g><g id="xtick_31"><use xlink:href="#m25194aedf2" id="line2d_44" x="847.947" y="384.48" style="stroke:#000;stroke-width:.6"/></g><g id="xtick_32"><use xlink:href="#m25194aedf2" id="line2d_45" x="854.804" y="384.48" style="stroke:#000;stroke-width:.6"/></g><g id="xtick_33"><use xlink:href="#m25194aedf2" id="line2d_46" x="901.288" y="384.48" style="stroke:#000;stroke-width:.6"/></g><g id="text_27" transform="matrix(.1 0 0 -.1 705.707 412.757)"><use xlink:href="#DejaVuSans-74"/><use xlink:href="#DejaVuSans-61" x="39.209"/><use xlink:href="#DejaVuSans-62" x="100.488"/><use xlink:href="#DejaVuSans-6c" x="163.965"/><use xlink:href="#DejaVuSans-65" x="191.748"/><use xlink:href="#DejaVuSans-73" x="285.059"/><use xlink:href="#DejaVuSans-69" x="337.158"/><use xlink:href="#DejaVuSans-7a" x="364.941"/><use xlink:href="#DejaVuSans-65" x="417.432"/></g></g><g id="matplotlib.axis_4"><g id="ytick_10"><use xlink:href="#mf47adb6be6" id="line2d_47" x="552.109" y="283.271" style="stroke:#000;stroke-width:.8"/><g id="text_28" transform="matrix(.1 0 0 -.1 527.51 287.07)"><use xlink:href="#DejaVuSans-31" transform="translate(0 .684)"/><use xlink:href="#DejaVuSans-30" transform="translate(63.623 .684)"/><use xlink:href="#DejaVuSans-31" transform="matrix(.7 0 0 .7 128.203 38.966)"/></g></g><g id="ytick_11"><use xlink:href="#mf47adb6be6" id="line2d_48" x="552.109" y="169.542" style="stroke:#000;stroke-width:.8"/><g id="text_29" transform="matrix(.1 0 0 -.1 527.51 173.341)"><use xlink:href="#DejaVuSans-31" transform="translate(0 .766)"/><use xlink:href="#DejaVuSans-30" transform="translate(63.623 .766)"/><use xlink:href="#DejaVuSans-32" transform="matrix(.7 0 0 .7 128.203 39.047)"/></g></g><g id="ytick_12"><use xlink:href="#mf47adb6be6" id="line2d_49" x="552.109" y="55.813" style="stroke:#000;stroke-width:.8"/><g id="text_30" transform="matrix(.1 0 0 -.1 527.51 59.612)"><use xlink:href="#DejaVuSans-31" transform="translate(0 .766)"/><use xlink:href="#DejaVuSans-30" transform="translate(63.623 .766)"/><use xlink:href="#DejaVuSans-33" transform="matrix(.7 0 0 .7 128.203 39.047)"/></g></g><g id="ytick_13"><g id="line2d_50"><defs><path id="m13350b7725" d="M0 0h-2" style="stroke:#000;stroke-width:.6"/></defs><use xlink:href="#m13350b7725" x="552.109" y="362.765" style="stroke:#000;stroke-width:.6"/></g></g><g id="ytick_14"><use xlink:href="#m13350b7725" id="line2d_51" x="552.109" y="342.738" style="stroke:#000;stroke-width:.6"/></g><g id="ytick_15"><use xlink:href="#m13350b7725" id="line2d_52" x="552.109" y="328.529" style="stroke:#000;stroke-width:.6"/></g><g id="ytick_16"><use xlink:href="#m13350b7725" id="line2d_53" x="552.109" y="317.507" style="stroke:#000;stroke-width:.6"/></g><g id="ytick_17"><use xlink:href="#m13350b7725" id="line2d_54" x="552.109" y="308.502" style="stroke:#000;stroke-width:.6"/></g><g id="ytick_18"><use xlink:href="#m13350b7725" id="line2d_55" x="552.109" y="300.888" style="stroke:#000;stroke-width:.6"/></g><g id="ytick_19"><use xlink:href="#m13350b7725" id="line2d_56" x="552.109" y="294.293" style="stroke:#000;stroke-width:.6"/></g><g id="ytick_20"><use xlink:href="#m13350b7725" id="line2d_57" x="552.109" y="288.475" style="stroke:#000;stroke-width:.6"/></g><g id="ytick_21"><use xlink:href="#m13350b7725" id="line2d_58" x="552.109" y="249.035" style="stroke:#000;stroke-width:.6"/></g><g id="ytick_22"><use xlink:href="#m13350b7725" id="line2d_59" x="552.109" y="229.009" style="stroke:#000;stroke-width:.6"/></g><g id="ytick_23"><use xlink:href="#m13350b7725" id="line2d_60" x="552.109" y="214.799" style="stroke:#000;stroke-width:.6"/></g><g id="ytick_24"><use xlink:href="#m13350b7725" id="line2d_61" x="552.109" y="203.778" style="stroke:#000;stroke-width:.6"/></g><g id="ytick_25"><use xlink:href="#m13350b7725" id="line2d_62" x="552.109" y="194.773" style="stroke:#000;stroke-width:.6"/></g><g id="ytick_26"><use xlink:href="#m13350b7725" id="line2d_63" x="552.109" y="187.159" style="stroke:#000;stroke-width:.6"/></g><g id="ytick_27"><use xlink:href="#m13350b7725" id="line2d_64" x="552.109" y="180.563" style="stroke:#000;stroke-width:.6"/></g><g id="ytick_28"><use xlink:href="#m13350b7725" id="line2d_65" x="552.109" y="174.746" style="stroke:#000;stroke-width:.6"/></g><g id="ytick_29"><use xlink:href="#m13350b7725" id="line2d_66" x="552.109" y="135.306" style="stroke:#000;stroke-width:.6"/></g><g id="ytick_30"><use xlink:href="#m13350b7725" id="line2d_67" x="552.109" y="115.279" style="stroke:#000;stroke-width:.6"/></g><g id="ytick_31"><use xlink:href="#m13350b7725" id="line2d_68" x="552.109" y="101.07" style="stroke:#000;stroke-width:.6"/></g><g id="ytick_32"><use xlink:href="#m13350b7725" id="line2d_69" x="552.109" y="90.049" style="stroke:#000;stroke-width:.6"/></g><g id="ytick_33"><use xlink:href="#m13350b7725" id="line2d_70" x="552.109" y="81.043" style="stroke:#000;stroke-width:.6"/></g><g id="ytick_34"><use xlink:href="#m13350b7725" id="line2d_71" x="552.109" y="73.43" style="stroke:#000;stroke-width:.6"/></g><g id="ytick_35"><use xlink:href="#m13350b7725" id="line2d_72" x="552.109" y="66.834" style="stroke:#000;stroke-width:.6"/></g><g id="ytick_36"><use xlink:href="#m13350b7725" id="line2d_73" x="552.109" y="61.017" style="stroke:#000;stroke-width:.6"/></g><g id="text_31" transform="matrix(0 -.1 -.1 0 521.43 281.706)"><use xlink:href="#DejaVuSans-6d"/><use xlink:href="#DejaVuSans-61" x="97.412"/><use xlink:href="#DejaVuSans-78" x="158.691"/><use xlink:href="#DejaVuSans-69" x="217.871"/><use xlink:href="#DejaVuSans-6d" x="245.654"/><use xlink:href="#DejaVuSans-75" x="343.066"/><use xlink:href="#DejaVuSans-6d" x="406.445"/><use xlink:href="#DejaVuSans-65" x="535.645"/><use xlink:href="#DejaVuSans-72" x="597.168"/><use xlink:href="#DejaVuSans-72" x="636.531"/><use xlink:href="#DejaVuSans-6f" x="675.395"/><use xlink:href="#DejaVuSans-72" x="736.576"/><use xlink:href="#DejaVuSans-28" x="809.477"/><use xlink:href="#DejaVuSans-66" x="848.49"/><use xlink:href="#DejaVuSans-33" x="883.695"/><use xlink:href="#DejaVuSans-32" x="947.318"/><use xlink:href="#DejaVuSans-55" x="1042.729"/><use xlink:href="#DejaVuSans-4c" x="1115.922"/><use xlink:href="#DejaVuSans-50" x="1171.635"/><use xlink:href="#DejaVuSans-29" x="1231.938"/></g></g><path id="line2d_74" d="m568.25 66.96 40.35 34.626 23.605 19.442 16.747 15.584 12.99 9.647 10.614 9.59 8.974 6.26 7.773 10.358 6.857 1.674 6.134 5.394 5.548 3.954 5.065 6.594 4.66 2.409 4.314 5.205 4.016 2.822 3.758 9.59 3.529-3.406 3.327 3.406h3.148l2.986 3.66h2.84l2.708 3.951h2.588l2.478 9.001 2.376-4.705 2.283 4.705h2.197l2.117 5.202h5.926l1.848 20.013 1.791-14.2h3.426l1.64 6.592h4.66l1.473 7.567 1.437-7.567 1.403 7.608h6.548l1.226 8.997 1.2-8.997h1.176l1.153 8.997h12.301l.917 45.061.903-34.052h11.355l.732 14.189.723-14.189h1.42l.698 14.189h7.163l.61 19.863.603-19.863h7.849l.522 19.863.517-19.863h3.012l.487 19.863.483-19.863h.955l.471 19.863.468-19.863.463 19.863h.46L850.253 433m.909 0V305.994h22.847l.304 32.79.303-32.79h8.41l.261 32.79.26-32.79h3.513l.243 32.79.242-32.79h1.432l.235 32.79.235-32.79h.465l.232 32.79.23-32.667.23 32.667h.229V433h0" clip-path="url(#p12949ee4e8)" style="fill:none;stroke:#1f77b4;stroke-width:1.5;stroke-linecap:square"/><path id="line2d_75" d="m568.25 101.586 40.35 35.026 23.605 19.236 16.747 16.619 12.99 8.027 10.614 9.589 8.974 7.614 7.773 12.412h6.857l6.134 5.596 5.548 4.116 5.065 6.9h4.66l4.314 5.202 4.016 2.807 3.758 17.206 3.529-10.997 3.327 3.389h3.148l2.986 7.567 5.548.04 2.588 4.317 2.478 4.68 2.376-4.68 2.283 4.68h2.197l2.117 5.172h5.926l1.848 39.89 1.791-34.052h3.426l1.64 6.622h4.66l1.473 7.567 1.437-7.567 1.403 7.567h6.548l1.226 19.863 1.2-19.863 1.176 8.94h5.549l1.049 10.923 1.03-10.923h2.008l.978 10.923.962-10.923.947 10.923h.931L809.441 433m1.818 0V305.994h11.356l.732 14.047.723-14.047h1.42l.698 14.047h7.163l.61 18.743.603-18.743h7.849l.522 18.743.517-18.743h3.012l.487 18.743.483-18.743h.955l.471 18.743.468-18.743.463 18.743h.46l.001 94.216m.909 0v-94.216h12.172l.365 30.576.363-30.576h9.947V433m.606 0v-94.216h4.077l.28 30.576.28-30.576h3.775l.26 30.576.26-30.576h.515l.255.96.255-.96h.506l.252 30.576.25-30.576.25.96.248-.96.247.96h.735l.243 29.616.242-29.616h.482l.239 29.616.238-29.616h.473l.235 29.616.235-29.13.233 29.13.232-29.13.232 29.13h.689V433h0" clip-path="url(#p12949ee4e8)" style="fill:none;stroke:#ff7f0e;stroke-width:1.5;stroke-linecap:square"/><path id="patch_9" d="M552.11 384.48V51.84" style="fill:none;stroke:#000;stroke-width:.8;stroke-linejoin:miter;stroke-linecap:square"/><path id="patch_10" d="M907.2 384.48V51.84" style="fill:none;stroke:#000;stroke-width:.8;stroke-linejoin:miter;stroke-linecap:square"/><path id="patch_11" d="M552.11 384.48H907.2" style="fill:none;stroke:#000;stroke-width:.8;stroke-linejoin:miter;stroke-linecap:square"/><path id="patch_12" d="M552.11 51.84H907.2" style="fill:none;stroke:#000;stroke-width:.8;stroke-linejoin:miter;stroke-linecap:square"/><g id="text_32" transform="matrix(.12 0 0 -.12 608.149 45.84)"><defs><path id="DejaVuSans-67" d="M2906 1791q0 625-258 968-257 344-723 344-462 0-720-344-258-343-258-968 0-622 258-966t720-344q466 0 723 344 258 344 258 966m575-1357q0-893-397-1329-396-436-1215-436-303 0-572 45t-522 139v559q253-137 500-202 247-66 503-66 566 0 847 295t281 892v285q-178-310-456-463T1784 0Q1141 0 747 490 353 981 353 1791q0 812 394 1302 394 491 1037 491 388 0 666-153t456-462v531h575z" transform="scale(.01563)"/><path id="DejaVuSans-63" d="M3122 3366v-538q-244 135-489 202t-495 67q-560 0-870-355-309-354-309-995t309-996q310-354 870-354 250 0 495 67t489 202V134Q2881 22 2623-34q-257-57-548-57-791 0-1257 497-465 497-465 1341 0 856 470 1346 471 491 1290 491 265 0 518-55 253-54 491-163" transform="scale(.01563)"/></defs><use xlink:href="#DejaVuSans-45"/><use xlink:href="#DejaVuSans-72" x="63.184"/><use xlink:href="#DejaVuSans-72" x="102.547"/><use xlink:href="#DejaVuSans-6f" x="141.41"/><use xlink:href="#DejaVuSans-72" x="202.592"/><use xlink:href="#DejaVuSans-6f" x="275.492"/><use xlink:href="#DejaVuSans-66" x="336.674"/><use xlink:href="#DejaVuSans-73" x="403.666"/><use xlink:href="#DejaVuSans-6d" x="455.766"/><use xlink:href="#DejaVuSans-61" x="553.178"/><use xlink:href="#DejaVuSans-6c" x="614.457"/><use xlink:href="#DejaVuSans-6c" x="642.24"/><use xlink:href="#DejaVuSans-65" x="670.023"/><use xlink:href="#DejaVuSans-72" x="731.547"/><use xlink:href="#DejaVuSans-6c" x="804.447"/><use xlink:href="#DejaVuSans-6f" x="832.23"/><use xlink:href="#DejaVuSans-6f" x="893.412"/><use xlink:href="#DejaVuSans-6b" x="954.594"/><use xlink:href="#DejaVuSans-75" x="1009.379"/><use xlink:href="#DejaVuSans-70" x="1072.758"/><use xlink:href="#DejaVuSans-74" x="1168.021"/><use xlink:href="#DejaVuSans-61" x="1207.23"/><use xlink:href="#DejaVuSans-62" x="1268.51"/><use xlink:href="#DejaVuSans-6c" x="1331.986"/><use xlink:href="#DejaVuSans-65" x="1359.77"/><use xlink:href="#DejaVuSans-73" x="1421.293"/><use xlink:href="#DejaVuSans-28" x="1505.18"/><use xlink:href="#DejaVuSans-6c" x="1544.193"/><use xlink:href="#DejaVuSans-6f" x="1571.977"/><use xlink:href="#DejaVuSans-67" x="1633.158"/><use xlink:href="#DejaVuSans-73" x="1728.422"/><use xlink:href="#DejaVuSans-63" x="1780.521"/><use xlink:href="#DejaVuSans-61" x="1835.502"/><use xlink:href="#DejaVuSans-6c" x="1896.781"/><use xlink:href="#DejaVuSans-65" x="1924.564"/><use xlink:href="#DejaVuSans-29" x="1986.088"/></g><g id="legend_2"><path id="patch_13" d="M751.283 89.196H900.2q2 0 2-2V58.84q0-2-2-2H751.283q-2 0-2 2v28.356q0 2 2 2z" style="fill:#fff;opacity:.8;stroke:#ccc;stroke-linejoin:miter"/><path id="line2d_76" d="M753.283 64.938h20" style="fill:none;stroke:#1f77b4;stroke-width:1.5;stroke-linecap:square"/><g id="text_33" transform="matrix(.1 0 0 -.1 781.283 68.438)"><use xlink:href="#DejaVuSans-4c"/><use xlink:href="#DejaVuSans-6f" x="53.963"/><use xlink:href="#DejaVuSans-6f" x="115.145"/><use xlink:href="#DejaVuSans-6b" x="176.326"/><use xlink:href="#DejaVuSans-75" x="231.111"/><use xlink:href="#DejaVuSans-70" x="294.49"/><use xlink:href="#DejaVuSans-74" x="389.754"/><use xlink:href="#DejaVuSans-61" x="428.963"/><use xlink:href="#DejaVuSans-62" x="490.242"/><use xlink:href="#DejaVuSans-6c" x="553.719"/><use xlink:href="#DejaVuSans-65" x="581.502"/></g><path id="line2d_77" d="M753.283 79.617h20" style="fill:none;stroke:#ff7f0e;stroke-width:1.5;stroke-linecap:square"/><g id="text_34" transform="matrix(.1 0 0 -.1 781.283 83.117)"><use xlink:href="#DejaVuSans-4c"/><use xlink:href="#DejaVuSans-6f" x="53.963"/><use xlink:href="#DejaVuSans-6f" x="115.145"/><use xlink:href="#DejaVuSans-6b" x="176.326"/><use xlink:href="#DejaVuSans-75" x="231.111"/><use xlink:href="#DejaVuSans-70" x="294.49"/><use xlink:href="#DejaVuSans-74" x="389.754"/><use xlink:href="#DejaVuSans-61" x="428.963"/><use xlink:href="#DejaVuSans-62" x="490.242"/><use xlink:href="#DejaVuSans-6c" x="553.719"/><use xlink:href="#DejaVuSans-65" x="581.502"/><use xlink:href="#DejaVuSans-6f" x="674.813"/><use xlink:href="#DejaVuSans-70" x="735.994"/><use xlink:href="#DejaVuSans-74" x="799.471"/><use xlink:href="#DejaVuSans-69" x="838.68"/><use xlink:href="#DejaVuSans-6d" x="866.463"/><use xlink:href="#DejaVuSans-69" x="963.875"/><use xlink:href="#DejaVuSans-7a" x="991.658"/><use xlink:href="#DejaVuSans-65" x="1044.148"/><use xlink:href="#DejaVuSans-64" x="1105.672"/></g></g></g></g><defs><clipPath id="pb6dd89ce31"><path d="M126 51.84h355.091v332.64H126z"/></clipPath><clipPath id="p12949ee4e8"><path d="M552.109 51.84H907.2v332.64H552.109z"/></clipPath></defs></svg>