<svg xmlns="http://www.w3.org/2000/svg" xmlns:xlink="http://www.w3.org/1999/xlink" width="768" height="576" viewBox="0 0 576 432"><defs><style>*{stroke-linejoin:round;stroke-linecap:butt}</style></defs><g id="figure_1"><path id="patch_1" d="M0 432h576V0H0z" style="fill:#fff"/><g id="axes_1"><path id="patch_2" d="M72 384.48h446.4V51.84H72z" style="fill:#fff"/><g id="matplotlib.axis_1"><g id="xtick_1"><g id="line2d_1"><defs><path id="mb30c6b2570" d="M0 0v3.5" style="stroke:#000;stroke-width:.8"/></defs><use xlink:href="#mb30c6b2570" x="92.291" y="384.48" style="stroke:#000;stroke-width:.8"/></g><g id="text_1" transform="matrix(.1 0 0 -.1 89.11 399.078)"><defs><path id="DejaVuSans-30" d="M2034 4250q-487 0-733-480-245-479-245-1442 0-959 245-1439 246-480 733-480 491 0 736 480 246 480 246 1439 0 963-246 1442-245 480-736 480m0 500q785 0 1199-621 414-620 414-1801 0-1178-414-1799Q2819-91 2034-91q-784 0-1198 620-414 621-414 1799 0 1181 414 1801 414 621 1198 621" transform="scale(.01563)"/></defs><use xlink:href="#DejaVuSans-30"/></g></g><g id="xtick_2"><use xlink:href="#mb30c6b2570" id="line2d_2" x="173.455" y="384.48" style="stroke:#000;stroke-width:.8"/><g id="text_2" transform="matrix(.1 0 0 -.1 163.91 399.078)"><defs><path id="DejaVuSans-32" d="M1228 531h2203V0H469v531q359 372 979 998 621 627 780 809 303 340 423 576 121 236 121 464 0 372-261 606-261 235-680 235-297 0-627-103-329-103-704-313v638q381 153 712 231 332 78 607 78 725 0 1156-363 431-362 431-968 0-288-108-546-107-257-392-607-78-91-497-524-418-433-1181-1211" transform="scale(.01563)"/></defs><use xlink:href="#DejaVuSans-32"/><use xlink:href="#DejaVuSans-30" x="63.623"/><use xlink:href="#DejaVuSans-30" x="127.246"/></g></g><g id="xtick_3"><use xlink:href="#mb30c6b2570" id="line2d_3" x="254.618" y="384.48" style="stroke:#000;stroke-width:.8"/><g id="text_3" transform="matrix(.1 0 0 -.1 245.074 399.078)"><defs><path id="DejaVuSans-34" d="M2419 4116 825 1625h1594zm-166 550h794V1625h666v-525h-666V0h-628v1100H313v609z" transform="scale(.01563)"/></defs><use xlink:href="#DejaVuSans-34"/><use xlink:href="#DejaVuSans-30" x="63.623"/><use xlink:href="#DejaVuSans-30" x="127.246"/></g></g><g id="xtick_4"><use xlink:href="#mb30c6b2570" id="line2d_4" x="335.782" y="384.48" style="stroke:#000;stroke-width:.8"/><g id="text_4" transform="matrix(.1 0 0 -.1 326.238 399.078)"><defs><path id="DejaVuSans-36" d="M2113 2584q-425 0-674-291-248-290-248-796 0-503 248-796 249-292 674-292t673 292q248 293 248 796 0 506-248 796-248 291-673 291m1253 1979v-575q-238 112-480 171-242 60-480 60-625 0-955-422-329-422-376-1275 184 272 462 417 279 145 613 145 703 0 1111-427 408-426 408-1160 0-719-425-1154Q2819-91 2113-91q-810 0-1238 620-428 621-428 1799 0 1106 525 1764t1409 658q238 0 480-47t505-140" transform="scale(.01563)"/></defs><use xlink:href="#DejaVuSans-36"/><use xlink:href="#DejaVuSans-30" x="63.623"/><use xlink:href="#DejaVuSans-30" x="127.246"/></g></g><g id="xtick_5"><use xlink:href="#mb30c6b2570" id="line2d_5" x="416.945" y="384.48" style="stroke:#000;stroke-width:.8"/><g id="text_5" transform="matrix(.1 0 0 -.1 407.402 399.078)"><defs><path id="DejaVuSans-38" d="M2034 2216q-450 0-708-241-257-241-257-662 0-422 257-663 258-241 708-241t709 242q260 243 260 662 0 421-258 662-257 241-711 241m-631 268q-406 100-633 378-226 279-226 679 0 559 398 884 399 325 1092 325 697 0 1094-325t397-884q0-400-227-679-226-278-629-378 456-106 710-416 255-309 255-755 0-679-414-1042Q2806-91 2034-91q-771 0-1186 362-414 363-414 1042 0 446 256 755 257 310 713 416m-231 997q0-362 226-565 227-203 636-203 407 0 636 203 230 203 230 565 0 363-230 566-229 203-636 203-409 0-636-203-226-203-226-566" transform="scale(.01563)"/></defs><use xlink:href="#DejaVuSans-38"/><use xlink:href="#DejaVuSans-30" x="63.623"/><use xlink:href="#DejaVuSans-30" x="127.246"/></g></g><g id="xtick_6"><use xlink:href="#mb30c6b2570" id="line2d_6" x="498.109" y="384.48" style="stroke:#000;stroke-width:.8"/><g id="text_6" transform="matrix(.1 0 0 -.1 485.384 399.078)"><defs><path id="DejaVuSans-31" d="M794 531h1031v3560L703 3866v575l1116 225h631V531h1031V0H794z" transform="scale(.01563)"/></defs><use xlink:href="#DejaVuSans-31"/><use xlink:href="#DejaVuSans-30" x="63.623"/><use xlink:href="#DejaVuSans-30" x="127.246"/><use xlink:href="#DejaVuSans-30" x="190.869"/></g></g></g><g id="matplotlib.axis_2"><g id="ytick_1"><g id="line2d_7"><defs><path id="mcc6375eab4" d="M0 0h-3.5" style="stroke:#000;stroke-width:.8"/></defs><use xlink:href="#mcc6375eab4" x="72" y="367.511" style="stroke:#000;stroke-width:.8"/></g><g id="text_7" transform="matrix(.1 0 0 -.1 31.17 371.31)"><defs><path id="DejaVuSans-2212" d="M678 2272h4006v-531H678z" transform="scale(.01563)"/></defs><use xlink:href="#DejaVuSans-2212"/><use xlink:href="#DejaVuSans-32" x="83.789"/><use xlink:href="#DejaVuSans-30" x="147.412"/><use xlink:href="#DejaVuSans-30" x="211.035"/><use xlink:href="#DejaVuSans-30" x="274.658"/></g></g><g id="ytick_2"><use xlink:href="#mcc6375eab4" id="line2d_8" x="72" y="330.365" style="stroke:#000;stroke-width:.8"/><g id="text_8" transform="matrix(.1 0 0 -.1 31.17 334.164)"><defs><path id="DejaVuSans-35" d="M691 4666h2478v-532H1269V2991q137 47 274 70 138 23 276 23 781 0 1237-428 457-428 457-1159 0-753-469-1171Q2575-91 1722-91q-294 0-599 50Q819 9 494 109v635q281-153 581-228t634-75q541 0 856 284 316 284 316 772 0 487-316 771-315 285-856 285-253 0-505-56-251-56-513-175z" transform="scale(.01563)"/></defs><use xlink:href="#DejaVuSans-2212"/><use xlink:href="#DejaVuSans-31" x="83.789"/><use xlink:href="#DejaVuSans-35" x="147.412"/><use xlink:href="#DejaVuSans-30" x="211.035"/><use xlink:href="#DejaVuSans-30" x="274.658"/></g></g><g id="ytick_3"><use xlink:href="#mcc6375eab4" id="line2d_9" x="72" y="293.218" style="stroke:#000;stroke-width:.8"/><g id="text_9" transform="matrix(.1 0 0 -.1 31.17 297.017)"><use xlink:href="#DejaVuSans-2212"/><use xlink:href="#DejaVuSans-31" x="83.789"/><use xlink:href="#DejaVuSans-30" x="147.412"/><use xlink:href="#DejaVuSans-30" x="211.035"/><use xlink:href="#DejaVuSans-30" x="274.658"/></g></g><g id="ytick_4"><use xlink:href="#mcc6375eab4" id="line2d_10" x="72" y="256.072" style="stroke:#000;stroke-width:.8"/><g id="text_10" transform="matrix(.1 0 0 -.1 37.533 259.871)"><use xlink:href="#DejaVuSans-2212"/><use xlink:href="#DejaVuSans-35" x="83.789"/><use xlink:href="#DejaVuSans-30" x="147.412"/><use xlink:href="#DejaVuSans-30" x="211.035"/></g></g><g id="ytick_5"><use xlink:href="#mcc6375eab4" id="line2d_11" x="72" y="218.926" style="stroke:#000;stroke-width:.8"/><use xlink:href="#DejaVuSans-30" id="text_11" transform="matrix(.1 0 0 -.1 58.638 222.725)"/></g><g id="ytick_6"><use xlink:href="#mcc6375eab4" id="line2d_12" x="72" y="181.779" style="stroke:#000;stroke-width:.8"/><g id="text_12" transform="matrix(.1 0 0 -.1 45.913 185.579)"><use xlink:href="#DejaVuSans-35"/><use xlink:href="#DejaVuSans-30" x="63.623"/><use xlink:href="#DejaVuSans-30" x="127.246"/></g></g><g id="ytick_7"><use xlink:href="#mcc6375eab4" id="line2d_13" x="72" y="144.633" style="stroke:#000;stroke-width:.8"/><g id="text_13" transform="matrix(.1 0 0 -.1 39.55 148.432)"><use xlink:href="#DejaVuSans-31"/><use xlink:href="#DejaVuSans-30" x="63.623"/><use xlink:href="#DejaVuSans-30" x="127.246"/><use xlink:href="#DejaVuSans-30" x="190.869"/></g></g><g id="ytick_8"><use xlink:href="#mcc6375eab4" id="line2d_14" x="72" y="107.487" style="stroke:#000;stroke-width:.8"/><g id="text_14" transform="matrix(.1 0 0 -.1 39.55 111.286)"><use xlink:href="#DejaVuSans-31"/><use xlink:href="#DejaVuSans-35" x="63.623"/><use xlink:href="#DejaVuSans-30" x="127.246"/><use xlink:href="#DejaVuSans-30" x="190.869"/></g></g><g id="ytick_9"><use xlink:href="#mcc6375eab4" id="line2d_15" x="72" y="70.34" style="stroke:#000;stroke-width:.8"/><g id="text_15" transform="matrix(.1 0 0 -.1 39.55 74.14)"><use xlink:href="#DejaVuSans-32"/><use xlink:href="#DejaVuSans-30" x="63.623"/><use xlink:href="#DejaVuSans-30" x="127.246"/><use xlink:href="#DejaVuSans-30" x="190.869"/></g></g><g id="text_16" transform="matrix(0 -.1 -.1 0 25.09 263.06)"><defs><path id="DejaVuSans-73" d="M2834 3397v-544q-243 125-506 187-262 63-544 63-428 0-642-131t-214-394q0-200 153-314t616-217l197-44q612-131 870-370t258-667q0-488-386-773Q2250-91 1575-91q-281 0-586 55T347 128v594q319-166 628-249 309-82 613-82 406 0 624 139 219 139 219 392 0 234-158 359-157 125-692 241l-200 47q-534 112-772 345-237 233-237 639 0 494 350 762 350 269 994 269 318 0 599-47 282-46 519-140" transform="scale(.01563)"/><path id="DejaVuSans-69" d="M603 3500h575V0H603zm0 1363h575v-729H603z" transform="scale(.01563)"/><path id="DejaVuSans-6e" d="M3513 2113V0h-575v2094q0 497-194 743-194 247-581 247-466 0-735-297-269-296-269-809V0H581v3500h578v-544q207 316 486 472 280 156 646 156 603 0 912-373 310-373 310-1098" transform="scale(.01563)"/><path id="DejaVuSans-28" d="M1984 4856q-418-718-622-1422-203-703-203-1425 0-721 205-1429t620-1424h-500Q1016-109 783 600T550 2009q0 697 231 1403 232 707 703 1444z" transform="scale(.01563)"/><path id="DejaVuSans-Oblique-3c0" d="M584 3500h3354l-113-575h-441L2966 775q-44-225 15-325 57-97 228-97 47 0 116 10 72 6 94 9l-81-416q-116-40-235-59-122-19-237-19-375 0-478 203-104 207 3 757l406 2087H1506L938 0H350l569 2925H472z" transform="scale(.01563)"/><path id="DejaVuSans-Oblique-78" d="M3841 3500 2234 1784 3219 0h-660l-740 1388L531 0h-697l1722 1844-915 1656h659l672-1266 1172 1266z" transform="scale(.01563)"/><path id="DejaVuSans-29" d="M513 4856h500q468-737 701-1444 233-706 233-1403 0-700-233-1409T1013-844H513q415 716 620 1424t205 1429q0 722-205 1425-205 704-620 1422" transform="scale(.01563)"/><path id="DejaVuSans-66" d="M2375 4863v-479h-550q-309 0-430-125-120-125-120-450v-309h947v-447h-947V0H697v3053H147v447h550v244q0 584 272 851 272 268 862 268z" transform="scale(.01563)"/><path id="DejaVuSans-33" d="M2597 2516q453-97 707-404 255-306 255-756 0-690-475-1069Q2609-91 1734-91q-293 0-604 58T488 141v609q262-153 574-231 313-78 654-78 593 0 904 234t311 681q0 413-289 645-289 233-804 233h-544v519h569q465 0 712 186t247 536q0 359-255 551-254 193-729 193-260 0-557-57-297-56-653-174v562q360 100 674 150t592 50q719 0 1137-327 419-326 419-882 0-388-222-655t-631-370" transform="scale(.01563)"/><path id="DejaVuSans-55" d="M556 4666h635V1831q0-750 271-1080 272-329 882-329 606 0 878 329 272 330 272 1080v2835h634V1753q0-912-452-1378Q3225-91 2344-91q-885 0-1337 466-451 466-451 1378z" transform="scale(.01563)"/><path id="DejaVuSans-4c" d="M628 4666h631V531h2272V0H628z" transform="scale(.01563)"/><path id="DejaVuSans-50" d="M1259 4147V2394h794q441 0 681 228 241 228 241 650 0 419-241 647-240 228-681 228zm-631 519h1425q785 0 1186-355 402-355 402-1039 0-691-402-1044-401-353-1186-353h-794V0H628z" transform="scale(.01563)"/></defs><use xlink:href="#DejaVuSans-73" transform="translate(0 .016)"/><use xlink:href="#DejaVuSans-69" transform="translate(52.1 .016)"/><use xlink:href="#DejaVuSans-6e" transform="translate(79.883 .016)"/><use xlink:href="#DejaVuSans-28" transform="translate(143.262 .016)"/><use xlink:href="#DejaVuSans-32" transform="translate(182.275 .016)"/><use xlink:href="#DejaVuSans-Oblique-3c0" transform="translate(245.898 .016)"/><use xlink:href="#DejaVuSans-Oblique-78" transform="translate(306.104 .016)"/><use xlink:href="#DejaVuSans-29" transform="translate(365.283 .016)"/><use xlink:href="#DejaVuSans-28" transform="translate(436.084 .016)"/><use xlink:href="#DejaVuSans-66" transform="translate(475.098 .016)"/><use xlink:href="#DejaVuSans-33" transform="translate(510.303 .016)"/><use xlink:href="#DejaVuSans-32" transform="translate(573.926 .016)"/><use xlink:href="#DejaVuSans-55" transform="translate(669.336 .016)"/><use xlink:href="#DejaVuSans-4c" transform="translate(742.53 .016)"/><use xlink:href="#DejaVuSans-50" transform="translate(798.242 .016)"/><use xlink:href="#DejaVuSans-29" transform="translate(858.545 .016)"/></g></g><path id="line2d_16" d="m92.29 218.926.813-.218.405.188.406-.406.406.782.406-.406.406.783.405-1.595 1.218 2.348.812-3.19.405 3.16.812-3.19.406 3.16.811-3.19.812 6.32 2.03-7.974.405 7.915 2.03-7.974.405 7.914 2.029-7.974.406 7.915.811-3.19.406 7.915.406-11.104.406 7.914.406-11.104.406 7.915.405-11.105.812 15.83.406-11.105.406 7.915.405-11.104.812 15.829.406-11.104.406 7.914.406-11.104.405 7.915.406-11.105.812 15.83.406-11.105.405 7.915.406-11.104.812 15.83.406-11.105.406 7.914.405-11.104.406 7.915.406-11.104.812 15.829.405-11.104.406 7.914.406-11.104.812 15.83.406-11.105.405 7.915.406-11.105.406 7.915.406-11.104.406 26.933 1.217-33.313.406 26.934.812-22.209.405 26.934 1.218-33.313.406 26.934.811-22.209.406 26.934 1.218-33.313.405 26.933.812-22.208.406 26.933.811-22.208.406 26.933 1.218-33.312.406 26.933.811-22.208.406 26.933 1.217-33.313.406 26.934.812-22.209.406 26.934 1.217-33.313.406 26.934.812-22.209.405 26.934.812-22.209.406 26.934 1.217-33.313.406 26.933.812-22.208.406 26.933 1.217-33.313.406 26.934.812-22.209.405 26.934 1.218-33.313.406 26.934.811-22.209.406 26.934.812-22.209.406 26.934 1.217-33.313.406 26.933.811-22.208.406 26.933 1.624-44.417.405 64.972 2.435-66.626.406 64.971 2.435-66.625.406 64.971 2.435-66.625.406 64.97 2.434-66.625.406 64.972 2.435-66.626.406 64.971 2.03-55.521.405 64.971 2.435-66.625.406 64.971 2.435-66.626.405 64.972 2.435-66.626.406 64.972 2.435-66.626.406 64.971 2.435-66.625.406 64.971 2.434-66.626.406 64.972 2.03-55.522.405 64.972 2.435-66.626.406 64.971 2.435-66.625.406 64.971 2.435-66.625.405 64.97 2.435-66.625.406 64.972 2.435-66.626.406 64.971 2.435-66.625.406 64.971 2.029-55.521.405 64.971L218.5 188.9l.406 64.972 2.435-66.626.406 64.972 2.435-66.626.406 64.971 3.652-99.938.406 141.047 5.275-144.356.406 141.047 5.276-144.355.406 141.047 4.87-133.252.405 141.047 5.276-144.355.406 141.047 5.275-144.356.406 141.047 4.87-133.25.406 141.046 5.276-144.355.405 141.047 5.276-144.356.406 141.047 5.275-144.355.406 141.046 4.87-133.25.406 141.046 5.276-144.355.405 141.047 5.276-144.356.406 141.047 4.87-133.251.405 141.047 5.276-144.356.406 141.047 5.276-144.355.405 141.047 4.87-133.251.406 141.047 5.276-144.356.405 141.047 5.276-144.356.406 141.047 5.276-144.355.405 141.047 4.87-133.251.406 141.047 5.276-144.356.405 141.047 5.276-144.355.406 141.047 4.87-133.252.406 141.047 8.116-222.085.406 293.198 10.551-288.711.406 293.198L386.915 69.09l.406 293.198 10.551-288.71.406 293.197L409.235 66.96l.406 293.198 10.551-288.71.406 293.197 10.551-288.71.406 293.198 10.957-299.816.406 293.199 10.551-288.712.406 293.199 10.957-299.816.406 293.199 10.551-288.711.406 293.198 10.551-288.711.406 293.198 10.957-299.815h0" clip-path="url(#pd0fa18ca83)" style="fill:none;stroke:#1f77b4;stroke-width:1.5;stroke-linecap:square"/><path id="patch_3" d="M72 384.48V51.84" style="fill:none;stroke:#000;stroke-width:.8;stroke-linejoin:miter;stroke-linecap:square"/><path id="patch_4" d="M518.4 384.48V51.84" style="fill:none;stroke:#000;stroke-width:.8;stroke-linejoin:miter;stroke-linecap:square"/><path id="patch_5" d="M72 384.48h446.4" style="fill:none;stroke:#000;stroke-width:.8;stroke-linejoin:miter;stroke-linecap:square"/><path id="patch_6" d="M72 51.84h446.4" style="fill:none;stroke:#000;stroke-width:.8;stroke-linejoin:miter;stroke-linecap:square"/></g></g><defs><clipPath id="pd0fa18ca83"><path d="M72 51.84h446.4v332.64H72z"/></clipPath></defs></svg>