<svg xmlns="http://www.w3.org/2000/svg" xmlns:xlink="http://www.w3.org/1999/xlink" width="1344" height="576" viewBox="0 0 1008 432"><defs><style>*{stroke-linejoin:round;stroke-linecap:butt}</style></defs><g id="figure_1"><path id="patch_1" d="M0 432h1008V0H0z" style="fill:#fff"/><g id="axes_1"><path id="patch_2" d="M126 384.48h355.09V51.84H126z" style="fill:#fff"/><g id="matplotlib.axis_1"><g id="xtick_1"><g id="line2d_1"><defs><path id="m4edae95441" d="M0 0v3.5" style="stroke:#000;stroke-width:.8"/></defs><use xlink:href="#m4edae95441" x="142.14" y="384.48" style="stroke:#000;stroke-width:.8"/></g><g id="text_1" transform="matrix(.1 0 0 -.1 134.189 399.078)"><defs><path id="DejaVuSans-30" d="M2034 4250q-487 0-733-480-245-479-245-1442 0-959 245-1439 246-480 733-480 491 0 736 480 246 480 246 1439 0 963-246 1442-245 480-736 480m0 500q785 0 1199-621 414-620 414-1801 0-1178-414-1799Q2819-91 2034-91q-784 0-1198 620-414 621-414 1799 0 1181 414 1801 414 621 1198 621" transform="scale(.01563)"/><path id="DejaVuSans-2e" d="M684 794h660V0H684z" transform="scale(.01563)"/></defs><use xlink:href="#DejaVuSans-30"/><use xlink:href="#DejaVuSans-2e" x="63.623"/><use xlink:href="#DejaVuSans-30" x="95.41"/></g></g><g id="xtick_2"><use xlink:href="#m4edae95441" id="line2d_2" x="186.975" y="384.48" style="stroke:#000;stroke-width:.8"/><g id="text_2" transform="matrix(.1 0 0 -.1 179.024 399.078)"><defs><path id="DejaVuSans-32" d="M1228 531h2203V0H469v531q359 372 979 998 621 627 780 809 303 340 423 576 121 236 121 464 0 372-261 606-261 235-680 235-297 0-627-103-329-103-704-313v638q381 153 712 231 332 78 607 78 725 0 1156-363 431-362 431-968 0-288-108-546-107-257-392-607-78-91-497-524-418-433-1181-1211" transform="scale(.01563)"/><path id="DejaVuSans-35" d="M691 4666h2478v-532H1269V2991q137 47 274 70 138 23 276 23 781 0 1237-428 457-428 457-1159 0-753-469-1171Q2575-91 1722-91q-294 0-599 50Q819 9 494 109v635q281-153 581-228t634-75q541 0 856 284 316 284 316 772 0 487-316 771-315 285-856 285-253 0-505-56-251-56-513-175z" transform="scale(.01563)"/></defs><use xlink:href="#DejaVuSans-32"/><use xlink:href="#DejaVuSans-2e" x="63.623"/><use xlink:href="#DejaVuSans-35" x="95.41"/></g></g><g id="xtick_3"><use xlink:href="#m4edae95441" id="line2d_3" x="231.81" y="384.48" style="stroke:#000;stroke-width:.8"/><g id="text_3" transform="matrix(.1 0 0 -.1 223.858 399.078)"><use xlink:href="#DejaVuSans-35"/><use xlink:href="#DejaVuSans-2e" x="63.623"/><use xlink:href="#DejaVuSans-30" x="95.41"/></g></g><g id="xtick_4"><use xlink:href="#m4edae95441" id="line2d_4" x="276.645" y="384.48" style="stroke:#000;stroke-width:.8"/><g id="text_4" transform="matrix(.1 0 0 -.1 268.693 399.078)"><defs><path id="DejaVuSans-37" d="M525 4666h3000v-269L1831 0h-659l1594 4134H525z" transform="scale(.01563)"/></defs><use xlink:href="#DejaVuSans-37"/><use xlink:href="#DejaVuSans-2e" x="63.623"/><use xlink:href="#DejaVuSans-35" x="95.41"/></g></g><g id="xtick_5"><use xlink:href="#m4edae95441" id="line2d_5" x="321.479" y="384.48" style="stroke:#000;stroke-width:.8"/><g id="text_5" transform="matrix(.1 0 0 -.1 310.347 399.078)"><defs><path id="DejaVuSans-31" d="M794 531h1031v3560L703 3866v575l1116 225h631V531h1031V0H794z" transform="scale(.01563)"/></defs><use xlink:href="#DejaVuSans-31"/><use xlink:href="#DejaVuSans-30" x="63.623"/><use xlink:href="#DejaVuSans-2e" x="127.246"/><use xlink:href="#DejaVuSans-30" x="159.033"/></g></g><g id="xtick_6"><use xlink:href="#m4edae95441" id="line2d_6" x="366.314" y="384.48" style="stroke:#000;stroke-width:.8"/><g id="text_6" transform="matrix(.1 0 0 -.1 355.181 399.078)"><use xlink:href="#DejaVuSans-31"/><use xlink:href="#DejaVuSans-32" x="63.623"/><use xlink:href="#DejaVuSans-2e" x="127.246"/><use xlink:href="#DejaVuSans-35" x="159.033"/></g></g><g id="xtick_7"><use xlink:href="#m4edae95441" id="line2d_7" x="411.149" y="384.48" style="stroke:#000;stroke-width:.8"/><g id="text_7" transform="matrix(.1 0 0 -.1 400.016 399.078)"><use xlink:href="#DejaVuSans-31"/><use xlink:href="#DejaVuSans-35" x="63.623"/><use xlink:href="#DejaVuSans-2e" x="127.246"/><use xlink:href="#DejaVuSans-30" x="159.033"/></g></g><g id="xtick_8"><use xlink:href="#m4edae95441" id="line2d_8" x="455.983" y="384.48" style="stroke:#000;stroke-width:.8"/><g id="text_8" transform="matrix(.1 0 0 -.1 444.85 399.078)"><use xlink:href="#DejaVuSans-31"/><use xlink:href="#DejaVuSans-37" x="63.623"/><use xlink:href="#DejaVuSans-2e" x="127.246"/><use xlink:href="#DejaVuSans-35" x="159.033"/></g></g><g id="text_9" transform="matrix(.1 0 0 -.1 286.024 412.757)"><defs><path id="DejaVuSans-64" d="M2906 2969v1894h575V0h-575v525q-181-312-458-464-276-152-664-152-634 0-1033 506-398 507-398 1332t398 1331q399 506 1033 506 388 0 664-152 277-151 458-463M947 1747q0-634 261-995t717-361 718 361q263 361 263 995t-263 995q-262 361-718 361t-717-361-261-995" transform="scale(.01563)"/><path id="DejaVuSans-65" d="M3597 1894v-281H953q38-594 358-905t892-311q331 0 642 81t618 244V178Q3153 47 2828-22t-659-69q-838 0-1327 487-489 488-489 1320 0 859 464 1363 464 505 1252 505 706 0 1117-455 411-454 411-1235m-575 169q-6 471-264 752-258 282-683 282-481 0-770-272t-333-766z" transform="scale(.01563)"/><path id="DejaVuSans-67" d="M2906 1791q0 625-258 968-257 344-723 344-462 0-720-344-258-343-258-968 0-622 258-966t720-344q466 0 723 344 258 344 258 966m575-1357q0-893-397-1329-396-436-1215-436-303 0-572 45t-522 139v559q253-137 500-202 247-66 503-66 566 0 847 295t281 892v285q-178-310-456-463T1784 0Q1141 0 747 490 353 981 353 1791q0 812 394 1302 394 491 1037 491 388 0 666-153t456-462v531h575z" transform="scale(.01563)"/><path id="DejaVuSans-72" d="M2631 2963q-97 56-211 82-114 27-251 27-488 0-749-317t-261-911V0H581v3500h578v-544q182 319 472 473 291 155 707 155 59 0 131-8 72-7 159-23z" transform="scale(.01563)"/></defs><use xlink:href="#DejaVuSans-64"/><use xlink:href="#DejaVuSans-65" x="63.477"/><use xlink:href="#DejaVuSans-67" x="125"/><use xlink:href="#DejaVuSans-72" x="188.477"/><use xlink:href="#DejaVuSans-65" x="227.34"/><use xlink:href="#DejaVuSans-65" x="288.863"/></g></g><g id="matplotlib.axis_2"><g id="ytick_1"><g id="line2d_9"><defs><path id="m2ad6b62d9d" d="M0 0h-3.5" style="stroke:#000;stroke-width:.8"/></defs><use xlink:href="#m2ad6b62d9d" x="126" y="369.36" style="stroke:#000;stroke-width:.8"/></g><use xlink:href="#DejaVuSans-30" id="text_10" transform="matrix(.1 0 0 -.1 112.638 373.16)"/></g><g id="ytick_2"><use xlink:href="#m2ad6b62d9d" id="line2d_10" x="126" y="297.262" style="stroke:#000;stroke-width:.8"/><use xlink:href="#DejaVuSans-32" id="text_11" transform="matrix(.1 0 0 -.1 112.638 301.061)"/></g><g id="ytick_3"><use xlink:href="#m2ad6b62d9d" id="line2d_11" x="126" y="225.164" style="stroke:#000;stroke-width:.8"/><g id="text_12" transform="matrix(.1 0 0 -.1 112.638 228.964)"><defs><path id="DejaVuSans-34" d="M2419 4116 825 1625h1594zm-166 550h794V1625h666v-525h-666V0h-628v1100H313v609z" transform="scale(.01563)"/></defs><use xlink:href="#DejaVuSans-34"/></g></g><g id="ytick_4"><use xlink:href="#m2ad6b62d9d" id="line2d_12" x="126" y="153.067" style="stroke:#000;stroke-width:.8"/><g id="text_13" transform="matrix(.1 0 0 -.1 112.638 156.866)"><defs><path id="DejaVuSans-36" d="M2113 2584q-425 0-674-291-248-290-248-796 0-503 248-796 249-292 674-292t673 292q248 293 248 796 0 506-248 796-248 291-673 291m1253 1979v-575q-238 112-480 171-242 60-480 60-625 0-955-422-329-422-376-1275 184 272 462 417 279 145 613 145 703 0 1111-427 408-426 408-1160 0-719-425-1154Q2819-91 2113-91q-810 0-1238 620-428 621-428 1799 0 1106 525 1764t1409 658q238 0 480-47t505-140" transform="scale(.01563)"/></defs><use xlink:href="#DejaVuSans-36"/></g></g><g id="ytick_5"><use xlink:href="#m2ad6b62d9d" id="line2d_13" x="126" y="80.969" style="stroke:#000;stroke-width:.8"/><g id="text_14" transform="matrix(.1 0 0 -.1 112.638 84.768)"><defs><path id="DejaVuSans-38" d="M2034 2216q-450 0-708-241-257-241-257-662 0-422 257-663 258-241 708-241t709 242q260 243 260 662 0 421-258 662-257 241-711 241m-631 268q-406 100-633 378-226 279-226 679 0 559 398 884 399 325 1092 325 697 0 1094-325t397-884q0-400-227-679-226-278-629-378 456-106 710-416 255-309 255-755 0-679-414-1042Q2806-91 2034-91q-771 0-1186 362-414 363-414 1042 0 446 256 755 257 310 713 416m-231 997q0-362 226-565 227-203 636-203 407 0 636 203 230 203 230 565 0 363-230 566-229 203-636 203-409 0-636-203-226-203-226-566" transform="scale(.01563)"/></defs><use xlink:href="#DejaVuSans-38"/></g></g><g id="text_15" transform="matrix(0 -.1 -.1 0 106.558 254.925)"><defs><path id="DejaVuSans-6f" d="M1959 3097q-462 0-731-361t-269-989 267-989q268-361 733-361 460 0 728 362 269 363 269 988 0 622-269 986-268 364-728 364m0 487q750 0 1178-488 429-487 429-1349 0-859-429-1349Q2709-91 1959-91q-753 0-1180 489-426 490-426 1349 0 862 426 1349 427 488 1180 488" transform="scale(.01563)"/><path id="DejaVuSans-28" d="M1984 4856q-418-718-622-1422-203-703-203-1425 0-721 205-1429t620-1424h-500Q1016-109 783 600T550 2009q0 697 231 1403 232 707 703 1444z" transform="scale(.01563)"/><path id="DejaVuSans-66" d="M2375 4863v-479h-550q-309 0-430-125-120-125-120-450v-309h947v-447h-947V0H697v3053H147v447h550v244q0 584 272 851 272 268 862 268z" transform="scale(.01563)"/><path id="DejaVuSans-33" d="M2597 2516q453-97 707-404 255-306 255-756 0-690-475-1069Q2609-91 1734-91q-293 0-604 58T488 141v609q262-153 574-231 313-78 654-78 593 0 904 234t311 681q0 413-289 645-289 233-804 233h-544v519h569q465 0 712 186t247 536q0 359-255 551-254 193-729 193-260 0-557-57-297-56-653-174v562q360 100 674 150t592 50q719 0 1137-327 419-326 419-882 0-388-222-655t-631-370" transform="scale(.01563)"/><path id="DejaVuSans-55" d="M556 4666h635V1831q0-750 271-1080 272-329 882-329 606 0 878 329 272 330 272 1080v2835h634V1753q0-912-452-1378Q3225-91 2344-91q-885 0-1337 466-451 466-451 1378z" transform="scale(.01563)"/><path id="DejaVuSans-4c" d="M628 4666h631V531h2272V0H628z" transform="scale(.01563)"/><path id="DejaVuSans-50" d="M1259 4147V2394h794q441 0 681 228 241 228 241 650 0 419-241 647-240 228-681 228zm-631 519h1425q785 0 1186-355 402-355 402-1039 0-691-402-1044-401-353-1186-353h-794V0H628z" transform="scale(.01563)"/><path id="DejaVuSans-29" d="M513 4856h500q468-737 701-1444 233-706 233-1403 0-700-233-1409T1013-844H513q415 716 620 1424t205 1429q0 722-205 1425-205 704-620 1422" transform="scale(.01563)"/></defs><use xlink:href="#DejaVuSans-65"/><use xlink:href="#DejaVuSans-72" x="61.523"/><use xlink:href="#DejaVuSans-72" x="100.887"/><use xlink:href="#DejaVuSans-6f" x="139.75"/><use xlink:href="#DejaVuSans-72" x="200.932"/><use xlink:href="#DejaVuSans-28" x="273.832"/><use xlink:href="#DejaVuSans-66" x="312.846"/><use xlink:href="#DejaVuSans-33" x="348.051"/><use xlink:href="#DejaVuSans-32" x="411.674"/><use xlink:href="#DejaVuSans-55" x="507.084"/><use xlink:href="#DejaVuSans-4c" x="580.277"/><use xlink:href="#DejaVuSans-50" x="635.99"/><use xlink:href="#DejaVuSans-29" x="696.293"/></g><g id="text_16" transform="matrix(.1 0 0 -.1 126 48.84)"><use xlink:href="#DejaVuSans-31"/><use xlink:href="#DejaVuSans-65" x="63.623"/><use xlink:href="#DejaVuSans-36" x="125.146"/></g></g><path id="line2d_14" d="m142.14 66.96 35.868 231.729 35.868 64.632 35.868 5.768 35.868.264 35.867.007H464.95" clip-path="url(#p0bdaae05dd)" style="fill:none;stroke:#1f77b4;stroke-width:1.5;stroke-linecap:square"/><path id="line2d_15" d="m142.14 66.96 35.868 231.729 35.868 64.632 35.868 5.768 35.868.263 35.867.008H464.95" clip-path="url(#p0bdaae05dd)" style="fill:none;stroke:#ff7f0e;stroke-width:1.5;stroke-linecap:square"/><path id="patch_3" d="M126 384.48V51.84" style="fill:none;stroke:#000;stroke-width:.8;stroke-linejoin:miter;stroke-linecap:square"/><path id="patch_4" d="M481.09 384.48V51.84" style="fill:none;stroke:#000;stroke-width:.8;stroke-linejoin:miter;stroke-linecap:square"/><path id="patch_5" d="M126 384.48h355.09" style="fill:none;stroke:#000;stroke-width:.8;stroke-linejoin:miter;stroke-linecap:square"/><path id="patch_6" d="M126 51.84h355.09" style="fill:none;stroke:#000;stroke-width:.8;stroke-linejoin:miter;stroke-linecap:square"/><g id="text_17" transform="matrix(.12 0 0 -.12 210.784 45.84)"><defs><path id="DejaVuSans-45" d="M628 4666h2950v-532H1259V2753h2222v-531H1259V531h2375V0H628z" transform="scale(.01563)"/><path id="DejaVuSans-74" d="M1172 4494v-994h1184v-447H1172V1153q0-428 117-550t477-122h590V0h-590q-666 0-919 248-253 249-253 905v1900H172v447h422v994z" transform="scale(.01563)"/><path id="DejaVuSans-75" d="M544 1381v2119h575V1403q0-497 193-746 194-248 582-248 465 0 735 297 271 297 271 810v1984h575V0h-575v538q-209-319-486-474-276-155-642-155-603 0-916 375-312 375-312 1097m1447 2203" transform="scale(.01563)"/><path id="DejaVuSans-6e" d="M3513 2113V0h-575v2094q0 497-194 743-194 247-581 247-466 0-735-297-269-296-269-809V0H581v3500h578v-544q207 316 486 472 280 156 646 156 603 0 912-373 310-373 310-1098" transform="scale(.01563)"/><path id="DejaVuSans-63" d="M3122 3366v-538q-244 135-489 202t-495 67q-560 0-870-355-309-354-309-995t309-996q310-354 870-354 250 0 495 67t489 202V134Q2881 22 2623-34q-257-57-548-57-791 0-1257 497-465 497-465 1341 0 856 470 1346 471 491 1290 491 265 0 518-55 253-54 491-163" transform="scale(.01563)"/><path id="DejaVuSans-61" d="M2194 1759q-697 0-966-159t-269-544q0-306 202-486 202-179 548-179 479 0 768 339t289 901v128zm1147 238V0h-575v531q-197-318-491-470T1556-91q-537 0-855 302-317 302-317 808 0 590 395 890 396 300 1180 300h807v57q0 397-261 614t-733 217q-300 0-585-72-284-72-546-216v532q315 122 612 182 297 61 578 61 760 0 1135-394 375-393 375-1193" transform="scale(.01563)"/><path id="DejaVuSans-54" d="M-19 4666h3947v-532H2272V0h-634v4134H-19z" transform="scale(.01563)"/><path id="DejaVuSans-79" d="M2059-325q-243-625-475-815-231-191-618-191H506v481h338q237 0 368 113 132 112 291 531l103 262L191 3500h609L1894 763l1094 2737h609z" transform="scale(.01563)"/><path id="DejaVuSans-6c" d="M603 4863h575V0H603z" transform="scale(.01563)"/><path id="DejaVuSans-73" d="M2834 3397v-544q-243 125-506 187-262 63-544 63-428 0-642-131t-214-394q0-200 153-314t616-217l197-44q612-131 870-370t258-667q0-488-386-773Q2250-91 1575-91q-281 0-586 55T347 128v594q319-166 628-249 309-82 613-82 406 0 624 139 219 139 219 392 0 234-158 359-157 125-692 241l-200 47q-534 112-772 345-237 233-237 639 0 494 350 762 350 269 994 269 318 0 599-47 282-46 519-140" transform="scale(.01563)"/><path id="DejaVuSans-69" d="M603 3500h575V0H603zm0 1363h575v-729H603z" transform="scale(.01563)"/></defs><use xlink:href="#DejaVuSans-45"/><use xlink:href="#DejaVuSans-72" x="63.184"/><use xlink:href="#DejaVuSans-72" x="102.547"/><use xlink:href="#DejaVuSans-6f" x="141.41"/><use xlink:href="#DejaVuSans-72" x="202.592"/><use xlink:href="#DejaVuSans-6f" x="275.492"/><use xlink:href="#DejaVuSans-66" x="336.674"/><use xlink:href="#DejaVuSans-74" x="403.666"/><use xlink:href="#DejaVuSans-72" x="442.875"/><use xlink:href="#DejaVuSans-75" x="483.988"/><use xlink:href="#DejaVuSans-6e" x="547.367"/><use xlink:href="#DejaVuSans-63" x="610.746"/><use xlink:href="#DejaVuSans-61" x="665.727"/><use xlink:href="#DejaVuSans-74" x="727.006"/><use xlink:href="#DejaVuSans-65" x="766.215"/><use xlink:href="#DejaVuSans-64" x="827.738"/><use xlink:href="#DejaVuSans-54" x="923.002"/><use xlink:href="#DejaVuSans-61" x="967.586"/><use xlink:href="#DejaVuSans-79" x="1028.865"/><use xlink:href="#DejaVuSans-6c" x="1088.045"/><use xlink:href="#DejaVuSans-6f" x="1115.828"/><use xlink:href="#DejaVuSans-72" x="1177.01"/><use xlink:href="#DejaVuSans-73" x="1249.91"/><use xlink:href="#DejaVuSans-65" x="1302.01"/><use xlink:href="#DejaVuSans-72" x="1363.533"/><use xlink:href="#DejaVuSans-69" x="1404.646"/><use xlink:href="#DejaVuSans-65" x="1432.43"/><use xlink:href="#DejaVuSans-73" x="1493.953"/></g><g id="legend_1"><path id="patch_7" d="M260.472 89.196h213.619q2 0 2-2V58.84q0-2-2-2H260.472q-2 0-2 2v28.356q0 2 2 2z" style="fill:#fff;opacity:.8;stroke:#ccc;stroke-linejoin:miter"/><path id="line2d_16" d="M262.472 64.938h20" style="fill:none;stroke:#1f77b4;stroke-width:1.5;stroke-linecap:square"/><g id="text_18" transform="matrix(.1 0 0 -.1 290.472 68.438)"><defs><path id="DejaVuSans-78" d="M3513 3500 2247 1797 3578 0h-678L1881 1375 863 0H184l1360 1831L300 3500h678l928-1247 928 1247z" transform="scale(.01563)"/><path id="DejaVuSans-3d" d="M678 2906h4006v-525H678zm0-1275h4006v-531H678z" transform="scale(.01563)"/></defs><use xlink:href="#DejaVuSans-45"/><use xlink:href="#DejaVuSans-72" x="63.184"/><use xlink:href="#DejaVuSans-72" x="102.547"/><use xlink:href="#DejaVuSans-6f" x="141.41"/><use xlink:href="#DejaVuSans-72" x="202.592"/><use xlink:href="#DejaVuSans-61" x="275.492"/><use xlink:href="#DejaVuSans-74" x="336.771"/><use xlink:href="#DejaVuSans-78" x="407.768"/><use xlink:href="#DejaVuSans-3d" x="498.734"/><use xlink:href="#DejaVuSans-30" x="614.311"/><use xlink:href="#DejaVuSans-61" x="709.721"/><use xlink:href="#DejaVuSans-6e" x="771"/><use xlink:href="#DejaVuSans-64" x="834.379"/><use xlink:href="#DejaVuSans-78" x="929.643"/><use xlink:href="#DejaVuSans-3d" x="1020.609"/><use xlink:href="#DejaVuSans-31" x="1136.186"/></g><path id="line2d_17" d="M262.472 79.617h20" style="fill:none;stroke:#ff7f0e;stroke-width:1.5;stroke-linecap:square"/><g id="text_19" transform="matrix(.1 0 0 -.1 290.472 83.117)"><defs><path id="DejaVuSans-6d" d="M3328 2828q216 388 516 572t706 184q547 0 844-383 297-382 297-1088V0h-578v2094q0 503-179 746-178 244-543 244-447 0-707-297-259-296-259-809V0h-578v2094q0 506-178 748t-550 242q-441 0-701-298-259-298-259-808V0H581v3500h578v-544q197 322 472 475t653 153q382 0 649-194 267-193 395-562" transform="scale(.01563)"/><path id="DejaVuSans-70" d="M1159 525v-1856H581v4831h578v-531q182 312 458 463 277 152 661 152 638 0 1036-506 399-506 399-1331T3314 415Q2916-91 2278-91q-384 0-661 152-276 152-458 464m1957 1222q0 634-261 995t-717 361q-457 0-718-361t-261-995 261-995 718-361q456 0 717 361t261 995" transform="scale(.01563)"/><path id="DejaVuSans-77" d="M269 3500h575l719-2731 715 2731h678l719-2731 716 2731h575L4050 0h-678l-753 2869L1863 0h-679z" transform="scale(.01563)"/><path id="DejaVuSans-68" d="M3513 2113V0h-575v2094q0 497-194 743-194 247-581 247-466 0-735-297-269-296-269-809V0H581v4863h578V2956q207 316 486 472 280 156 646 156 603 0 912-373 310-373 310-1098" transform="scale(.01563)"/><path id="DejaVuSans-62" d="M3116 1747q0 634-261 995t-717 361q-457 0-718-361t-261-995 261-995 718-361q456 0 717 361t261 995M1159 2969q182 312 458 463 277 152 661 152 638 0 1036-506 399-506 399-1331T3314 415Q2916-91 2278-91q-384 0-661 152-276 152-458 464V0H581v4863h578z" transform="scale(.01563)"/><path id="DejaVuSans-6b" d="M581 4863h578V1991l1716 1509h734L1753 1863 3688 0h-750L1159 1709V0H581z" transform="scale(.01563)"/></defs><use xlink:href="#DejaVuSans-45"/><use xlink:href="#DejaVuSans-72" x="63.184"/><use xlink:href="#DejaVuSans-72" x="102.547"/><use xlink:href="#DejaVuSans-6f" x="141.41"/><use xlink:href="#DejaVuSans-72" x="202.592"/><use xlink:href="#DejaVuSans-63" x="275.492"/><use xlink:href="#DejaVuSans-6f" x="330.473"/><use xlink:href="#DejaVuSans-6d" x="391.654"/><use xlink:href="#DejaVuSans-70" x="489.066"/><use xlink:href="#DejaVuSans-75" x="552.543"/><use xlink:href="#DejaVuSans-74" x="615.922"/><use xlink:href="#DejaVuSans-65" x="655.131"/><use xlink:href="#DejaVuSans-64" x="716.654"/><use xlink:href="#DejaVuSans-77" x="811.918"/><use xlink:href="#DejaVuSans-69" x="893.705"/><use xlink:href="#DejaVuSans-74" x="921.488"/><use xlink:href="#DejaVuSans-68" x="960.697"/><use xlink:href="#DejaVuSans-74" x="1055.863"/><use xlink:href="#DejaVuSans-68" x="1095.072"/><use xlink:href="#DejaVuSans-65" x="1158.451"/><use xlink:href="#DejaVuSans-62" x="1251.762"/><use xlink:href="#DejaVuSans-65" x="1315.238"/><use xlink:href="#DejaVuSans-6e" x="1376.762"/><use xlink:href="#DejaVuSans-63" x="1440.141"/><use xlink:href="#DejaVuSans-68" x="1495.121"/><use xlink:href="#DejaVuSans-6d" x="1558.5"/><use xlink:href="#DejaVuSans-61" x="1655.912"/><use xlink:href="#DejaVuSans-72" x="1717.191"/><use xlink:href="#DejaVuSans-6b" x="1758.305"/></g></g></g><g id="axes_2"><path id="patch_8" d="M552.11 384.48H907.2V51.84H552.11z" style="fill:#fff"/><g id="matplotlib.axis_3"><g id="xtick_9"><use xlink:href="#m4edae95441" id="line2d_18" x="568.25" y="384.48" style="stroke:#000;stroke-width:.8"/><g id="text_20" transform="matrix(.1 0 0 -.1 560.298 399.078)"><use xlink:href="#DejaVuSans-30"/><use xlink:href="#DejaVuSans-2e" x="63.623"/><use xlink:href="#DejaVuSans-30" x="95.41"/></g></g><g id="xtick_10"><use xlink:href="#m4edae95441" id="line2d_19" x="613.084" y="384.48" style="stroke:#000;stroke-width:.8"/><g id="text_21" transform="matrix(.1 0 0 -.1 605.133 399.078)"><use xlink:href="#DejaVuSans-32"/><use xlink:href="#DejaVuSans-2e" x="63.623"/><use xlink:href="#DejaVuSans-35" x="95.41"/></g></g><g id="xtick_11"><use xlink:href="#m4edae95441" id="line2d_20" x="657.919" y="384.48" style="stroke:#000;stroke-width:.8"/><g id="text_22" transform="matrix(.1 0 0 -.1 649.967 399.078)"><use xlink:href="#DejaVuSans-35"/><use xlink:href="#DejaVuSans-2e" x="63.623"/><use xlink:href="#DejaVuSans-30" x="95.41"/></g></g><g id="xtick_12"><use xlink:href="#m4edae95441" id="line2d_21" x="702.754" y="384.48" style="stroke:#000;stroke-width:.8"/><g id="text_23" transform="matrix(.1 0 0 -.1 694.802 399.078)"><use xlink:href="#DejaVuSans-37"/><use xlink:href="#DejaVuSans-2e" x="63.623"/><use xlink:href="#DejaVuSans-35" x="95.41"/></g></g><g id="xtick_13"><use xlink:href="#m4edae95441" id="line2d_22" x="747.588" y="384.48" style="stroke:#000;stroke-width:.8"/><g id="text_24" transform="matrix(.1 0 0 -.1 736.456 399.078)"><use xlink:href="#DejaVuSans-31"/><use xlink:href="#DejaVuSans-30" x="63.623"/><use xlink:href="#DejaVuSans-2e" x="127.246"/><use xlink:href="#DejaVuSans-30" x="159.033"/></g></g><g id="xtick_14"><use xlink:href="#m4edae95441" id="line2d_23" x="792.423" y="384.48" style="stroke:#000;stroke-width:.8"/><g id="text_25" transform="matrix(.1 0 0 -.1 781.29 399.078)"><use xlink:href="#DejaVuSans-31"/><use xlink:href="#DejaVuSans-32" x="63.623"/><use xlink:href="#DejaVuSans-2e" x="127.246"/><use xlink:href="#DejaVuSans-35" x="159.033"/></g></g><g id="xtick_15"><use xlink:href="#m4edae95441" id="line2d_24" x="837.258" y="384.48" style="stroke:#000;stroke-width:.8"/><g id="text_26" transform="matrix(.1 0 0 -.1 826.125 399.078)"><use xlink:href="#DejaVuSans-31"/><use xlink:href="#DejaVuSans-35" x="63.623"/><use xlink:href="#DejaVuSans-2e" x="127.246"/><use xlink:href="#DejaVuSans-30" x="159.033"/></g></g><g id="xtick_16"><use xlink:href="#m4edae95441" id="line2d_25" x="882.093" y="384.48" style="stroke:#000;stroke-width:.8"/><g id="text_27" transform="matrix(.1 0 0 -.1 870.96 399.078)"><use xlink:href="#DejaVuSans-31"/><use xlink:href="#DejaVuSans-37" x="63.623"/><use xlink:href="#DejaVuSans-2e" x="127.246"/><use xlink:href="#DejaVuSans-35" x="159.033"/></g></g><g id="text_28" transform="matrix(.1 0 0 -.1 712.133 412.757)"><use xlink:href="#DejaVuSans-64"/><use xlink:href="#DejaVuSans-65" x="63.477"/><use xlink:href="#DejaVuSans-67" x="125"/><use xlink:href="#DejaVuSans-72" x="188.477"/><use xlink:href="#DejaVuSans-65" x="227.34"/><use xlink:href="#DejaVuSans-65" x="288.863"/></g></g><g id="matplotlib.axis_4"><g id="ytick_6"><use xlink:href="#m2ad6b62d9d" id="line2d_26" x="552.109" y="358.023" style="stroke:#000;stroke-width:.8"/><g id="text_29" transform="matrix(.1 0 0 -.1 521.61 361.822)"><defs><path id="DejaVuSans-2212" d="M678 2272h4006v-531H678z" transform="scale(.01563)"/></defs><use xlink:href="#DejaVuSans-31" transform="translate(0 .684)"/><use xlink:href="#DejaVuSans-30" transform="translate(63.623 .684)"/><use xlink:href="#DejaVuSans-2212" transform="matrix(.7 0 0 .7 128.203 38.966)"/><use xlink:href="#DejaVuSans-37" transform="matrix(.7 0 0 .7 186.855 38.966)"/></g></g><g id="ytick_7"><use xlink:href="#m2ad6b62d9d" id="line2d_27" x="552.109" y="316.214" style="stroke:#000;stroke-width:.8"/><g id="text_30" transform="matrix(.1 0 0 -.1 521.61 320.014)"><use xlink:href="#DejaVuSans-31" transform="translate(0 .684)"/><use xlink:href="#DejaVuSans-30" transform="translate(63.623 .684)"/><use xlink:href="#DejaVuSans-2212" transform="matrix(.7 0 0 .7 128.203 38.966)"/><use xlink:href="#DejaVuSans-35" transform="matrix(.7 0 0 .7 186.855 38.966)"/></g></g><g id="ytick_8"><use xlink:href="#m2ad6b62d9d" id="line2d_28" x="552.109" y="274.406" style="stroke:#000;stroke-width:.8"/><g id="text_31" transform="matrix(.1 0 0 -.1 521.61 278.205)"><use xlink:href="#DejaVuSans-31" transform="translate(0 .766)"/><use xlink:href="#DejaVuSans-30" transform="translate(63.623 .766)"/><use xlink:href="#DejaVuSans-2212" transform="matrix(.7 0 0 .7 128.203 39.047)"/><use xlink:href="#DejaVuSans-33" transform="matrix(.7 0 0 .7 186.855 39.047)"/></g></g><g id="ytick_9"><use xlink:href="#m2ad6b62d9d" id="line2d_29" x="552.109" y="232.598" style="stroke:#000;stroke-width:.8"/><g id="text_32" transform="matrix(.1 0 0 -.1 521.61 236.397)"><use xlink:href="#DejaVuSans-31" transform="translate(0 .684)"/><use xlink:href="#DejaVuSans-30" transform="translate(63.623 .684)"/><use xlink:href="#DejaVuSans-2212" transform="matrix(.7 0 0 .7 128.203 38.966)"/><use xlink:href="#DejaVuSans-31" transform="matrix(.7 0 0 .7 186.855 38.966)"/></g></g><g id="ytick_10"><use xlink:href="#m2ad6b62d9d" id="line2d_30" x="552.109" y="190.79" style="stroke:#000;stroke-width:.8"/><g id="text_33" transform="matrix(.1 0 0 -.1 527.51 194.589)"><use xlink:href="#DejaVuSans-31" transform="translate(0 .684)"/><use xlink:href="#DejaVuSans-30" transform="translate(63.623 .684)"/><use xlink:href="#DejaVuSans-31" transform="matrix(.7 0 0 .7 128.203 38.966)"/></g></g><g id="ytick_11"><use xlink:href="#m2ad6b62d9d" id="line2d_31" x="552.109" y="148.981" style="stroke:#000;stroke-width:.8"/><g id="text_34" transform="matrix(.1 0 0 -.1 527.51 152.78)"><use xlink:href="#DejaVuSans-31" transform="translate(0 .766)"/><use xlink:href="#DejaVuSans-30" transform="translate(63.623 .766)"/><use xlink:href="#DejaVuSans-33" transform="matrix(.7 0 0 .7 128.203 39.047)"/></g></g><g id="ytick_12"><use xlink:href="#m2ad6b62d9d" id="line2d_32" x="552.109" y="107.173" style="stroke:#000;stroke-width:.8"/><g id="text_35" transform="matrix(.1 0 0 -.1 527.51 110.972)"><use xlink:href="#DejaVuSans-31" transform="translate(0 .684)"/><use xlink:href="#DejaVuSans-30" transform="translate(63.623 .684)"/><use xlink:href="#DejaVuSans-35" transform="matrix(.7 0 0 .7 128.203 38.966)"/></g></g><g id="ytick_13"><use xlink:href="#m2ad6b62d9d" id="line2d_33" x="552.109" y="65.365" style="stroke:#000;stroke-width:.8"/><g id="text_36" transform="matrix(.1 0 0 -.1 527.51 69.164)"><use xlink:href="#DejaVuSans-31" transform="translate(0 .684)"/><use xlink:href="#DejaVuSans-30" transform="translate(63.623 .684)"/><use xlink:href="#DejaVuSans-37" transform="matrix(.7 0 0 .7 128.203 38.966)"/></g></g><g id="text_37" transform="matrix(0 -.1 -.1 0 515.53 254.925)"><use xlink:href="#DejaVuSans-65"/><use xlink:href="#DejaVuSans-72" x="61.523"/><use xlink:href="#DejaVuSans-72" x="100.887"/><use xlink:href="#DejaVuSans-6f" x="139.75"/><use xlink:href="#DejaVuSans-72" x="200.932"/><use xlink:href="#DejaVuSans-28" x="273.832"/><use xlink:href="#DejaVuSans-66" x="312.846"/><use xlink:href="#DejaVuSans-33" x="348.051"/><use xlink:href="#DejaVuSans-32" x="411.674"/><use xlink:href="#DejaVuSans-55" x="507.084"/><use xlink:href="#DejaVuSans-4c" x="580.277"/><use xlink:href="#DejaVuSans-50" x="635.99"/><use xlink:href="#DejaVuSans-29" x="696.293"/></g></g><path id="line2d_34" d="m568.25 66.96 35.867 13.198 35.868 22.332 35.868 28.194 35.868 32.574 35.867 36.083 35.868 39.016 35.868 41.537 35.868 43.748 35.868 45.718" clip-path="url(#p12cfdcb53b)" style="fill:none;stroke:#1f77b4;stroke-width:1.5;stroke-linecap:square"/><path id="line2d_35" d="m568.25 66.96 35.867 13.198 35.868 22.332 35.868 28.194 35.868 32.545 35.867 35.098 35.868 13.322 35.868.283h71.736" clip-path="url(#p12cfdcb53b)" style="fill:none;stroke:#ff7f0e;stroke-width:1.5;stroke-linecap:square"/><path id="patch_9" d="M552.11 384.48V51.84" style="fill:none;stroke:#000;stroke-width:.8;stroke-linejoin:miter;stroke-linecap:square"/><path id="patch_10" d="M907.2 384.48V51.84" style="fill:none;stroke:#000;stroke-width:.8;stroke-linejoin:miter;stroke-linecap:square"/><path id="patch_11" d="M552.11 384.48H907.2" style="fill:none;stroke:#000;stroke-width:.8;stroke-linejoin:miter;stroke-linecap:square"/><path id="patch_12" d="M552.11 51.84H907.2" style="fill:none;stroke:#000;stroke-width:.8;stroke-linejoin:miter;stroke-linecap:square"/><g id="text_38" transform="matrix(.12 0 0 -.12 603.79 45.84)"><use xlink:href="#DejaVuSans-45"/><use xlink:href="#DejaVuSans-72" x="63.184"/><use xlink:href="#DejaVuSans-72" x="102.547"/><use xlink:href="#DejaVuSans-6f" x="141.41"/><use xlink:href="#DejaVuSans-72" x="202.592"/><use xlink:href="#DejaVuSans-6f" x="275.492"/><use xlink:href="#DejaVuSans-66" x="336.674"/><use xlink:href="#DejaVuSans-74" x="403.666"/><use xlink:href="#DejaVuSans-72" x="442.875"/><use xlink:href="#DejaVuSans-75" x="483.988"/><use xlink:href="#DejaVuSans-6e" x="547.367"/><use xlink:href="#DejaVuSans-63" x="610.746"/><use xlink:href="#DejaVuSans-61" x="665.727"/><use xlink:href="#DejaVuSans-74" x="727.006"/><use xlink:href="#DejaVuSans-65" x="766.215"/><use xlink:href="#DejaVuSans-64" x="827.738"/><use xlink:href="#DejaVuSans-54" x="923.002"/><use xlink:href="#DejaVuSans-61" x="967.586"/><use xlink:href="#DejaVuSans-79" x="1028.865"/><use xlink:href="#DejaVuSans-6c" x="1088.045"/><use xlink:href="#DejaVuSans-6f" x="1115.828"/><use xlink:href="#DejaVuSans-72" x="1177.01"/><use xlink:href="#DejaVuSans-73" x="1249.91"/><use xlink:href="#DejaVuSans-65" x="1302.01"/><use xlink:href="#DejaVuSans-72" x="1363.533"/><use xlink:href="#DejaVuSans-69" x="1404.646"/><use xlink:href="#DejaVuSans-65" x="1432.43"/><use xlink:href="#DejaVuSans-73" x="1493.953"/><use xlink:href="#DejaVuSans-28" x="1577.84"/><use xlink:href="#DejaVuSans-6c" x="1616.854"/><use xlink:href="#DejaVuSans-6f" x="1644.637"/><use xlink:href="#DejaVuSans-67" x="1705.818"/><use xlink:href="#DejaVuSans-73" x="1801.082"/><use xlink:href="#DejaVuSans-63" x="1853.182"/><use xlink:href="#DejaVuSans-61" x="1908.162"/><use xlink:href="#DejaVuSans-6c" x="1969.441"/><use xlink:href="#DejaVuSans-65" x="1997.225"/><use xlink:href="#DejaVuSans-29" x="2058.748"/></g><g id="legend_2"><path id="patch_13" d="M686.581 89.196H900.2q2 0 2-2V58.84q0-2-2-2H686.581q-2 0-2 2v28.356q0 2 2 2z" style="fill:#fff;opacity:.8;stroke:#ccc;stroke-linejoin:miter"/><path id="line2d_36" d="M688.581 64.938h20" style="fill:none;stroke:#1f77b4;stroke-width:1.5;stroke-linecap:square"/><g id="text_39" transform="matrix(.1 0 0 -.1 716.581 68.438)"><use xlink:href="#DejaVuSans-45"/><use xlink:href="#DejaVuSans-72" x="63.184"/><use xlink:href="#DejaVuSans-72" x="102.547"/><use xlink:href="#DejaVuSans-6f" x="141.41"/><use xlink:href="#DejaVuSans-72" x="202.592"/><use xlink:href="#DejaVuSans-61" x="275.492"/><use xlink:href="#DejaVuSans-74" x="336.771"/><use xlink:href="#DejaVuSans-78" x="407.768"/><use xlink:href="#DejaVuSans-3d" x="498.734"/><use xlink:href="#DejaVuSans-30" x="614.311"/><use xlink:href="#DejaVuSans-61" x="709.721"/><use xlink:href="#DejaVuSans-6e" x="771"/><use xlink:href="#DejaVuSans-64" x="834.379"/><use xlink:href="#DejaVuSans-78" x="929.643"/><use xlink:href="#DejaVuSans-3d" x="1020.609"/><use xlink:href="#DejaVuSans-31" x="1136.186"/></g><path id="line2d_37" d="M688.581 79.617h20" style="fill:none;stroke:#ff7f0e;stroke-width:1.5;stroke-linecap:square"/><g id="text_40" transform="matrix(.1 0 0 -.1 716.581 83.117)"><use xlink:href="#DejaVuSans-45"/><use xlink:href="#DejaVuSans-72" x="63.184"/><use xlink:href="#DejaVuSans-72" x="102.547"/><use xlink:href="#DejaVuSans-6f" x="141.41"/><use xlink:href="#DejaVuSans-72" x="202.592"/><use xlink:href="#DejaVuSans-63" x="275.492"/><use xlink:href="#DejaVuSans-6f" x="330.473"/><use xlink:href="#DejaVuSans-6d" x="391.654"/><use xlink:href="#DejaVuSans-70" x="489.066"/><use xlink:href="#DejaVuSans-75" x="552.543"/><use xlink:href="#DejaVuSans-74" x="615.922"/><use xlink:href="#DejaVuSans-65" x="655.131"/><use xlink:href="#DejaVuSans-64" x="716.654"/><use xlink:href="#DejaVuSans-77" x="811.918"/><use xlink:href="#DejaVuSans-69" x="893.705"/><use xlink:href="#DejaVuSans-74" x="921.488"/><use xlink:href="#DejaVuSans-68" x="960.697"/><use xlink:href="#DejaVuSans-74" x="1055.863"/><use xlink:href="#DejaVuSans-68" x="1095.072"/><use xlink:href="#DejaVuSans-65" x="1158.451"/><use xlink:href="#DejaVuSans-62" x="1251.762"/><use xlink:href="#DejaVuSans-65" x="1315.238"/><use xlink:href="#DejaVuSans-6e" x="1376.762"/><use xlink:href="#DejaVuSans-63" x="1440.141"/><use xlink:href="#DejaVuSans-68" x="1495.121"/><use xlink:href="#DejaVuSans-6d" x="1558.5"/><use xlink:href="#DejaVuSans-61" x="1655.912"/><use xlink:href="#DejaVuSans-72" x="1717.191"/><use xlink:href="#DejaVuSans-6b" x="1758.305"/></g></g></g></g><defs><clipPath id="p0bdaae05dd"><path d="M126 51.84h355.091v332.64H126z"/></clipPath><clipPath id="p12cfdcb53b"><path d="M552.109 51.84H907.2v332.64H552.109z"/></clipPath></defs></svg>